<svg width="50" height="50" viewBox="0 0 50 50" fill="none" xmlns="http://www.w3.org/2000/svg">
<g clip-path="url(#clip0_194_72)">
<path d="M25 49.9996C11.1832 49.9996 0 38.8027 0 25C0 11.1828 11.1813 0 25 0C38.8172 0 49.9996 11.1813 49.9996 25C49.9996 38.8161 38.8016 49.9996 25 49.9996Z" fill="#29B4C2"/>
<path d="M25 0V49.9996C38.8016 49.9996 49.9996 38.8161 49.9996 25C49.9996 11.1816 38.8172 0 25 0Z" fill="#209AA6"/>
<path d="M25 30.8594C17.7258 30.8594 10.7899 34.0393 5.72095 40.9149C15.815 53.1162 34.499 53.0121 44.4569 40.6971C41.9979 38.2511 36.4594 30.8594 25 30.8594Z" fill="#D6F3FE"/>
<path d="M44.4569 40.6971C39.7556 46.5103 32.7019 49.9996 25 49.9996V30.8594C36.4597 30.8594 41.9979 38.2519 44.4569 40.6971Z" fill="#BDECFC"/>
<path d="M25 26.4648C20.1534 26.4648 16.2109 22.522 16.2109 17.6758V14.7461C16.2109 9.8999 20.1534 5.95703 25 5.95703C29.8462 5.95703 33.7891 9.8999 33.7891 14.7461V17.6758C33.7891 22.522 29.8462 26.4648 25 26.4648Z" fill="#D6F3FE"/>
<path d="M25 5.95703V26.4648C29.8466 26.4648 33.7891 22.5223 33.7891 17.6758V14.7461C33.7891 9.89952 29.8466 5.95703 25 5.95703Z" fill="#BDECFC"/>
</g>
<defs>
<clipPath id="clip0_194_72">
<rect width="50" height="50" fill="white"/>
</clipPath>
</defs>
</svg>
