<svg width="58" height="58" viewBox="0 0 58 58" fill="none" xmlns="http://www.w3.org/2000/svg">
<g clip-path="url(#clip0_481_377)" filter="url(#filter0_dd_481_377)">
<path d="M29 52.9996C15.1832 52.9996 4 41.8027 4 28C4 14.1828 15.1813 3 29 3C42.8172 3 53.9996 14.1813 53.9996 28C53.9996 41.8161 42.8016 52.9996 29 52.9996Z" fill="#29B4C2"/>
<path d="M29 3V52.9996C42.8016 52.9996 53.9996 41.8161 53.9996 28C53.9996 14.1816 42.8172 3 29 3Z" fill="#209AA6"/>
<path d="M28.9998 33.8594C21.7256 33.8594 14.7897 37.0393 9.7207 43.9149C19.8148 56.1162 38.4988 56.0121 48.4567 43.6971C45.9977 41.2511 40.4591 33.8594 28.9998 33.8594Z" fill="#D6F3FE"/>
<path d="M48.4569 43.6971C43.7556 49.5103 36.7019 52.9996 29 52.9996V33.8594C40.4597 33.8594 45.9979 41.2519 48.4569 43.6971Z" fill="#BDECFC"/>
<path d="M29 29.4648C24.1534 29.4648 20.2109 25.522 20.2109 20.6758V17.7461C20.2109 12.8999 24.1534 8.95703 29 8.95703C33.8462 8.95703 37.7891 12.8999 37.7891 17.7461V20.6758C37.7891 25.522 33.8462 29.4648 29 29.4648Z" fill="#D6F3FE"/>
<path d="M29 8.95703V29.4648C33.8466 29.4648 37.7891 25.5223 37.7891 20.6758V17.7461C37.7891 12.8995 33.8466 8.95703 29 8.95703Z" fill="#BDECFC"/>
</g>
<defs>
<filter id="filter0_dd_481_377" x="0" y="0" width="58" height="58" filterUnits="userSpaceOnUse" color-interpolation-filters="sRGB">
<feFlood flood-opacity="0" result="BackgroundImageFix"/>
<feColorMatrix in="SourceAlpha" type="matrix" values="0 0 0 0 0 0 0 0 0 0 0 0 0 0 0 0 0 0 127 0" result="hardAlpha"/>
<feMorphology radius="1" operator="dilate" in="SourceAlpha" result="effect1_dropShadow_481_377"/>
<feOffset dy="1"/>
<feGaussianBlur stdDeviation="1.5"/>
<feColorMatrix type="matrix" values="0 0 0 0 0 0 0 0 0 0 0 0 0 0 0 0 0 0 0.15 0"/>
<feBlend mode="normal" in2="BackgroundImageFix" result="effect1_dropShadow_481_377"/>
<feColorMatrix in="SourceAlpha" type="matrix" values="0 0 0 0 0 0 0 0 0 0 0 0 0 0 0 0 0 0 127 0" result="hardAlpha"/>
<feOffset dy="1"/>
<feGaussianBlur stdDeviation="1"/>
<feColorMatrix type="matrix" values="0 0 0 0 0 0 0 0 0 0 0 0 0 0 0 0 0 0 0.3 0"/>
<feBlend mode="normal" in2="effect1_dropShadow_481_377" result="effect2_dropShadow_481_377"/>
<feBlend mode="normal" in="SourceGraphic" in2="effect2_dropShadow_481_377" result="shape"/>
</filter>
<clipPath id="clip0_481_377">
<rect width="50" height="50" fill="white" transform="translate(4 3)"/>
</clipPath>
</defs>
</svg>
