<svg width="100" height="100" viewBox="0 0 100 100" fill="none" xmlns="http://www.w3.org/2000/svg">
<g clip-path="url(#clip0_391_413)">
<path d="M97.6105 50.827C97.6105 77.6924 75.8034 99.4705 48.9029 99.4705C22.0024 99.4705 0.195312 77.6924 0.195312 50.827C0.195312 23.9624 22.0024 2.18353 48.9029 2.18353C75.8034 2.18353 97.6105 23.9624 97.6105 50.827Z" fill="#A7DDE2"/>
<path d="M20.4704 36.4143C26.8486 42.7841 26.2047 53.7552 19.0323 60.9184C16.7786 63.1691 14.1495 64.7743 11.4044 65.7211C6.78711 67.3141 1.86768 64.4142 0.988769 59.6153C0.466156 56.7612 0.195312 53.8322 0.195312 50.827C0.195312 44.5526 1.38473 38.5567 3.55072 33.0498C9.5459 30.9753 16.0934 32.0435 20.4704 36.4143Z" fill="#73D37A"/>
<path d="M44.6474 63.4667C37.4742 70.6299 26.4894 71.273 20.1113 64.9033C13.7323 58.5327 14.3762 47.5624 21.5486 40.3992C28.7218 33.2359 39.7066 32.5935 46.0855 38.9633C52.4637 45.3331 51.8198 56.3042 44.6474 63.4667Z" fill="#49CB5C"/>
<path d="M33.0977 64.3517C33.0977 74.4812 25.7849 82.6935 16.7647 82.6935C14.8009 82.6935 12.9179 82.3036 11.1739 81.5903C6.07284 75.3593 2.49008 67.8413 0.986328 59.5985C2.85095 51.7731 9.20776 46.0091 16.7647 46.0091C25.7849 46.0091 33.0977 54.2213 33.0977 64.3517Z" fill="#509C49"/>
<path d="M52.9421 15.4007H39.4061C35.2084 15.4007 31.8057 12.0026 31.8057 7.81097C38.0976 9.06754 44.5513 9.30328 50.9188 8.5083L52.4996 8.3107C54.6267 8.0452 56.5051 9.70154 56.5051 11.8416C56.5051 13.8069 54.9098 15.4007 52.9421 15.4007Z" fill="#F19B0B"/>
<path d="M54.5057 12.8014L41.4328 9.29794C37.3785 8.21075 34.9745 4.04816 36.0624 0C41.8127 2.84271 47.9849 4.74091 54.3409 5.62057L55.9195 5.83954C58.0427 6.13327 59.4267 8.21915 58.8713 10.2867C58.3609 12.1849 56.407 13.311 54.5057 12.8014Z" fill="#F5C02C"/>
<path d="M64.1877 34.6245H58.4878V21.122H75.5876V23.2254C75.5876 29.5212 70.4835 34.6245 64.1877 34.6245Z" fill="#3F4A4A"/>
<path d="M79.3871 23.2399H62.2881V11.8553H68.0025C74.2899 11.8553 79.3871 16.9525 79.3871 23.2399Z" fill="#596C76"/>
<path d="M73.6868 82.0602L33.7881 83.9577L36.717 25.4539C37.2053 15.7104 45.2574 8.06046 55.026 8.06046C63.4626 8.06046 70.5259 14.4447 71.3659 22.8287C71.6421 25.5875 71.2133 28.3714 70.1193 30.9204C67.4894 37.0491 66.7242 43.8148 67.9182 50.3746L73.6868 82.0602Z" fill="#FC6930"/>
<path d="M55.6625 39.7087H59.639C60.7368 39.7087 61.6264 40.5975 61.6264 41.6939C61.6264 42.791 60.7368 43.6798 59.639 43.6798H55.6625C54.5647 43.6798 53.6743 42.791 53.6743 41.6939C53.6743 40.5975 54.5647 39.7087 55.6625 39.7087ZM53.6064 45.665H43.3052L43.5089 41.5955C43.5623 40.5388 44.4351 39.7087 45.4948 39.7087H47.6425C48.7015 39.7087 49.6262 38.9107 49.6941 37.8555C49.7696 36.6989 48.8525 35.7384 47.7104 35.7384H45.8931C44.7556 35.7384 43.8507 34.7877 43.9072 33.6533L44.3176 25.4539C44.7388 17.0486 50.7889 10.202 58.7143 8.48007C57.5264 8.20694 56.2927 8.06046 55.0262 8.06046C45.2576 8.06046 37.2055 15.7104 36.718 25.4539L33.7891 83.9577L41.407 83.5953L43.0122 51.5221C43.0656 50.4654 43.9384 49.6361 44.9982 49.6361H53.6743C54.8164 49.6361 55.7335 48.6748 55.658 47.5182C55.5901 46.463 54.6654 45.665 53.6064 45.665ZM59.639 51.6212H57.6508C56.5529 51.6212 55.6625 52.5101 55.6625 53.6072C55.6625 54.7035 56.5529 55.5923 57.6508 55.5923H59.639C60.7368 55.5923 61.6264 54.7035 61.6264 53.6072C61.6264 52.5101 60.7368 51.6212 59.639 51.6212Z" fill="#EE4424"/>
<path d="M58.4878 20.3857C58.4878 22.4815 56.7865 24.1806 54.6884 24.1806C52.5895 24.1806 50.8882 22.4815 50.8882 20.3857C50.8882 18.2899 52.5895 16.5909 54.6884 16.5909C56.7865 16.5909 58.4878 18.2899 58.4878 20.3857Z" fill="#3F4A4A"/>
<path d="M58.4877 19.2245C58.4877 20.2721 57.637 21.122 56.588 21.122C55.5382 21.122 54.6875 20.2721 54.6875 19.2245C54.6875 18.1763 55.5382 17.3271 56.588 17.3271C57.637 17.3271 58.4877 18.1763 58.4877 19.2245Z" fill="#F3D373"/>
<path d="M79.3571 86.985C79.2183 89.1586 78.0495 91.1255 76.1795 92.2462C68.5379 96.8269 61.8256 99.4705 49.8939 99.4705C34.3239 99.4705 24.1844 95.8305 14.3066 85.0647C38.5368 83.0841 60.0006 71.6736 74.7963 54.628C75.4829 53.8368 76.4824 53.4058 77.5307 53.408H77.5467C81.2988 53.408 84.3399 50.3715 84.3399 46.6248C84.3399 46.5301 84.3376 46.4355 84.3338 46.3417C84.2155 43.47 84.7702 40.612 86.1031 38.0646C88.0913 34.2667 89.7987 30.307 91.198 26.2108C91.4696 25.4143 92.5468 25.2853 92.9863 26.0033C97.438 33.2703 99.9962 41.758 99.9962 50.827V50.885C99.9931 53.7476 98.8045 56.4964 96.7132 58.4549C94.5892 60.4439 93.2617 63.2706 93.2617 66.4085C93.2617 67.2897 93.367 68.1465 93.5646 68.9674C94.2322 71.7316 93.6844 74.6422 92.1181 77.018C91.9365 77.2934 91.7526 77.5665 91.5657 77.8381C90.0085 80.098 87.4817 81.4751 84.7389 81.636C84.7153 81.6376 84.6908 81.6391 84.6664 81.6414C81.8558 81.8413 79.5738 84.111 79.3625 86.9171C79.3602 86.94 79.3587 86.9621 79.3571 86.985Z" fill="#49CB5C"/>
<path d="M92.7878 26.0033C92.8382 26.0864 92.8878 26.1703 92.9381 26.2535C93.0427 27.6817 93.0976 29.1245 93.0976 30.5794C93.0976 62.8342 66.9158 88.9816 34.6183 88.9816C27.5229 88.9816 20.7221 87.7182 14.4294 85.4065C14.3226 85.292 14.2142 85.1807 14.1074 85.0647C38.3376 83.0841 59.8014 71.6736 74.5971 54.628C75.2837 53.8368 76.2832 53.4058 77.3314 53.408H77.3482C81.0996 53.408 84.1407 50.3715 84.1407 46.6248C84.1407 46.5301 84.1384 46.4355 84.1346 46.3417C84.0163 43.47 84.571 40.612 85.9038 38.0646C87.8921 34.2667 89.5995 30.307 90.9987 26.2108C91.2711 25.4143 92.3476 25.2853 92.7878 26.0033Z" fill="#509C49"/>
<path d="M21.0038 51.062C21.0038 52.9427 18.66 54.467 15.7685 54.467C12.8777 54.467 10.5332 52.9427 10.5332 51.062C10.5332 49.1814 12.877 47.6562 15.7685 47.6562C18.66 47.6562 21.0038 49.1814 21.0038 51.062Z" fill="#387232"/>
<path d="M55.6626 68.4975C55.6626 82.2044 47.9088 100.011 33.0979 100C15.5236 99.987 11.8439 87.9379 10.5332 76.0216C26.1559 70.3636 35.7972 43.8324 35.7972 43.8324C36.5189 43.7088 37.0125 43.6798 37.7587 43.6798C47.6464 43.6798 55.6626 54.7913 55.6626 68.4975Z" fill="#F4AA39"/>
<path d="M23.6038 91.6443C12.3222 91.6443 8.03146 81.0066 7.48291 76.0216C23.1056 70.3636 35.7971 43.8316 35.7971 43.8316C36.5189 43.7088 37.0125 43.6798 37.7586 43.6798C39.2624 43.6798 40.7234 43.9377 42.1188 44.4221C44.6495 48.703 46.1685 54.1763 46.1685 60.1418C46.1685 73.8487 38.4148 91.6443 23.6038 91.6443Z" fill="#F1CA50"/>
<path d="M15.4723 83.5236C13.1759 83.5236 11.1693 83.0826 9.42527 82.3387C7.965 80.0796 7.13721 77.7298 7.27454 76.0925C22.8973 70.4346 35.797 43.8324 35.797 43.8324C36.2487 43.7553 36.6111 43.7149 37.0017 43.6951C37.6708 46.2982 38.037 49.0997 38.037 52.021C38.037 65.728 30.2833 83.5236 15.4723 83.5236Z" fill="#F5DC90"/>
</g>
<defs>
<clipPath id="clip0_391_413">
<rect width="100" height="100" fill="white"/>
</clipPath>
</defs>
</svg>
