<svg width="100" height="100" viewBox="0 0 100 100" fill="none" xmlns="http://www.w3.org/2000/svg">
<g clip-path="url(#clip0_391_369)">
<path d="M49.9999 4.2959C23.572 4.2959 2.14795 25.7199 2.14795 52.148C2.14795 55.991 2.60381 59.7271 3.45947 63.308L9.11084 77.0172C10.8208 79.8227 12.813 82.4363 15.0452 84.8232L41.6317 99.2695C44.3489 99.7488 47.145 100 49.9999 100C54.7933 100 59.4204 99.292 63.7866 97.9805L72.4046 94.4379C87.5413 86.4018 97.8519 70.4801 97.8519 52.1479C97.8519 25.7199 76.4278 4.2959 49.9999 4.2959Z" fill="#88CE65"/>
<path d="M36.6218 8.70351C35.4276 9.79531 35.3448 11.6484 36.4366 12.8424C42.7056 19.6982 41.1144 29.9795 33.0509 34.6129C25.1571 39.149 17.8253 44.5508 11.2599 50.6672C7.35615 54.3012 4.78389 58.6818 3.45947 63.3078C4.63174 68.2141 6.55713 72.8275 9.11084 77.0172C6.99893 69.5955 8.7833 61.2117 14.8442 55.3436C20.1204 50.2396 27.8407 44.3648 35.9702 39.6934C47.2954 33.1857 49.5538 18.5045 40.7608 8.88867C39.669 7.69433 37.8159 7.61133 36.6218 8.70351Z" fill="#676A77"/>
<path d="M91.8443 24.5434C87.9713 22.1766 86.3258 17.9391 86.3258 17.9391C84.6072 11.8209 78.1797 10.3676 73.9195 10.0965C73.5185 10.0709 73.1599 9.90508 72.8863 9.64981C70.6797 11.0492 67.8264 9.23106 68.1871 6.64473C68.7738 2.4416 71.0848 0.396875 71.1084 0.376367L71.193 0.303711L71.2426 0.0302734C71.1289 0.0523438 71.015 0.0851563 70.9019 0.137109C64.9492 2.87344 63.4994 7.71035 63.4094 11.5377C63.3885 12.4279 62.9697 13.2629 62.2756 13.8207C60.4406 15.2955 59.0035 17.2609 59.0035 19.8006C59.0035 31.215 53.7205 37.3711 53.4431 38.0859C46.876 48.474 37.4777 50.9297 35.9416 51.8369C22.2623 57.3352 14.6486 70.4764 15.001 83.7889C17.3394 74.3691 26.7924 68.2188 37.3582 71.6084C46.2926 74.4742 51.5689 86.2223 44.631 95.392L44.9043 95.5443C45.0767 95.3266 45.2299 95.1242 45.3566 94.9432C45.4599 94.7955 45.5609 94.6473 45.6594 94.4984C45.6633 94.4926 45.6672 94.4869 45.6711 94.4809C46.439 93.3168 47.431 92.3152 48.6178 91.5832C55.2562 87.4881 58.6301 83.0979 60.2816 80.1824C60.6746 79.4889 61.7297 79.7629 61.7492 80.5598C61.9082 87.0896 62.8435 93.2814 63.781 97.9832C66.7922 97.0789 69.6783 95.8865 72.4074 94.4371C70.6908 86.1295 70.0076 75.1668 74.9474 66.2975C82.1765 53.318 78.4525 41.1713 76.4611 36.4498C75.584 34.3703 77.0133 32.0004 79.268 31.8994C81.0912 31.8178 82.9824 32.4563 83.7537 32.7533C84.0222 32.8568 84.3088 32.9021 84.5961 32.8875C88.9058 32.6666 91.3844 29.5119 92.5824 27.3594C93.1314 26.3721 92.808 25.1322 91.8443 24.5434Z" fill="#676A77"/>
<path d="M79.0368 46.65C78.5878 42.1582 77.3515 38.5609 76.4608 36.4494C75.9868 35.3256 76.1874 34.1178 76.8267 33.2283C59.0353 34.4941 59.0034 19.8002 59.0034 19.8002C59.0034 27.8963 56.347 33.3436 54.7026 36.0836L79.0368 46.65Z" fill="#4F5261"/>
<path d="M61.2545 40.5824C65.0963 43.8904 71.44 47.3354 80.5947 46.2387C80.2592 43.7826 79.693 42.0037 79.3742 41.1395C79.2457 40.791 78.9043 40.5676 78.5338 40.59C66.4471 41.3283 60.368 34.7236 57.8865 30.9035C57.2559 29.9326 55.7861 30.0936 55.3668 31.1729L54.8369 32.5371C55.6072 34.0057 57.6676 37.4936 61.2545 40.5824Z" fill="#FFDD40"/>
<path d="M68.9211 44.074C68.2543 42.1609 69.4297 41.0033 70.282 40.4461C70.4684 40.3242 70.5928 40.1447 70.6521 39.9469C63.6687 38.2383 59.7559 33.7814 57.8865 30.9035C57.2559 29.9326 55.7861 30.0936 55.3668 31.1729L54.8369 32.5371C55.6072 34.0059 57.6676 37.4936 61.2545 40.5824C63.1367 42.2031 65.6211 43.8553 68.7408 44.9914C68.9605 44.7514 69.0342 44.3986 68.9211 44.074Z" fill="#FFC839"/>
<path d="M63.8329 48.1191C59.8104 45.1709 56.3309 41.115 53.471 36.0527L52.8866 37.5568C52.5004 38.551 52.4975 39.6574 52.8969 40.6461C59.0014 55.7549 74.8016 59.6586 78.4008 60.3633C78.8251 60.4465 79.2415 60.1936 79.3715 59.7814C80.0223 57.7217 80.4217 55.7625 80.642 53.9369C74.921 53.7137 68.9126 51.8422 63.8329 48.1191Z" fill="#FFDD40"/>
<path d="M53.4709 36.0527L52.8866 37.5568C52.5004 38.551 52.4975 39.6574 52.8971 40.6461C55.794 47.8162 60.8744 52.4615 65.7985 55.4402C64.6998 52.74 65.8336 51.5166 66.6592 51.0131C66.9512 50.835 67.1028 50.5045 67.0707 50.1758C65.9598 49.5656 64.876 48.8836 63.8328 48.1191C59.8104 45.1709 56.3311 41.115 53.4709 36.0527Z" fill="#FFC839"/>
<path d="M54.9889 32.1455L53.3242 36.4309C61.5457 50.8139 72.9971 53.9463 80.6057 54.2197C81.0264 50.9836 80.8809 48.1574 80.5514 45.9277C63.8082 47.9551 56.3051 34.7664 54.9889 32.1455Z" fill="#FFC839"/>
<path d="M67.0197 49.9455C65.9006 47.0406 67.4697 45.7102 68.5031 45.1756C68.6932 45.0772 68.8289 44.9172 68.9047 44.7316C60.1939 41.5754 55.948 34.0557 54.9889 32.1459L53.3242 36.4313C57.39 43.5441 62.2457 47.9043 67.0357 50.5291C67.0945 50.3428 67.0936 50.1373 67.0197 49.9455Z" fill="#FFB332"/>
<path d="M81.3194 46.166C81.137 45.6096 80.6268 45.2121 80.0413 45.2109C80.038 45.2109 80.0346 45.2109 80.0313 45.2109C77.238 45.2109 75.0065 47.6168 75.2964 50.4693C75.5204 52.675 77.2897 54.4568 79.4931 54.7018C79.6675 54.7211 79.8401 54.7309 80.0108 54.7316C80.6079 54.7342 81.1341 54.3424 81.32 53.7752C81.7124 52.5779 81.9257 51.2998 81.9257 49.9713C81.9255 48.6424 81.7122 47.3637 81.3194 46.166Z" fill="#41ACFC"/>
<path d="M81.6749 23.5248C82.9365 22.2632 82.9365 20.2179 81.6749 18.9564C80.4134 17.6948 78.368 17.6948 77.1065 18.9564C75.8449 20.2179 75.8449 22.2632 77.1065 23.5248C78.368 24.7863 80.4134 24.7863 81.6749 23.5248Z" fill="#414554"/>
<path d="M91.5345 28.1514C92.7306 28.1514 93.7003 27.1817 93.7003 25.9856C93.7003 24.7894 92.7306 23.8197 91.5345 23.8197C90.3383 23.8197 89.3687 24.7894 89.3687 25.9856C89.3687 27.1817 90.3383 28.1514 91.5345 28.1514Z" fill="#414554"/>
<path d="M62.3531 64.0889C61.5725 63.877 60.7674 64.3363 60.5547 65.117C59.4885 69.0281 58.8877 73.476 58.7689 78.3367C58.7688 78.3486 58.7686 78.3606 58.7686 78.3727V82.0977C58.7686 82.2209 58.7854 82.34 58.8141 82.4545L61.6982 80.2922V78.3906C61.8121 73.7729 62.3785 69.5664 63.3813 65.8877C63.5939 65.107 63.1336 64.3018 62.3531 64.0889Z" fill="#414554"/>
<path d="M67.8737 6.60097C67.4741 9.46426 70.6394 11.4686 73.072 9.90644L73.1534 9.8541C72.6726 9.55957 72.3542 9.03027 72.3499 8.4289C72.3294 5.65683 72.6378 3.38437 72.9609 1.77929C73.1989 0.596677 71.998 -0.366994 70.9019 0.136717C70.9019 0.136717 68.4861 2.21406 67.8737 6.60097Z" fill="#414554"/>
<path d="M97.852 52.148C97.852 46.7846 96.9696 41.6273 95.3421 36.8135C91.2069 38.0566 85.9265 41.3328 86.6858 49.9715C87.794 62.5791 72.3923 74.7945 80.0067 89.4191C90.8886 80.6482 97.852 67.2127 97.852 52.148Z" fill="#B4D667"/>
<path d="M2.14795 52.148C2.14795 52.9023 2.17061 53.6514 2.20537 54.3971C9.45186 37.2916 32.8146 28.182 31.5585 20.3973C30.8729 16.149 27.4237 13.4736 23.8661 12.06C10.7903 20.6014 2.14795 35.3643 2.14795 52.148Z" fill="#B4D667"/>
<path d="M79.9897 50.5498C80.7583 50.5498 81.3813 49.9268 81.3813 49.1582C81.3813 48.3896 80.7583 47.7666 79.9897 47.7666C79.2212 47.7666 78.5981 48.3896 78.5981 49.1582C78.5981 49.9268 79.2212 50.5498 79.9897 50.5498Z" fill="#73C3F9"/>
<path d="M60.5549 65.117C60.5549 65.117 55.9496 74.5207 42.21 74.302C47.9139 79.0699 50.1818 88.0557 44.6312 95.3918L44.9045 95.5442C45.077 95.3264 45.2301 95.124 45.3568 94.943C45.4602 94.7953 45.5611 94.6471 45.6596 94.4983C45.6635 94.4924 45.6674 94.4867 45.6713 94.4807C46.4393 93.3166 47.4312 92.3151 48.618 91.583C55.2564 87.4879 58.6303 83.0977 60.2818 80.1822C60.4445 79.8949 60.7211 79.7758 60.9904 79.7891L60.5549 65.117Z" fill="#414554"/>
<path d="M44.1938 96.4035C52.3938 86.792 46.6149 74.2701 37.4475 71.3291C26.8555 67.9312 17.7184 73.9258 14.9901 82.75C14.987 83.4404 15.0053 84.1318 15.045 84.8232C21.9704 92.2287 31.2194 97.433 41.6315 99.2695C42.5204 98.2955 43.4444 97.2812 44.1938 96.4035Z" fill="#4F5261"/>
<path d="M30.4149 43.1078C25.7608 42.2217 27.521 38.0392 27.5474 37.9767C21.7327 41.7461 16.2724 45.9974 11.2599 50.6672C7.35615 54.3012 4.78389 58.6818 3.45947 63.3078C4.63174 68.214 6.55713 72.8275 9.11084 77.0172C6.99893 69.5955 8.7833 61.2117 14.8442 55.3435C18.8987 51.4215 24.3972 47.0445 30.4149 43.1078Z" fill="#4F5261"/>
</g>
<defs>
<clipPath id="clip0_391_369">
<rect width="100" height="100" fill="white"/>
</clipPath>
</defs>
</svg>
