<svg width="100" height="100" viewBox="0 0 100 100" fill="none" xmlns="http://www.w3.org/2000/svg">
<g clip-path="url(#clip0_391_335)">
<path d="M50.0002 4.2959C30.278 4.2959 13.3446 16.2285 6.02014 33.267C-1.30427 50.3055 -0.585132 56.6895 8.59456 72.1191C17.7742 87.5488 27.8328 94.409 33.7899 96.3988C39.7469 98.3887 47.1344 99.9123 47.1344 99.9123C48.0828 99.9684 49.0377 100 50.0002 100C51.5258 100 53.0336 99.9256 54.5227 99.7859L72.7791 94.2406C87.7121 86.1422 97.8522 70.3295 97.8522 52.148C97.8524 25.7199 76.4282 4.2959 50.0002 4.2959Z" fill="#FFC839"/>
<path d="M6.21484 63.9996C2.61406 57.2502 14.4393 47.6816 12.6311 41.2924C11.5662 37.5299 8.54668 34.8902 6.02031 33.267C3.52988 39.0601 2.14844 45.4424 2.14844 52.148C2.14844 57.4701 3.01875 62.5883 4.62246 67.3703C5.0834 66.1863 5.61816 65.0642 6.21484 63.9996Z" fill="#8E5323"/>
<path d="M2.56758 45.8037C2.29219 47.8795 2.14844 49.9967 2.14844 52.1479C2.14844 57.4699 3.01875 62.5881 4.62246 67.3701C5.0834 66.1863 5.61816 65.0643 6.21484 63.9994C3.8791 59.6213 8.0334 54.0572 10.7479 48.9441C5.80312 51.34 3.4418 47.7561 2.56758 45.8037Z" fill="#794720"/>
<path d="M70.8151 93.9443C68.6423 94.152 66.1764 93.5902 65.0046 90.5141C62.7135 84.5002 63.2364 69.5926 62.1667 61.2627C61.0743 62.7105 59.8315 64.1496 58.476 65.5645C58.3583 74.0111 56.3001 85.435 58.235 90.5141C59.4069 93.5902 61.8727 94.3471 64.0456 94.1396C65.8643 93.966 67.5135 94.8164 68.237 96.3988C69.7936 95.7566 71.3104 95.0371 72.7796 94.2404C72.177 93.99 71.5085 93.8781 70.8151 93.9443Z" fill="#8E5323"/>
<path d="M57.5322 80.1988C59.3607 76.9939 61.6643 76.8691 63.1531 77.2396C62.8457 71.5777 62.7168 65.5494 62.1664 61.2629C61.074 62.7107 59.8312 64.1498 58.4758 65.5646C58.4131 70.0676 57.799 75.416 57.5322 80.1988Z" fill="#794720"/>
<path d="M87.1543 25.9732C87.699 25.7269 88.2996 25.6377 88.8924 25.7146C89.3689 25.7765 89.9314 25.8369 90.5545 25.8101C85.074 21.906 90.8451 17.3318 87.9225 13.7562C86.6758 12.231 86.175 10.7724 86.019 9.57909C85.5447 8.60682 84.9816 7.35819 83.9186 5.65077C82.0209 2.60291 77.1092 1.0451 73.3914 0.279282C70.2834 -0.360952 67.0502 0.107993 64.2455 1.59217C58.7875 4.48045 49.9412 10.8449 46.5992 22.8488C45.9199 25.2885 44.2428 27.3301 41.9834 28.4738C38.2031 30.3873 32.7039 33.9931 31.0867 39.3422C28.957 46.3857 10.3453 51.2338 4.39453 66.6699C7.52891 76.5219 13.7666 84.9887 21.9598 90.9238C23.3555 89.176 25.3422 87.5154 28.1568 86.5103C32.1922 85.0691 40.3391 80.6258 48.1574 74.8328C49.0762 79.7023 49.1125 85.0285 49.0432 87.9017C49.015 89.0691 49.4342 90.2088 50.2385 91.0553C51.8377 92.7387 52.5889 95.2885 52.9418 97.3123C53.1219 98.3451 53.7035 99.2213 54.5098 99.7896C59.4512 99.3277 64.1736 98.1135 68.5629 96.264C67.8094 94.7574 66.2027 93.7754 64.4359 93.9441C62.2631 94.1517 59.7973 93.59 58.6254 90.5138C56.6904 85.4347 58.7486 74.0109 58.8664 65.5642C62.3682 61.9088 65.1311 58.0926 66.4379 54.381C71.3207 40.5139 67.1703 34.0197 71.2557 28.3394C72.8795 26.0814 77.7986 25.1656 81.3631 26.3375C83.8785 27.1646 86.0775 26.4599 87.1543 25.9732Z" fill="#A26330"/>
<path d="M58.8663 65.5646C58.9982 65.4269 59.1282 65.289 59.2579 65.151C59.2685 63.5256 59.2042 62.0148 59.0159 60.6965C58.7595 58.9017 58.6154 57.4035 58.5464 56.1582C58.5185 55.6523 58.5267 55.1472 58.5693 54.6469C56.1825 56.1258 52.3238 59.1654 53.0279 63.0402C55.1255 74.5834 49.5927 94.3918 59.5997 92.233C59.2212 91.7746 58.89 91.2092 58.6253 90.5142C56.6904 85.4351 58.7486 74.0113 58.8663 65.5646Z" fill="#B5733C"/>
<path d="M41.551 65.4263C24.4146 61.2711 29.9668 42.6449 30.951 39.7279C28.2764 46.5672 10.2361 51.5172 4.39453 66.6699C7.52891 76.5219 13.7666 84.9886 21.9598 90.9238C23.3555 89.1759 25.3422 87.5154 28.1568 86.5103C31.0518 85.4763 36.0631 82.897 41.551 79.383V65.4263Z" fill="#8E5323"/>
<path d="M82.2983 22.7326C82.0553 23.214 82.2487 23.8013 82.7303 24.0443L86.8274 26.1115C86.9444 26.0646 87.0557 26.0179 87.1543 25.9732C87.6991 25.7269 88.2996 25.6377 88.8924 25.7146C89.369 25.7765 89.9315 25.8369 90.5545 25.8101C90.5459 25.8041 90.5381 25.7978 90.5297 25.7918L83.61 22.3004C83.1291 22.058 82.5411 22.2509 82.2983 22.7326Z" fill="#794720"/>
<path d="M91.2428 13.5611C87.0522 12.214 86.8743 11.3236 85.5704 8.65311C85.5647 9.9699 85.9395 11.8084 87.5319 13.7564C90.4561 17.3338 84.6776 21.9109 90.1721 25.8162C91.8268 25.8326 93.9889 25.317 96.1256 22.4478C99.5436 17.858 96.7116 15.3189 91.2428 13.5611Z" fill="#B5733C"/>
<path d="M91.2428 13.5611C87.0522 12.214 86.8743 11.3236 85.5704 8.65311C85.5647 9.9699 85.9395 11.8084 87.5319 13.7564C88.211 14.5873 88.4204 15.4722 88.411 16.39C88.4016 17.3078 90.1874 20.192 94.4432 18.3236C95.6284 17.8033 96.551 17.5183 97.2663 17.3771C96.4526 15.7293 94.2471 14.5267 91.2428 13.5611Z" fill="#E29C6D"/>
<path d="M96.8242 16.3275C96.3377 15.7721 95.4805 15.723 94.9551 16.2418C94.4615 16.7291 94.1469 17.4078 94.4428 18.3234C94.7885 19.3934 95.6221 20.1236 96.6149 20.5949C97.044 20.7986 97.5524 20.5699 97.6793 20.1121C98.0922 18.6254 97.7496 17.384 96.8242 16.3275Z" fill="#633A1C"/>
<path d="M80.3051 10.6215C80.3051 10.4373 80.3377 10.2611 80.3946 10.0963C80.1329 10.3648 79.7176 10.7076 79.1303 10.9541C78.9756 11.0189 78.9948 11.2443 79.1592 11.2777C79.6403 11.3758 80.2959 11.5494 80.8682 11.8416C80.5241 11.5469 80.3051 11.1101 80.3051 10.6215Z" fill="#A0612D"/>
<path d="M83.0102 11.765C83.6376 11.1377 83.6376 10.1206 83.0102 9.49323C82.3829 8.86589 81.3658 8.86589 80.7384 9.49322C80.1111 10.1206 80.1111 11.1377 80.7384 11.765C81.3658 12.3924 82.3829 12.3924 83.0102 11.765Z" fill="#45304C"/>
<path d="M83.1734 9.66542C83.0684 9.61015 82.9506 9.57578 82.8234 9.57578C82.4059 9.57578 82.0674 9.91425 82.0674 10.3318C82.0674 10.7494 82.4059 11.0879 82.8234 11.0879C83.1123 11.0879 83.3604 10.924 83.4877 10.6857C83.4885 10.6643 83.491 10.6432 83.491 10.6215C83.4908 10.2629 83.3719 9.93281 83.1734 9.66542Z" fill="#876D93"/>
<path d="M48.1584 74.832C47.7002 72.4035 47.0225 70.0885 46.0279 68.2486C45.6406 67.5322 45.2728 66.8029 44.9301 66.0647C44.3213 64.7535 42.6057 64.4377 41.5512 65.4264C39.3221 67.5164 35.3375 70.3467 29.5195 71.1783L31.9096 84.8803C36.268 82.7496 42.3047 79.1695 48.1576 74.8328L48.1584 74.832Z" fill="#CC8652"/>
<path d="M42.8932 92.8096C39.8133 92.8096 34.1667 95.1348 29.6122 93.9566C28.5182 93.6736 28.0018 92.4197 28.5799 91.4488L28.5801 91.4484C28.7274 91.2012 28.9069 90.9758 29.1059 90.768C35.3911 84.2014 35.3089 72.0518 28.8018 66.2811C23.6553 61.717 17.0598 63.0064 13.9389 64.0041C13.4075 64.174 13.43 64.9307 13.9686 65.0764C17.2477 65.9629 23.8116 68.6119 23.8116 75.6127C23.8116 81.857 19.7243 84.6887 16.1034 85.9225C24.1382 93.9859 35.0313 99.1969 47.1342 99.9119C47.3356 98.1315 45.8505 92.8096 42.8932 92.8096Z" fill="#8E5323"/>
<path d="M68.8791 28.2096C61.9504 28.7676 59.8506 35.3037 61.7502 40.8398C63.0979 44.7672 61.8625 47.3672 60.5689 48.8678C58.8373 50.8769 58.0094 53.5099 58.1557 56.1582C58.2246 57.4037 58.3688 58.9017 58.6252 60.6965C58.8295 62.1264 58.8887 63.7806 58.8639 65.564L58.8662 65.5646C62.368 61.9092 65.1309 58.093 66.4377 54.3814C71.3025 40.5654 67.2018 34.0683 71.2115 28.4027C70.4742 28.2197 69.6963 28.1437 68.8791 28.2096Z" fill="#CC8652"/>
<path d="M71.2118 28.4027C70.4745 28.2197 69.6965 28.1437 68.8794 28.2094C61.9506 28.7674 59.8508 35.3035 61.7504 40.8396C62.8985 44.1851 62.1717 46.567 61.1319 48.1269C61.1319 48.1273 62.1061 53.0933 67.5178 50.9246C70.6467 39.4377 67.5522 33.5732 71.2118 28.4027Z" fill="#E29C6D"/>
<path d="M66.1448 6.80116C63.9081 7.54666 61.9841 9.01971 60.6921 10.9918C57.4917 15.8767 52.9358 25.5541 59.9925 33.7435C65.286 39.8867 70.8221 37.818 74.4266 35.15C76.7854 33.4041 77.3786 30.1305 75.8079 27.6517C71.2915 20.5242 69.9075 13.076 69.4854 8.96287C69.3186 7.33787 67.6942 6.28455 66.1448 6.80116Z" fill="#B87443"/>
<path d="M66.1448 6.80116C63.9081 7.54666 61.9841 9.01971 60.6921 10.9918C57.4917 15.8767 52.9358 25.5541 59.9925 33.7435C65.286 39.8867 70.8221 37.818 74.4266 35.15C76.7854 33.4041 77.3786 30.1305 75.8079 27.6517C71.2915 20.5242 69.9075 13.076 69.4854 8.96287C69.3186 7.33787 67.6942 6.28455 66.1448 6.80116Z" fill="#CC8652"/>
<path d="M9.26807 27.0277C11.7841 30.4424 16.955 35.4224 24.7403 33.267C34.1562 30.6599 48.9349 13.6435 44.945 4.56189C29.8587 6.14626 16.8618 14.7398 9.26807 27.0277Z" fill="#FFDD40"/>
<path d="M94.316 34.0701C87.7484 34.8029 76.4529 37.4381 74.8056 46.8756C72.7099 58.8814 63.3488 85.4471 79.5078 89.8207C90.6761 81.0607 97.8525 67.443 97.8525 52.1482C97.8525 45.7506 96.5939 39.648 94.316 34.0701Z" fill="#FFDD40"/>
<path d="M71.1409 37.024C63.3905 31.4805 72.5227 22.8566 66.1479 20.6697C61.4411 19.0551 61.4942 13.168 62.0967 9.2789C61.5721 9.79531 61.1005 10.3684 60.6921 10.9916C57.4917 15.8766 52.9358 25.5539 59.9925 33.7434C63.862 38.2342 67.8612 38.3361 71.1409 37.024Z" fill="#B5733C"/>
<path d="M42.8932 92.8096C41.783 92.8096 40.3383 93.1119 38.7324 93.4432C37.8094 94.5238 36.6508 96.4928 38.1004 98.5035C41.0141 99.249 44.034 99.7289 47.134 99.9121C47.3356 98.1314 45.8504 92.8096 42.8932 92.8096Z" fill="#A26330"/>
<path d="M96.9488 17.7125C96.9488 18.0744 96.6555 18.3676 96.2937 18.3676C95.932 18.3676 95.6387 18.0742 95.6387 17.7125C95.6387 17.3508 95.932 17.0574 96.2937 17.0574C96.6555 17.0572 96.9488 17.3506 96.9488 17.7125Z" fill="#794720"/>
<path d="M84.4362 62.1544C84.5899 61.2063 83.9459 60.3132 82.9978 60.1595C82.0497 60.0058 81.1566 60.6498 81.0029 61.5978C80.8492 62.5459 81.4932 63.4391 82.4413 63.5928C83.3893 63.7465 84.2825 63.1025 84.4362 62.1544Z" fill="#FCF6DE"/>
<path d="M84.9751 73.6394C85.3003 71.9498 84.1942 70.3164 82.5046 69.9912C80.8149 69.666 79.1816 70.7721 78.8564 72.4618C78.5312 74.1514 79.6373 75.7847 81.3269 76.1099C83.0166 76.4351 84.6499 75.329 84.9751 73.6394Z" fill="#FFF2BD"/>
<path d="M33.227 20.3692C33.8791 18.7777 33.1175 16.9588 31.526 16.3067C29.9344 15.6546 28.1156 16.4162 27.4635 18.0078C26.8114 19.5993 27.5729 21.4182 29.1645 22.0703C30.756 22.7224 32.5749 21.9608 33.227 20.3692Z" fill="#FFF2BD"/>
<path d="M21.5675 40.0535C21.5675 41.4937 20.3999 42.6613 18.9597 42.6613C17.5194 42.6613 16.3521 41.4937 16.3521 40.0535C16.3521 38.6133 17.5196 37.4459 18.9597 37.4459C20.4001 37.4459 21.5675 38.6133 21.5675 40.0535Z" fill="#FFDD40"/>
</g>
<defs>
<clipPath id="clip0_391_335">
<rect width="100" height="100" fill="white"/>
</clipPath>
</defs>
</svg>
