<svg width="100" height="100" viewBox="0 0 100 100" fill="none" xmlns="http://www.w3.org/2000/svg">
<path d="M83.3333 54.1666C83.3333 75 68.75 85.4166 51.4166 91.4583C50.509 91.7659 49.523 91.7511 48.625 91.4166C31.25 85.4166 16.6666 75 16.6666 54.1666V25C16.6666 23.8949 17.1056 22.8351 17.887 22.0537C18.6684 21.2723 19.7282 20.8333 20.8333 20.8333C29.1666 20.8333 39.5833 15.8333 46.8333 9.49996C47.716 8.74579 48.8389 8.33142 50 8.33142C51.161 8.33142 52.2839 8.74579 53.1666 9.49996C60.4583 15.875 70.8333 20.8333 79.1666 20.8333C80.2717 20.8333 81.3315 21.2723 82.1129 22.0537C82.8943 22.8351 83.3333 23.8949 83.3333 25V54.1666Z" stroke="#209AA6" stroke-width="7.33" stroke-linecap="round" stroke-linejoin="round"/>
<path d="M37.5 50L45.8333 58.3333L62.5 41.6666" stroke="#209AA6" stroke-width="7.33" stroke-linecap="round" stroke-linejoin="round"/>
</svg>
