<svg width="250" height="250" viewBox="0 0 250 250" fill="none" xmlns="http://www.w3.org/2000/svg">
<path d="M196.345 45.8025L131.01 45.6884C128.934 45.6848 127.247 47.3653 127.244 49.4419L127.076 145.372C127.073 147.448 128.753 149.135 130.83 149.138L196.165 149.252C198.241 149.256 199.928 147.575 199.931 145.499L200.099 49.569C200.102 47.4924 198.422 45.8061 196.345 45.8025Z" fill="white" stroke="#1A2B47" stroke-width="1.27" stroke-miterlimit="10"/>
<path d="M128.09 209.32C176.785 209.32 216.26 206.658 216.26 203.375C216.26 200.092 176.785 197.43 128.09 197.43C79.3952 197.43 39.9202 200.092 39.9202 203.375C39.9202 206.658 79.3952 209.32 128.09 209.32Z" fill="#D1DDF2"/>
<path d="M190.17 58.025H135.83C134.778 58.025 133.925 58.8779 133.925 59.93V69.885C133.925 70.9371 134.778 71.79 135.83 71.79H190.17C191.222 71.79 192.075 70.9371 192.075 69.885V59.93C192.075 58.8779 191.222 58.025 190.17 58.025Z" fill="#209AA6"/>
<path d="M145.791 68.666C145.791 69.114 145.683 69.534 145.467 69.926C145.259 70.318 144.927 70.634 144.471 70.874C144.023 71.114 143.455 71.234 142.767 71.234H141.363V74.45H139.683V66.074H142.767C143.415 66.074 143.967 66.186 144.423 66.41C144.879 66.634 145.219 66.942 145.443 67.334C145.675 67.726 145.791 68.17 145.791 68.666ZM142.695 69.878C143.159 69.878 143.503 69.774 143.727 69.566C143.951 69.35 144.063 69.05 144.063 68.666C144.063 67.85 143.607 67.442 142.695 67.442H141.363V69.878H142.695ZM148.664 67.43V69.53H151.484V70.862H148.664V73.082H151.844V74.45H146.984V66.062H151.844V67.43H148.664ZM159.071 66.074V67.43H156.839V74.45H155.159V67.43H152.927V66.074H159.071ZM141.363 84.074V92.45H139.683V84.074H141.363ZM150.187 92.45H148.507L144.703 86.702V92.45H143.023V84.062H144.703L148.507 89.822V84.062H150.187V92.45ZM154.739 92.534C154.155 92.534 153.627 92.434 153.155 92.234C152.691 92.034 152.323 91.746 152.051 91.37C151.779 90.994 151.639 90.55 151.631 90.038H153.431C153.455 90.382 153.575 90.654 153.791 90.854C154.015 91.054 154.319 91.154 154.703 91.154C155.095 91.154 155.403 91.062 155.627 90.878C155.851 90.686 155.963 90.438 155.963 90.134C155.963 89.886 155.887 89.682 155.735 89.522C155.583 89.362 155.391 89.238 155.159 89.15C154.935 89.054 154.623 88.95 154.223 88.838C153.679 88.678 153.235 88.522 152.891 88.37C152.555 88.21 152.263 87.974 152.015 87.662C151.775 87.342 151.655 86.918 151.655 86.39C151.655 85.894 151.779 85.462 152.027 85.094C152.275 84.726 152.623 84.446 153.071 84.254C153.519 84.054 154.031 83.954 154.607 83.954C155.471 83.954 156.171 84.166 156.707 84.59C157.251 85.006 157.551 85.59 157.607 86.342H155.759C155.743 86.054 155.619 85.818 155.387 85.634C155.163 85.442 154.863 85.346 154.487 85.346C154.159 85.346 153.895 85.43 153.695 85.598C153.503 85.766 153.407 86.01 153.407 86.33C153.407 86.554 153.479 86.742 153.623 86.894C153.775 87.038 153.959 87.158 154.175 87.254C154.399 87.342 154.711 87.446 155.111 87.566C155.655 87.726 156.099 87.886 156.443 88.046C156.787 88.206 157.083 88.446 157.331 88.766C157.579 89.086 157.703 89.506 157.703 90.026C157.703 90.474 157.587 90.89 157.355 91.274C157.123 91.658 156.783 91.966 156.335 92.198C155.887 92.422 155.355 92.534 154.739 92.534ZM160.816 84.074V89.258C160.816 89.826 160.964 90.262 161.26 90.566C161.556 90.862 161.972 91.01 162.508 91.01C163.052 91.01 163.472 90.862 163.768 90.566C164.064 90.262 164.212 89.826 164.212 89.258V84.074H165.904V89.246C165.904 89.958 165.748 90.562 165.436 91.058C165.132 91.546 164.72 91.914 164.2 92.162C163.688 92.41 163.116 92.534 162.484 92.534C161.86 92.534 161.292 92.41 160.78 92.162C160.276 91.914 159.876 91.546 159.58 91.058C159.284 90.562 159.136 89.958 159.136 89.246V84.074H160.816ZM171.847 92.45L169.999 89.186H169.207V92.45H167.527V84.074H170.671C171.319 84.074 171.871 84.19 172.327 84.422C172.783 84.646 173.123 84.954 173.347 85.346C173.579 85.73 173.695 86.162 173.695 86.642C173.695 87.194 173.535 87.694 173.215 88.142C172.895 88.582 172.419 88.886 171.787 89.054L173.791 92.45H171.847ZM169.207 87.926H170.611C171.067 87.926 171.407 87.818 171.631 87.602C171.855 87.378 171.967 87.07 171.967 86.678C171.967 86.294 171.855 85.998 171.631 85.79C171.407 85.574 171.067 85.466 170.611 85.466H169.207V87.926ZM180.35 90.854H177.014L176.462 92.45H174.698L177.71 84.062H179.666L182.678 92.45H180.902L180.35 90.854ZM179.894 89.51L178.682 86.006L177.47 89.51H179.894ZM146.847 110.45H145.167L141.363 104.702V110.45H139.683V102.062H141.363L145.167 107.822V102.062H146.847V110.45ZM148.099 106.25C148.099 105.426 148.283 104.69 148.651 104.042C149.027 103.386 149.535 102.878 150.175 102.518C150.823 102.15 151.547 101.966 152.347 101.966C153.283 101.966 154.103 102.206 154.807 102.686C155.511 103.166 156.003 103.83 156.283 104.678H154.351C154.159 104.278 153.887 103.978 153.535 103.778C153.191 103.578 152.791 103.478 152.335 103.478C151.847 103.478 151.411 103.594 151.027 103.826C150.651 104.05 150.355 104.37 150.139 104.786C149.931 105.202 149.827 105.69 149.827 106.25C149.827 106.802 149.931 107.29 150.139 107.714C150.355 108.13 150.651 108.454 151.027 108.686C151.411 108.91 151.847 109.022 152.335 109.022C152.791 109.022 153.191 108.922 153.535 108.722C153.887 108.514 154.159 108.21 154.351 107.81H156.283C156.003 108.666 155.511 109.334 154.807 109.814C154.111 110.286 153.291 110.522 152.347 110.522C151.547 110.522 150.823 110.342 150.175 109.982C149.535 109.614 149.027 109.106 148.651 108.458C148.283 107.81 148.099 107.074 148.099 106.25ZM159.398 103.43V105.53H162.218V106.862H159.398V109.082H162.578V110.45H157.718V102.062H162.578V103.43H159.398Z" fill="white"/>
<path d="M133.981 82.0814L133.966 90.6564C133.965 91.3054 134.49 91.8323 135.139 91.8335L143.714 91.8484C144.363 91.8496 144.89 91.3244 144.891 90.6755L144.906 82.1005C144.907 81.4516 144.382 80.9246 143.733 80.9235L135.158 80.9085C134.509 80.9074 133.982 81.4325 133.981 82.0814Z" fill="#D1DDF2"/>
<path d="M151.791 83.4698L151.791 83.4748C151.79 84.074 152.275 84.5607 152.874 84.5617L192.169 84.6303C192.768 84.6313 193.255 84.1464 193.256 83.5472L193.256 83.5422C193.257 82.9429 192.772 82.4563 192.173 82.4553L152.878 82.3867C152.279 82.3857 151.792 82.8706 151.791 83.4698Z" fill="#D1DDF2"/>
<path d="M151.787 88.4688L151.786 88.9738C151.785 89.4349 152.158 89.8094 152.619 89.8102L175.399 89.85C175.861 89.8508 176.235 89.4776 176.236 89.0165L176.237 88.5115C176.238 88.0503 175.864 87.6758 175.403 87.675L152.623 87.6352C152.162 87.6344 151.788 88.0076 151.787 88.4688Z" fill="#D1DDF2"/>
<path d="M138.38 89.65L134.775 86.15C134.455 85.91 134.395 85.455 134.635 85.135C134.875 84.815 135.33 84.755 135.65 84.995L138.41 87.58L142.85 82.615C143.12 82.32 143.575 82.3 143.87 82.57C144.165 82.84 144.185 83.295 143.915 83.59L138.38 89.645V89.65Z" fill="#209AA6"/>
<path d="M133.986 101.766L133.971 110.341C133.97 110.99 134.495 111.517 135.144 111.518L143.719 111.533C144.368 111.534 144.895 111.009 144.896 110.36L144.911 101.785C144.912 101.136 144.387 100.609 143.738 100.608L135.163 100.593C134.514 100.592 133.987 101.117 133.986 101.766Z" fill="#D1DDF2"/>
<path d="M151.786 103.154L151.786 103.159C151.785 103.758 152.27 104.245 152.869 104.246L192.164 104.315C192.763 104.316 193.25 103.831 193.251 103.232L193.251 103.227C193.252 102.627 192.767 102.141 192.168 102.14L152.873 102.071C152.274 102.07 151.787 102.555 151.786 103.154Z" fill="#D1DDF2"/>
<path d="M151.792 108.153L151.791 108.658C151.79 109.119 152.163 109.494 152.624 109.495L175.404 109.534C175.865 109.535 176.24 109.162 176.241 108.701L176.242 108.196C176.242 107.735 175.869 107.36 175.408 107.359L152.628 107.32C152.167 107.319 151.792 107.692 151.792 108.153Z" fill="#D1DDF2"/>
<path d="M138.38 109.33L134.775 105.83C134.455 105.59 134.395 105.135 134.635 104.815C134.875 104.495 135.33 104.435 135.65 104.675L138.41 107.26L142.85 102.295C143.12 102 143.575 101.98 143.87 102.25C144.165 102.52 144.185 102.975 143.915 103.27L138.38 109.325V109.33Z" fill="#209AA6"/>
<path d="M133.986 121.45L133.971 130.025C133.97 130.674 134.495 131.201 135.144 131.202L143.719 131.217C144.368 131.218 144.895 130.693 144.896 130.044L144.911 121.469C144.912 120.82 144.387 120.293 143.738 120.292L135.163 120.277C134.514 120.276 133.987 120.801 133.986 121.45Z" fill="#D1DDF2"/>
<path d="M151.786 122.839L151.786 122.844C151.785 123.443 152.27 123.929 152.869 123.93L192.164 123.999C192.763 124 193.25 123.515 193.251 122.916L193.251 122.911C193.252 122.312 192.767 121.825 192.168 121.824L152.873 121.755C152.274 121.754 151.787 122.239 151.786 122.839Z" fill="#D1DDF2"/>
<path d="M151.792 127.837L151.791 128.343C151.79 128.804 152.163 129.178 152.624 129.179L175.404 129.219C175.865 129.22 176.24 128.846 176.241 128.385L176.242 127.88C176.242 127.419 175.869 127.045 175.408 127.044L152.628 127.004C152.167 127.003 151.792 127.376 151.792 127.837Z" fill="#D1DDF2"/>
<path d="M138.38 129.015L134.775 125.515C134.455 125.275 134.395 124.82 134.635 124.5C134.875 124.18 135.33 124.12 135.65 124.36L138.41 126.945L142.85 121.98C143.12 121.685 143.575 121.665 143.87 121.935C144.165 122.205 144.185 122.66 143.915 122.955L138.38 129.01V129.015Z" fill="#209AA6"/>
<path d="M115.22 146.125C115.22 146.125 105.585 138.605 105.9 134.14C106.215 129.675 109.62 130.735 110.5 126.855C111.38 122.98 108.915 121.1 109.855 117.455C110.795 113.815 113.73 114.105 113.675 110.11C113.615 106.115 111.97 103.59 112.735 99.36C113.5 95.13 116.495 90.725 121.78 91.9C121.78 91.9 127.36 88.08 131.71 90.96C136.055 93.84 135.295 96.07 137.41 97.365C139.525 98.655 140.935 98.5 142.64 103.02C144.345 107.545 143.05 108.055 144.46 111.405C145.87 114.755 147.75 114.93 147.75 118.335C147.75 121.74 149.22 125.15 151.275 127.675C153.33 130.2 134.355 141.715 134.355 141.715L115.225 146.12L115.22 146.125Z" fill="#1A2B47"/>
<path d="M137.29 119.59L136.545 122.255C136.545 122.255 134.35 126.72 134.275 126.72C134.2 126.72 126.95 125.975 126.95 125.975L125.415 120.6V120.545L125.45 120.225L125.595 118.62L125.63 118.22L126.17 111.53L133.53 108.2L133.61 108.165L136.155 118.385L137.29 119.6V119.59Z" fill="#E9A277"/>
<path d="M133.77 99.615C133.77 99.615 135.24 107.515 132.56 113.1C131.465 115.39 129.13 118.63 126.765 118.925C124.275 119.235 120.36 116.21 118.965 112.85C116.64 107.27 116.925 99.58 116.925 99.58L128.275 92.39L133.77 99.62V99.615Z" fill="#E9A277"/>
<path d="M120.845 110.355C121.312 110.355 121.69 109.977 121.69 109.51C121.69 109.043 121.312 108.665 120.845 108.665C120.379 108.665 120 109.043 120 109.51C120 109.977 120.379 110.355 120.845 110.355Z" fill="#1A2B47"/>
<path d="M127.565 108.63C128.032 108.63 128.41 108.252 128.41 107.785C128.41 107.318 128.032 106.94 127.565 106.94C127.099 106.94 126.72 107.318 126.72 107.785C126.72 108.252 127.099 108.63 127.565 108.63Z" fill="#1A2B47"/>
<path d="M120.87 108.735C120.87 108.735 121.075 108.57 120.26 108.78C119.445 108.99 118.74 109.6 118.74 109.6" fill="#1A2B47"/>
<path d="M129.41 106.77C129.41 106.77 128.595 106.695 127.76 106.805C126.93 106.915 126.94 107.365 126.94 107.365" fill="#1A2B47"/>
<path d="M124.345 110.54L124.025 111.27C123.885 111.59 124.075 111.96 124.42 112.03L124.58 112.065" stroke="#1A2B47" stroke-width="0.56" stroke-miterlimit="10"/>
<path d="M124.17 114.945C124.17 114.945 124.27 115.095 124.46 115.255C124.765 115.52 125.3 115.825 126.025 115.635C126.765 115.44 127.05 114.91 127.16 114.545C127.225 114.33 127.225 114.175 127.225 114.175L124.165 114.94L124.17 114.945Z" fill="white"/>
<path d="M122.15 106.535C122.15 106.535 119.565 106.27 118.01 107.795L122.15 106.535Z" fill="#1A2B47"/>
<path d="M125.015 105.655C125.015 105.655 126.66 104.545 129.145 104.87L125.015 105.655Z" fill="#1A2B47"/>
<path d="M128.305 111.448C128.883 111.375 129.325 111.107 129.292 110.849C129.26 110.592 128.765 110.442 128.187 110.516C127.608 110.589 127.166 110.857 127.199 111.114C127.231 111.372 127.726 111.521 128.305 111.448Z" fill="#E9A277"/>
<path d="M121.08 112.665C121.658 112.592 122.1 112.324 122.067 112.067C122.035 111.809 121.54 111.66 120.962 111.733C120.384 111.806 119.941 112.074 119.974 112.331C120.007 112.589 120.502 112.738 121.08 112.665Z" fill="#E9A277"/>
<path d="M136.545 104.15C135.27 102.595 135.595 103.565 133.195 103.46C128.39 103.25 123.255 98.18 123.255 98.18C123.255 98.18 121.42 105.295 116.21 105.08C116.21 105.08 114.22 91.38 124.885 91.62C141.925 92 136.545 104.15 136.545 104.15Z" fill="#1A2B47"/>
<path d="M133.195 103.46C133.195 103.46 136.05 102.79 135.99 105.17C135.93 107.55 132.995 109.39 132.995 109.39L133.195 103.46Z" fill="#E9A277"/>
<path d="M133.89 104.875C133.89 104.875 135.52 105.215 133.655 106.99" stroke="#1A2B47" stroke-width="0.45" stroke-linecap="round" stroke-linejoin="round"/>
<path d="M118.42 148.575L110.81 148.155L109.74 155.41L94.225 158.7C94.225 158.7 92.29 162.055 91.51 162.975C91.51 163.18 100.625 165.075 105.875 165.065C111.825 165.055 117.925 164.99 117.925 164.99L118.655 162.8C122.345 159.7 118.415 148.57 118.415 148.57L118.42 148.575Z" fill="#E9A277"/>
<path d="M125.36 119.97L125.03 122.805L124.735 125.345L124.2 129.915L123.91 132.455L123.36 137.15L123.065 139.69L122.48 144.71L122.19 147.25L121.775 150.785L115.655 149.97L109.665 149.17C109.665 149.17 109.875 147.615 110.245 145.34C110.37 144.57 110.515 143.715 110.675 142.81C110.965 141.15 111.32 139.31 111.71 137.505C111.895 136.665 112.09 135.83 112.29 135.015C112.705 133.355 113.15 131.805 113.62 130.55C113.785 130.1 113.955 129.69 114.13 129.325C114.3 128.965 114.515 128.6 114.77 128.235C115.685 126.925 117.095 125.61 118.58 124.435C119.52 123.69 120.49 123 121.395 122.395C123.36 121.085 125.005 120.175 125.315 120.005L125.34 119.99L125.365 119.975L125.36 119.97Z" fill="#EA5A42"/>
<path d="M91.7501 162.97C91.8051 162.975 91.8951 162.9 92.0051 162.765C91.7351 162.88 91.6301 162.955 91.7501 162.97Z" fill="#E9A277"/>
<path d="M138.22 184.985L146.395 186.095L146.195 194.27L137.305 194.135L138.22 184.985Z" fill="#E9A277"/>
<path d="M148.79 184.705L150.925 184.57C151.515 184.53 152.08 184.81 152.405 185.305C152.955 186.145 153.885 187.46 154.815 188.345C156.27 189.735 160.175 193.245 160.64 193.905C161.105 194.565 161.17 196.42 161.17 196.42L148.79 184.705Z" fill="#209AA6"/>
<path d="M144.495 185.9C144.495 185.9 145.14 186.52 145.74 190C145.94 191.175 146 194.72 146 194.72C146 194.72 147.13 195.295 148.59 195.63C150.045 195.96 154.35 198.54 156.995 198.805C159.645 199.07 161.165 196.42 161.165 196.42L148.785 184.705L144.49 185.9H144.495Z" fill="#1A2B47"/>
<path d="M149.173 192.718C149.207 192.513 149.068 192.32 148.864 192.287C148.66 192.253 148.467 192.391 148.433 192.596L147.982 195.329C147.949 195.533 148.087 195.726 148.291 195.76C148.496 195.793 148.689 195.655 148.722 195.451L149.173 192.718Z" fill="white"/>
<path d="M151.529 193.628C151.599 193.433 151.499 193.218 151.304 193.148C151.109 193.078 150.894 193.178 150.824 193.373L149.882 195.978C149.812 196.173 149.913 196.388 150.107 196.458C150.302 196.529 150.517 196.428 150.588 196.233L151.529 193.628Z" fill="white"/>
<path d="M153.565 194.49C153.636 194.295 153.535 194.08 153.34 194.01C153.145 193.94 152.93 194.04 152.86 194.235L151.919 196.84C151.848 197.035 151.949 197.25 152.144 197.32C152.339 197.391 152.554 197.29 152.624 197.095L153.565 194.49Z" fill="white"/>
<path d="M152.8 194.725L160.975 195.835L160.775 204.01L151.885 203.88L152.8 194.725Z" fill="#E9A277"/>
<path d="M163.37 194.445L165.505 194.31C166.095 194.27 166.66 194.55 166.985 195.045C167.535 195.885 168.465 197.2 169.395 198.085C170.85 199.475 174.755 202.985 175.22 203.645C175.685 204.305 175.75 206.16 175.75 206.16L163.37 194.445Z" fill="#209AA6"/>
<path d="M159.14 195.54C159.14 195.54 159.72 196.255 160.32 199.74C160.52 200.915 160.58 204.46 160.58 204.46C160.58 204.46 161.71 205.035 163.17 205.37C164.63 205.705 168.93 208.28 171.575 208.545C174.225 208.81 175.745 206.16 175.745 206.16L163.365 194.445L159.135 195.545L159.14 195.54Z" fill="#1A2B47"/>
<path d="M163.745 202.458C163.778 202.254 163.64 202.061 163.436 202.027C163.231 201.994 163.038 202.132 163.005 202.336L162.554 205.069C162.52 205.274 162.659 205.467 162.863 205.5C163.068 205.534 163.261 205.396 163.294 205.191L163.745 202.458Z" fill="white"/>
<path d="M166.106 203.369C166.176 203.174 166.075 202.959 165.881 202.889C165.686 202.818 165.471 202.919 165.4 203.114L164.459 205.719C164.388 205.914 164.489 206.129 164.684 206.199C164.879 206.269 165.094 206.169 165.164 205.974L166.106 203.369Z" fill="white"/>
<path d="M168.145 204.236C168.216 204.041 168.115 203.826 167.92 203.755C167.725 203.685 167.51 203.786 167.44 203.981L166.498 206.586C166.428 206.781 166.529 206.996 166.724 207.066C166.918 207.136 167.133 207.035 167.204 206.841L168.145 204.236Z" fill="white"/>
<path d="M145.925 193.25C153.655 185.48 145.91 171.36 145.91 171.36L113.84 172.44C113.84 172.44 100.355 179.09 92.22 186.415C84.085 193.74 89.29 201.39 97.755 202.04C97.755 202.04 100.48 206.76 116.225 206.76C131.97 206.76 155.62 204.605 155.62 204.605V194.11L145.93 193.25H145.925Z" fill="#209AA6"/>
<path d="M145.925 193.25C145.925 193.25 136.12 191.625 119.275 195.53" stroke="#1A2B47" stroke-width="0.29" stroke-miterlimit="10"/>
<path d="M97.7501 202.035C97.7501 202.035 93.7651 194.425 102.55 189.18C111.34 183.93 120.37 180.635 120.37 180.635" stroke="#1A2B47" stroke-width="0.29" stroke-miterlimit="10"/>
<path d="M147.195 133.47C147.185 134.37 147.15 135.305 147.09 136.28C146.97 138.16 146.745 140.165 146.39 142.275C146.39 142.275 146.39 142.28 146.39 142.285C146.235 143.19 146.1 144.115 145.99 145.05C145.865 146.06 145.765 147.075 145.685 148.105C145.58 149.48 145.51 150.87 145.47 152.245C145.44 153.145 145.425 154.035 145.425 154.92C145.415 157.05 145.46 159.115 145.54 161.025C145.58 161.935 145.625 162.81 145.675 163.635C145.965 168.435 146.4 171.75 146.4 171.75C139.07 176.445 113.58 172.535 113.58 172.535C113.58 172.535 114.765 169.69 115.51 164.83C115.63 164.035 115.74 163.19 115.83 162.295C116.005 160.56 116.11 158.635 116.095 156.555C116.095 155.715 116.065 154.85 116.015 153.96C115.955 152.815 115.85 151.635 115.705 150.415C115.685 150.265 115.67 150.12 115.655 149.97C115.515 148.75 115.39 147.57 115.31 146.42C115.24 145.53 115.195 144.66 115.18 143.805C115.135 141.99 115.205 140.24 115.43 138.52C115.54 137.675 115.685 136.84 115.87 136.005C116.14 134.805 116.495 133.615 116.95 132.415C117.065 132.12 117.18 131.82 117.31 131.52C117.635 130.725 118.005 129.93 118.4 129.135C119.11 127.695 119.92 126.26 120.765 124.875C121.255 124.07 121.76 123.28 122.265 122.525C122.46 122.22 122.665 121.92 122.865 121.63L125.34 119.99L125.365 119.975C125.365 119.975 125.68 127.09 136.08 116.775L142.795 119.42L145.68 120.555C145.68 120.555 145.695 120.605 145.725 120.7C145.87 121.195 146.355 122.955 146.735 125.69C146.845 126.505 146.95 127.405 147.03 128.39C147.15 129.91 147.225 131.615 147.2 133.48L147.195 133.47Z" fill="#EA5A42"/>
<path d="M115.68 149.865C114.87 143.115 114.775 138.145 116.95 132.405" stroke="#1A2B47" stroke-width="0.34" stroke-miterlimit="10"/>
<path d="M152.225 146.72C152.225 146.72 153.195 162.45 150.43 164.82C147.225 167.565 144.575 169.39 127.175 154.125C121.585 149.22 118.795 144.235 118.795 144.235L122.445 139.235L140.075 151.08L139.8 147.855L152.235 146.715L152.225 146.72Z" fill="#E9A277"/>
<path d="M152.995 147.95L145.68 148.1L139.56 148.23C139.56 148.23 139.51 147.575 139.445 146.485C139.4 145.79 139.345 144.92 139.29 143.92C139.2 142.405 139.11 140.605 139.03 138.73C138.995 137.88 138.96 137.01 138.935 136.14C138.88 134.47 138.845 132.805 138.845 131.28C138.845 130.335 138.855 129.445 138.88 128.64C138.88 128.58 138.88 128.525 138.885 128.465C138.985 125.84 140.03 124.065 141.28 122.865C143.24 120.99 145.67 120.55 145.67 120.55C145.67 120.55 145.73 120.575 145.835 120.625C146.41 120.89 148.39 121.88 149.95 123.72C150.47 124.335 150.95 125.055 151.31 125.87C151.63 126.59 151.855 127.385 151.94 128.265C152.01 128.955 152.08 129.79 152.15 130.725C152.21 131.615 152.275 132.59 152.335 133.615C152.455 135.64 152.565 137.84 152.655 139.895C152.7 140.855 152.745 141.785 152.775 142.645C152.905 145.7 152.985 147.955 152.985 147.955L152.995 147.95Z" fill="#EA5A42"/>
<path d="M139.78 148.995C139.78 148.995 138.825 139.43 139.075 132.705" stroke="#1A2B47" stroke-width="0.34" stroke-miterlimit="10"/>
<path d="M94.71 158.585C94.71 158.585 93.59 157.985 92.465 156.66C91.34 155.335 90.17 154.07 88.695 153.705C87.22 153.34 84.405 152.865 83.4 153.59C82.395 154.315 81.43 156.045 81.51 156.64C81.59 157.235 82.045 157.265 82.045 157.265C82.045 157.265 81.435 157.97 81.4 158.49C81.365 159.01 81.775 159.135 81.775 159.135C81.775 159.135 81.085 159.985 81.27 160.435C81.455 160.885 82.18 160.96 82.62 160.445C83.06 159.93 84.89 158.88 85.65 159.185C86.405 159.49 88.47 161.915 90.205 162.65C91.315 163.12 91.74 162.97 91.74 162.97L94.705 158.585H94.71Z" fill="#E9A277"/>
<g style="mix-blend-mode:multiply" opacity="0.5">
<path d="M92.46 161.3C92.46 161.3 92.255 161.295 91.905 161.235C91.555 161.18 91.05 161.07 90.51 160.815C90.24 160.685 89.965 160.51 89.735 160.27C89.515 160.025 89.285 159.71 89.02 159.435C88.505 158.865 87.795 158.32 86.95 158.135C86.735 158.085 86.525 158.075 86.385 158.01C86.235 157.945 86.1601 157.83 86.1601 157.675C86.1751 157.35 86.43 157.025 86.7 156.81C87.27 156.335 88.015 156.4 88.59 156.56C89.17 156.72 89.645 156.91 89.97 157.06C90.295 157.205 90.475 157.305 90.475 157.305C90.475 157.305 90.305 157.19 89.995 157.01C89.68 156.84 89.23 156.59 88.635 156.395C88.34 156.305 88.005 156.22 87.635 156.22C87.26 156.22 86.8651 156.355 86.5351 156.595C86.2201 156.845 85.905 157.175 85.865 157.67C85.845 157.92 86.025 158.195 86.255 158.285C86.49 158.39 86.7 158.385 86.88 158.435C87.65 158.595 88.3 159.085 88.825 159.62C89.1 159.89 89.315 160.165 89.58 160.43C89.85 160.685 90.155 160.855 90.44 160.975C91.02 161.215 91.545 161.265 91.9 161.3C92.26 161.325 92.465 161.31 92.465 161.31L92.46 161.3Z" fill="#E9A277"/>
</g>
<g style="mix-blend-mode:multiply" opacity="0.5">
<path d="M81.7852 159.13C81.7852 159.13 81.8352 159.1 81.9252 159.045C82.0052 158.995 82.1902 158.885 82.2902 158.82C82.4352 158.73 82.6652 158.59 82.8052 158.505C82.9952 158.39 83.1901 158.27 83.3951 158.155C83.5951 158.04 83.8002 157.93 83.9952 157.845C84.1902 157.755 84.3752 157.675 84.5402 157.635C84.7052 157.595 84.8501 157.56 84.9502 157.57C85.0552 157.57 85.1152 157.57 85.1152 157.57C85.1152 157.57 85.0602 157.55 84.9602 157.515C84.8602 157.48 84.7002 157.455 84.5152 157.47C84.3302 157.485 84.1152 157.52 83.9002 157.6C83.6802 157.67 83.4652 157.78 83.2502 157.895C83.0402 158.015 82.8402 158.15 82.6602 158.285C82.4802 158.42 82.3252 158.565 82.1952 158.685C82.0602 158.805 81.9651 158.925 81.8951 159C81.8301 159.08 81.7902 159.13 81.7902 159.13H81.7852Z" fill="#E9A277"/>
</g>
<g style="mix-blend-mode:multiply" opacity="0.5">
<path d="M82.05 157.26C82.05 157.26 82.11 157.205 82.215 157.105C82.31 157.015 82.515 156.825 82.645 156.705C82.82 156.535 83.035 156.355 83.26 156.16C83.49 155.97 83.735 155.765 84 155.615C84.255 155.445 84.53 155.405 84.835 155.405C85.125 155.405 85.405 155.43 85.64 155.475C85.875 155.52 86.075 155.555 86.21 155.595C86.35 155.63 86.425 155.65 86.425 155.65C86.425 155.65 86.355 155.61 86.23 155.54C86.1 155.48 85.915 155.385 85.68 155.31C85.445 155.24 85.16 155.155 84.845 155.135C84.54 155.1 84.15 155.16 83.855 155.35C83.56 155.525 83.305 155.745 83.085 155.96C82.865 156.175 82.68 156.4 82.525 156.59C82.37 156.78 82.26 156.955 82.175 157.07C82.1 157.19 82.055 157.26 82.055 157.26H82.05Z" fill="#E9A277"/>
</g>
<path d="M121.79 165.23L119.2 169.24C119.2 169.24 114.635 167.13 112.6 165.745C110.835 164.545 108.295 164.83 104.395 164.355C103.79 164.285 103.16 164.195 102.49 164.075C100.88 163.79 99.665 163.185 98.76 162.505C98.56 161.185 98.33 159.335 98.175 158.135L100.98 156.385L104.14 154.42C103.96 155.19 104.05 155.86 104.34 156.45C105.64 159.055 110.945 160.14 114.585 162.16C114.785 162.265 114.975 162.375 115.16 162.495C119.555 165.21 121.78 165.23 121.78 165.23H121.79Z" fill="#EFB033"/>
<g style="mix-blend-mode:multiply" opacity="0.4">
<path d="M114.595 162.16C113.345 162.5 111.71 162.71 109.92 162.64C107.6 162.55 105.57 163.59 104.395 164.355C103.79 164.285 103.16 164.195 102.49 164.075C100.88 163.79 99.665 163.185 98.76 162.505C98.56 161.185 98.33 159.335 98.175 158.135C98.09 157.525 98.03 157.08 97.995 156.945C97.9 156.555 99.745 156.425 100.98 156.38C101.6 156.36 102.065 156.36 102.065 156.36L104.345 156.445C105.645 159.05 110.95 160.135 114.59 162.155L114.595 162.16Z" fill="#EFB033"/>
</g>
<path d="M117.85 168.305C117.85 168.305 118.79 169.825 120.1 170.325C120.47 170.465 121.09 170.19 121.765 169.695C123.515 168.42 125.64 165.675 124.795 164.71C123.62 163.375 120.445 164.97 120.445 164.97L117.845 168.3L117.85 168.305Z" fill="#EFB033"/>
<path d="M122.035 167.425C122.52 167.865 122.975 168.06 123.645 168.09C123.67 168.09 123.82 167.87 123.8 167.85C123.43 167.28 122.79 166.935 122.09 167.135C122.06 167.145 122.015 167.41 122.035 167.43V167.425Z" fill="#1A2B47"/>
<path d="M122.865 166.065C123.35 166.505 123.805 166.7 124.475 166.73C124.5 166.73 124.65 166.51 124.63 166.49C124.26 165.92 123.62 165.575 122.92 165.775C122.89 165.785 122.845 166.05 122.865 166.07V166.065Z" fill="#1A2B47"/>
<path d="M123.29 164.735C123.775 165.175 124.23 165.37 124.9 165.4C124.925 165.4 125.075 165.18 125.055 165.16C124.685 164.59 124.045 164.245 123.345 164.445C123.315 164.455 123.27 164.72 123.29 164.74V164.735Z" fill="#1A2B47"/>
<path d="M129.21 156.87C129.21 156.87 130.83 157.625 132.2 157.325C132.585 157.24 132.95 156.67 133.245 155.88C134.01 153.855 134.28 150.39 133.045 150.05C131.33 149.58 129.55 152.655 129.55 152.655L129.205 156.865L129.21 156.87Z" fill="#EFB033"/>
<path d="M132.225 153.84C132.875 153.945 133.36 153.855 133.935 153.515C133.955 153.5 133.96 153.24 133.935 153.225C133.315 152.95 132.59 153.015 132.115 153.565C132.095 153.59 132.2 153.84 132.23 153.84H132.225Z" fill="#1A2B47"/>
<path d="M132.175 152.25C132.825 152.355 133.31 152.265 133.885 151.925C133.905 151.91 133.91 151.65 133.885 151.635C133.265 151.36 132.54 151.425 132.065 151.975C132.045 152 132.15 152.25 132.18 152.25H132.175Z" fill="#1A2B47"/>
<path d="M131.8 150.905C132.45 151.01 132.935 150.92 133.51 150.58C133.53 150.565 133.535 150.305 133.51 150.29C132.89 150.015 132.165 150.08 131.69 150.63C131.67 150.65 131.775 150.905 131.805 150.905H131.8Z" fill="#1A2B47"/>
<path d="M80.395 196.96L77.08 198.495L76.39 198.815C75.965 198.35 75.585 197.9 75.245 197.455C74.945 197.075 74.675 196.7 74.44 196.335C73.57 195.055 73.025 193.885 72.66 192.825C72.285 191.77 72.105 190.825 71.995 189.985C71.965 189.765 71.94 189.555 71.91 189.345C71.88 189.145 71.86 188.94 71.84 188.755C71.75 187.99 71.665 187.345 71.435 186.81C70.97 185.72 70.18 184.525 68.935 183.115C67.76 181.775 66.185 180.225 64.095 178.385L77.905 172C78.28 173.175 78.585 174.23 78.835 175.19C79.275 176.85 79.545 178.21 79.675 179.365C80.24 184.055 78.645 185.195 77.675 188.34C76.795 191.19 78.225 193.995 79.32 195.6C79.905 196.45 80.39 196.96 80.39 196.96H80.395Z" fill="#EFB033"/>
<path d="M78.7852 200.15C78.4302 200.215 78.0852 200.245 77.7652 200.27C76.9252 200.31 76.2602 200.205 76.0302 199.89C75.4652 199.125 75.3102 198.065 75.2502 197.46C75.2302 197.16 75.2352 196.975 75.2352 196.975L77.2552 196.275L79.2302 195.595C79.2302 195.595 79.2652 195.6 79.3252 195.61C79.8852 195.685 82.7902 196.165 83.0202 197.75C83.1802 198.825 80.8202 199.82 78.7852 200.16V200.15Z" fill="#EFB033"/>
<path d="M79.2202 198.505C79.3852 199.14 79.6602 199.55 80.2052 199.94C80.2252 199.955 80.4702 199.85 80.4652 199.82C80.4652 199.14 80.1152 198.5 79.4252 198.29C79.3952 198.28 79.2102 198.48 79.2152 198.505H79.2202Z" fill="#1A2B47"/>
<path d="M80.6603 197.82C80.8253 198.455 81.1002 198.865 81.6452 199.255C81.6652 199.27 81.9103 199.165 81.9103 199.135C81.9103 198.455 81.5603 197.815 80.8703 197.605C80.8403 197.595 80.6553 197.795 80.6603 197.82Z" fill="#1A2B47"/>
<path d="M81.7401 196.94C81.9051 197.575 82.1801 197.985 82.7251 198.375C82.7451 198.39 82.9901 198.285 82.9901 198.255C82.9901 197.575 82.6401 196.935 81.9501 196.725C81.9201 196.715 81.7351 196.915 81.7401 196.94Z" fill="#1A2B47"/>
<g style="mix-blend-mode:multiply" opacity="0.4">
<path d="M78.7852 200.15C78.4302 200.215 78.0852 200.245 77.7652 200.27C76.9252 200.31 76.2602 200.205 76.0302 199.89C75.4652 199.125 75.3102 198.065 75.2502 197.46C74.9502 197.08 74.6802 196.705 74.4452 196.34H74.4502C73.5902 195.06 73.0352 193.89 72.6652 192.83C72.3052 191.775 72.1152 190.83 72.0002 189.99C71.9702 189.77 71.9452 189.56 71.9152 189.35C71.8852 189.15 71.8652 188.945 71.8452 188.76C71.7552 187.995 71.6702 187.35 71.4402 186.815C70.9752 185.725 70.1852 184.53 68.9402 183.12L71.1752 178.335L74.9552 173.825L78.8402 175.195C79.2802 176.855 79.5502 178.215 79.6802 179.37C78.5352 179.66 77.0452 180.225 76.0802 181.28C74.3152 183.19 72.9402 185.64 73.5302 189.27C74.0602 192.55 75.1902 195.91 77.2552 196.27C77.4702 196.31 77.7002 196.32 77.9452 196.285C77.9452 196.285 76.9852 197.425 77.0852 198.5C77.0852 198.5 77.0302 199.64 78.7852 200.155V200.15Z" fill="#EFB033"/>
</g>
<path d="M45.9201 167.15C51.9401 170.015 60.5001 168.94 63.6701 166.63L62.4201 163.91C62.4201 163.91 55.4601 168.45 49.2301 164.41C49.1001 164.33 48.9701 164.24 48.8451 164.145C42.5201 159.645 42.4401 152.305 37.5551 154.385C34.5451 155.66 36.1301 159.12 39.2051 162.265C41.1151 164.22 43.6101 166.055 45.9201 167.15Z" fill="#1A2B47"/>
<path d="M39.205 162.265C41.03 163.395 44.535 164.975 49.235 164.41C49.105 164.33 48.975 164.24 48.85 164.145C42.525 159.645 42.445 152.305 37.56 154.385C34.55 155.66 36.135 159.12 39.21 162.265H39.205Z" fill="#EFB033"/>
<path d="M130.515 152.095L130.11 156.845C130.11 156.845 125.08 157.115 122.635 156.845C121.095 156.67 119.545 157.4 117.395 158.345C116.145 158.9 114.695 159.535 112.92 160.105C108.1 161.67 105.25 158.75 105.25 158.75C105.25 158.75 102.055 164.18 93.9751 169.755C85.8901 175.32 73.6651 177.36 73.6651 177.36C72.1701 189.31 69.6651 188.695 66.6051 192.095C64.8401 194.055 64.7301 196.74 64.9451 198.66C65.1051 200.07 65.4451 201.065 65.4451 201.065H61.0351C60.8701 200.525 60.7251 200.01 60.6101 199.515C59.0451 193.025 61.5151 190.235 61.5751 188.09C61.6451 185.785 60.7601 182.59 58.4501 177.365C56.6701 173.335 57.3951 169.27 58.4701 166.805C58.7901 166.07 59.1451 165.47 59.4701 165.07C60.3651 163.96 66.5701 160.81 72.2151 157.51C75.5551 155.565 78.7101 153.555 80.4551 151.89C84.1501 148.36 86.7001 146.305 88.4801 144.735C88.9601 144.305 89.3851 143.915 89.7601 143.54C91.5301 141.775 91.1201 137.7 91.1201 137.7L91.2251 137.715L105.305 139.765L106.06 139.875C105.915 141.16 106.215 142.37 106.705 143.585C107.585 145.78 109.115 148.015 109.86 150.81C110.31 152.505 111.68 153.13 113.495 153.275C113.535 153.275 113.58 153.28 113.62 153.28C116.44 153.475 120.275 152.58 123.38 152.78C128.54 153.115 130.505 152.1 130.505 152.1L130.515 152.095Z" fill="#EFB033"/>
<path d="M110.905 160.53C107.32 160.865 105.26 158.75 105.26 158.75C105.26 158.75 104.055 160.8 101.255 163.67" stroke="#1A2B47" stroke-width="0.43" stroke-linecap="round" stroke-linejoin="round"/>
<g style="mix-blend-mode:multiply" opacity="0.4">
<path d="M117.935 134.02C117.27 136.2 116.49 135.8 112.07 138.2C107.995 140.415 106.86 143.16 106.715 143.575C107.595 145.77 109.125 148.005 109.87 150.8C110.33 152.535 111.75 153.15 113.63 153.275C110.35 154.975 106.095 153.04 105.405 149.6C104.705 146.085 96.2701 142.8 95.5051 142.51C96.4301 142.85 97.3651 143.095 98.2751 143.24C101.08 143.68 103.575 143.145 104.275 141.56C104.565 140.9 104.865 140.305 105.31 139.76C106.28 138.565 107.955 137.615 111.825 136.705C117.465 135.38 118.035 130.855 118.035 130.855H118.09C118.23 131.805 118.315 132.785 117.93 134.025L117.935 134.02Z" fill="#EFB033"/>
</g>
<path d="M80.4151 162.855C82.1101 161.765 85.3201 162.365 86.0701 163.77C86.8201 165.175 84.8301 167.04 82.1801 166.775C79.5301 166.515 78.2251 164.26 80.4151 162.85V162.855Z" fill="#FFD18F"/>
<path d="M68.115 201.58C68.02 202.74 65.155 203.155 63.035 202.94C62.82 202.92 62.62 202.89 62.425 202.855C61.6 202.715 60.965 202.46 60.815 202.1C60.435 201.21 60.525 200.105 60.62 199.51C60.66 199.24 60.705 199.07 60.705 199.07L62.76 198.855L64.905 198.635C64.905 198.635 64.92 198.64 64.955 198.655C65.365 198.81 68.255 199.935 68.115 201.58Z" fill="#EFB033"/>
<path d="M64.24 201.475C64.26 202.13 64.435 202.59 64.88 203.095C64.895 203.11 65.155 203.07 65.16 203.04C65.315 202.38 65.12 201.68 64.49 201.315C64.465 201.3 64.24 201.45 64.24 201.48V201.475Z" fill="#1A2B47"/>
<path d="M65.7949 201.13C65.8149 201.785 65.9899 202.245 66.4349 202.75C66.4499 202.765 66.7099 202.725 66.7149 202.695C66.8699 202.035 66.6749 201.335 66.0449 200.97C66.0199 200.955 65.7949 201.105 65.7949 201.135V201.13Z" fill="#1A2B47"/>
<path d="M67.0449 200.515C67.0649 201.17 67.2399 201.63 67.6849 202.135C67.6999 202.15 67.9599 202.11 67.9699 202.08C68.1249 201.42 67.9299 200.72 67.2999 200.355C67.2749 200.34 67.0499 200.49 67.0499 200.515H67.0449Z" fill="#1A2B47"/>
<path d="M97.9651 126.545C97.0351 125.11 97.7201 124.415 98.7301 123.585C99.7401 122.755 101.7 122.32 103.625 121.16C105.55 119.995 108.81 120.555 109.875 122.45C110.94 124.345 110.42 125.005 112.18 127.58C113.94 130.155 113.665 132.945 112.16 133.42C110.655 133.89 108.855 130.43 104.085 128.27C99.3151 126.11 97.9701 126.545 97.9701 126.545H97.9651Z" fill="#1A2B47"/>
<path d="M117.935 134.02C117.27 136.2 116.49 135.8 112.07 138.2C107.995 140.415 106.86 143.16 106.715 143.575C106.7 143.61 106.695 143.63 106.695 143.63C103.985 145.16 100.935 144.525 98.2751 143.235C94.3801 141.355 91.2951 138.06 91.2951 138.06C91.2951 138.06 91.2751 137.935 91.2301 137.705C91.1351 137.065 90.9401 135.64 90.8901 134.035C90.8551 133.11 90.8751 132.125 91.0001 131.2C91.4051 128.11 95.9201 124.635 99.7601 122.65C99.9901 122.53 100.22 122.42 100.45 122.325C103.97 120.82 106.84 122.035 108.785 124.43C110.85 126.985 112.655 125.02 114.445 124.845C116.245 124.67 117.815 126.9 117.82 128.665C117.825 129.435 117.975 130.13 118.09 130.855C118.23 131.8 118.315 132.78 117.93 134.015L117.935 134.02Z" fill="#EFB033"/>
<path d="M106.27 134.97C104.11 139.02 98.8801 137.98 96.0351 135.525C94.1301 133.885 92.0551 133.865 90.8901 134.04C90.8551 133.115 90.8751 132.13 91.0001 131.205C91.4051 128.115 95.9201 124.64 99.7601 122.655C99.9901 122.535 100.22 122.425 100.45 122.33C101.615 122.72 102.56 123.415 103.07 124.51C105.1 128.885 108.69 127.255 109.605 129.215C110.52 131.18 108.43 130.915 106.27 134.975V134.97Z" fill="#FFD18F"/>
<path d="M105.783 130.463C106.147 130.116 106.107 129.485 105.695 129.054C105.283 128.622 104.655 128.554 104.291 128.901C103.928 129.248 103.967 129.88 104.379 130.311C104.791 130.742 105.42 130.81 105.783 130.463Z" fill="#1A2B47"/>
<path d="M109.897 126.997C110.154 126.751 110.029 126.201 109.617 125.77C109.205 125.339 108.662 125.189 108.405 125.435C108.147 125.681 108.272 126.23 108.684 126.661C109.097 127.093 109.639 127.243 109.897 126.997Z" fill="#1A2B47"/>
<path d="M101.13 129.505C101.13 129.505 100.82 127.375 103.775 126.51" stroke="#1A2B47" stroke-width="0.72" stroke-linecap="round" stroke-linejoin="round"/>
<path d="M107.045 123.2C107.045 123.2 106.13 123.655 106.655 124.6" stroke="#1A2B47" stroke-width="0.72" stroke-linecap="round" stroke-linejoin="round"/>
<path d="M113.71 126.395C114.62 125.42 115.155 125.295 115.66 126.14C116.165 126.985 116.71 128.265 116.235 128.715C115.76 129.17 113.3 128.745 112.89 128.34C112.48 127.935 112.535 127.65 113.71 126.39V126.395Z" fill="#1A2B47"/>
<path d="M116.235 128.72C116.235 128.72 117.395 130.105 116.46 131.84" stroke="#1A2B47" stroke-width="0.35" stroke-linecap="round" stroke-linejoin="round"/>
<path d="M111.675 134.03C111.675 134.03 114.915 134.13 116.535 131.77C116.535 131.77 117.445 131.625 117.435 130.42" stroke="#1A2B47" stroke-width="0.35" stroke-linecap="round" stroke-linejoin="round"/>
<path d="M111.785 133.415C111.785 133.415 111.355 133.99 111.71 134.7" stroke="#1A2B47" stroke-width="0.35" stroke-linecap="round" stroke-linejoin="round"/>
<path d="M96.9501 127.415C96.9501 127.14 96.7851 126.89 96.5351 126.775C95.3951 126.255 94.7651 126.895 94.0301 127.79C93.2001 128.8 92.7651 130.76 91.6051 132.685C90.4401 134.61 91.0001 137.87 92.8951 138.935C94.7901 140 95.4501 139.48 98.0251 141.24C100.6 143 103.39 142.725 103.865 141.22C104.335 139.715 100.875 137.915 98.7151 133.145C97.1801 129.755 96.9551 128.095 96.9551 127.42L96.9501 127.415Z" fill="#1A2B47"/>
<path d="M71.3901 186.79C72.2951 184.97 73.0651 182.19 73.6701 177.355" stroke="#1A2B47" stroke-width="0.43" stroke-linecap="round" stroke-linejoin="round"/>
<path d="M73.675 177.355C73.675 177.355 74.265 174.295 73.775 169.88" stroke="#1A2B47" stroke-width="0.43" stroke-linecap="round" stroke-linejoin="round"/>
<path d="M94.275 158.77C89.175 162 85.94 158.865 80.155 160.535C76.82 161.495 74.015 159.43 72.23 157.505C75.57 155.56 78.725 153.55 80.47 151.885C84.165 148.355 86.715 146.3 88.495 144.73C88.535 145.98 88.94 149.265 92.025 149.745C95.85 150.33 99.38 155.53 94.285 158.77H94.275Z" fill="#1A2B47"/>
<g style="mix-blend-mode:multiply" opacity="0.4">
<path d="M63.9751 189.82C63.0351 192.555 60.6601 196.945 62.7601 198.855C62.8651 198.95 62.9901 199.05 63.1201 199.135C63.1201 199.135 62.2051 199.915 62.1951 201.06C62.1901 201.615 62.4051 202.255 63.0351 202.94C62.8201 202.92 62.6201 202.89 62.4251 202.855C61.6001 202.715 60.9651 202.46 60.8151 202.1C60.4351 201.21 60.5251 200.105 60.6201 199.51C59.0551 193.02 61.5251 190.23 61.5851 188.085C61.6551 185.78 60.7701 182.585 58.4601 177.36C56.6801 173.33 57.4051 169.265 58.4801 166.8C58.1701 169.46 58.0101 174.8 61.0901 178.315C65.3401 183.15 64.9501 186.945 63.9751 189.82Z" fill="#EFB033"/>
</g>
<path d="M122.44 139.24C122.44 139.24 120.945 137.105 120.105 135.47C119.265 133.835 118.245 132.135 117.125 131.68C116.005 131.225 108.485 129.46 108.575 131.435C108.575 131.435 106.67 131.57 106.855 132.855C106.855 132.855 106.225 133.135 106.325 134C106.425 134.865 110.28 134.3 111.515 134.995C112.75 135.69 114.46 136.93 114.46 136.93C114.46 136.93 111.33 136.3 110.685 136.135C110.04 135.97 108.005 135.98 107.89 136.515C107.775 137.055 110.685 137.17 111.87 137.67C113.055 138.17 114.44 138.59 114.68 139.51C114.92 140.43 115.045 142.15 116.3 142.96C117.555 143.77 118.785 144.235 118.785 144.235L122.435 139.235L122.44 139.24Z" fill="#E9A277"/>
<path d="M108.575 131.43C108.575 131.43 108.695 131.41 108.91 131.375C109.125 131.35 109.43 131.31 109.8 131.295C110.17 131.28 110.6 131.265 111.065 131.295C111.53 131.32 112.02 131.375 112.51 131.475C113 131.58 113.475 131.73 113.905 131.91C114.335 132.085 114.72 132.295 115.04 132.485C115.36 132.675 115.6 132.87 115.77 133C115.935 133.14 116.02 133.225 116.02 133.225C116.02 133.225 115.92 133.155 115.73 133.055C115.545 132.945 115.275 132.81 114.945 132.65C114.62 132.49 114.22 132.34 113.795 132.185C113.37 132.04 112.905 131.9 112.435 131.805C111.965 131.705 111.485 131.64 111.035 131.59C110.585 131.545 110.16 131.5 109.795 131.485C109.43 131.47 109.125 131.445 108.91 131.44C108.695 131.43 108.575 131.425 108.575 131.425V131.43Z" fill="#1A2B47"/>
<path d="M106.855 132.85C106.855 132.85 106.99 132.835 107.22 132.81C107.455 132.795 107.785 132.755 108.19 132.745C108.59 132.735 109.06 132.72 109.56 132.735C110.065 132.75 110.6 132.79 111.135 132.87C111.675 132.955 112.205 133.135 112.66 133.355C113.12 133.57 113.525 133.82 113.865 134.035C114.205 134.25 114.465 134.46 114.655 134.605C114.835 134.755 114.935 134.845 114.935 134.845C114.935 134.845 114.82 134.78 114.615 134.66C114.415 134.54 114.12 134.39 113.77 134.2C113.42 134.015 113 133.82 112.545 133.63C112.09 133.445 111.595 133.28 111.085 133.205C110.57 133.12 110.04 133.075 109.545 133.03C109.05 132.99 108.585 132.95 108.185 132.935C107.81 132.91 107.45 132.89 107.22 132.875C106.985 132.86 106.855 132.85 106.855 132.85Z" fill="#1A2B47"/>
<path d="M59.53 113.155C56.575 112.095 54.44 109.505 53.96 106.405L48.675 72.44L49.645 71.695C56.41 66.51 64.4351 63.075 72.8551 61.765C75.4301 61.365 78.0601 61.16 80.675 61.16C86.605 61.16 92.43 62.175 97.985 64.17L99.135 64.585L104.42 98.55C104.9 101.65 103.655 104.765 101.165 106.675L82.115 121.28L59.53 113.155Z" fill="white"/>
<path d="M80.6801 61.68C86.5051 61.68 92.3201 62.685 97.8151 64.66L98.6801 64.97L103.915 98.635C104.37 101.55 103.195 104.475 100.855 106.27L82.0301 120.7L59.7101 112.67C56.9351 111.67 54.9301 109.24 54.4751 106.325L49.2401 72.66L49.9701 72.1C56.6651 66.965 64.6101 63.57 72.9451 62.27C75.5101 61.87 78.1001 61.675 80.6851 61.675M80.6851 60.645C78.0401 60.645 75.3801 60.85 72.7851 61.255C64.2801 62.58 56.1701 66.045 49.3401 71.285L48.6151 71.84L48.1301 72.21L48.2251 72.815L53.4601 106.48C53.9701 109.77 56.2351 112.51 59.3651 113.635L81.6851 121.665L82.2151 121.855L82.6601 121.515L101.485 107.085C104.125 105.06 105.45 101.76 104.935 98.475L99.7001 64.81L99.6051 64.205L99.0301 64L98.1651 63.69C92.5551 61.67 86.6751 60.65 80.6851 60.65V60.645Z" fill="#D1DDF2"/>
<path d="M52.0002 74.075C64.6802 64.355 81.4352 61.7501 96.4702 67.1601L101.355 98.56C101.705 100.82 100.795 103.085 98.9852 104.475L81.5802 117.82L60.9452 110.395C58.7952 109.62 57.2402 107.735 56.8902 105.48L52.0052 74.0801L52.0002 74.075Z" fill="#209AA6"/>
<path d="M61.7951 71.61C57.5601 72.55 54.7351 75.47 54.7351 75.47L56.8051 89.965" stroke="#D1DDF2" stroke-miterlimit="10" stroke-linecap="round"/>
<path d="M66.7251 86.175L72.0901 96.02L89.2201 79.345" stroke="white" stroke-width="7.51" stroke-linecap="round" stroke-linejoin="round"/>
<path d="M126.305 118.78C126.305 118.78 130.335 119.29 132.425 112.71" stroke="#1A2B47" stroke-width="0.43" stroke-linecap="round" stroke-linejoin="round"/>
<path d="M53.12 123.92H46.66V117.46H40.2V123.92H33.74V130.38H40.2V136.84H46.66V130.38H53.12V123.92Z" fill="#D1DDF2"/>
<path d="M111.33 44.985H107.025V40.68H102.72V44.985H98.4102V49.29H102.72V53.595H107.025V49.29H111.33V44.985Z" fill="#D1DDF2"/>
<path d="M185.535 204.165C188.63 204.165 191.14 203.708 191.14 203.145C191.14 202.582 188.63 202.125 185.535 202.125C182.439 202.125 179.93 202.582 179.93 203.145C179.93 203.708 182.439 204.165 185.535 204.165Z" fill="#209AA6"/>
<path d="M177.71 184.985C177.71 184.985 175.03 186.785 176.02 192.635C177.005 198.485 179.97 203.14 179.97 203.14H191.11C191.11 203.14 194.07 198.485 195.06 192.635C196.045 186.785 193.37 184.985 193.37 184.985H177.715H177.71Z" fill="#209AA6"/>
<path d="M185.535 186.005C189.857 186.005 193.36 185.548 193.36 184.985C193.36 184.422 189.857 183.965 185.535 183.965C181.213 183.965 177.71 184.422 177.71 184.985C177.71 185.548 181.213 186.005 185.535 186.005Z" fill="#209AA6"/>
<path d="M185.535 185.715C189.583 185.715 192.865 185.388 192.865 184.985C192.865 184.582 189.583 184.255 185.535 184.255C181.487 184.255 178.205 184.582 178.205 184.985C178.205 185.388 181.487 185.715 185.535 185.715Z" fill="#1A2B47"/>
<path d="M183.585 184.73H183.3C183.3 182.865 183.275 175.88 183.005 169.695C183.005 169.595 182.995 169.5 182.99 169.4C182.885 167 182.735 164.735 182.535 162.96C182.33 161.135 181.655 159.92 180.53 159.355C178.09 158.125 174.28 160.3 174.245 160.325L174.1 160.075C174.26 159.98 178.08 157.8 180.655 159.1C181.87 159.715 182.595 161 182.81 162.93C183.01 164.735 183.16 167.04 183.27 169.485C183.27 169.59 183.28 169.695 183.285 169.8C183.55 175.96 183.575 182.875 183.575 184.735L183.585 184.73Z" fill="#1A7D87"/>
<path d="M180.025 161.57C179.975 161.845 179.895 162.105 179.79 162.36C179.685 160.85 178.85 160.28 178.47 160.56C178.065 160.865 178.425 161.45 178.61 161.955C178.825 162.565 178.84 163.28 178.8 163.875C177.91 164.825 176.675 165.52 175.46 165.935C175.51 165.76 175.555 165.565 175.605 165.365C175.85 164.315 175.605 162.52 174.72 162.725C173.83 162.925 173.95 163.795 174.015 165.325C174.03 165.69 173.985 166.025 173.905 166.325C171.55 166.79 168.645 168.88 168.645 168.88C168.645 168.88 168.215 166.71 168.025 164.065C168.315 163.71 168.63 163.41 168.93 163.27C169.875 162.845 170.18 162.545 170.02 161.98C169.885 161.51 169.08 161.54 167.95 162.59C167.92 161.6 167.94 160.585 168.035 159.63C168.68 159.045 169.535 158.465 170.425 158.425C172.24 158.345 172.605 157.035 171.815 156.79C171.085 156.565 169.77 157.235 168.875 156.36C169.105 155.925 169.39 155.555 169.735 155.275C173.005 152.65 175.545 157.815 175.545 157.815C175.545 157.815 180.55 158.865 180.025 161.57Z" fill="#1A7D87"/>
<path d="M193.23 169.66L193.115 169.92C193.115 169.92 191.69 169.32 190.325 170.125C188.89 170.97 188.015 172.985 187.715 176.105C187.185 181.62 187.05 183.845 187.025 184.73H186.74C186.77 183.825 186.9 181.575 187.43 176.08C187.74 172.86 188.665 170.77 190.185 169.88C191.68 169 193.17 169.63 193.23 169.66Z" fill="#209AA6"/>
<path d="M203.795 173.375C203.405 172.905 202.875 172.74 202.075 172.41C200.625 171.81 197.625 171.685 197.91 170.675C198.195 169.665 200.215 170.42 202.015 171.055C202.72 171.3 203.185 171.57 203.49 171.81C202.77 169.255 200.985 166.675 198.29 166.37C194.5 165.945 193.51 169.4 193.51 169.4C193.51 169.4 189.44 164.285 187.025 166.51C185.555 167.865 186.72 171.425 188.87 174.405C189.74 172.965 191.02 171.065 191.54 171.465C192.225 171.995 190.19 173.765 190.01 175.825C190.96 176.885 192.015 177.785 193.075 178.355C192.965 176.575 192.995 174.26 193.905 174.145C195.39 173.955 194.6 176.83 195.545 178.53C195.805 178.995 196 179.325 196.15 179.57C196.475 180.115 196.835 180.64 197.245 181.13C198.385 182.505 198.31 184.53 198.31 184.53C198.31 184.53 200.64 181.655 201.925 179.465C201.63 178.63 201.12 177.775 200.815 176.695C200.215 174.58 197.06 174.2 198.1 173.19C199.14 172.18 201.35 173.76 202.675 175.525C202.985 175.94 203.175 176.37 203.275 176.785C203.575 176.04 203.78 175.335 203.825 174.735C203.86 174.31 203.85 173.85 203.795 173.365V173.375ZM190.11 169.96C189.445 169.995 188.335 170.005 188.25 169.405C188.17 168.815 189.115 168.61 189.85 168.625C190.585 168.635 191.34 169.155 191.39 169.69C191.435 170.22 190.775 169.925 190.11 169.96ZM195.235 169.88C194.405 169.83 195.6 168.99 195.6 168.99C195.91 168.885 196.725 168.575 196.985 168.955C197.245 169.335 196.06 169.925 195.235 169.88Z" fill="#209AA6"/>
<path d="M198.075 178.69C197.16 174.12 193.49 169.485 193.455 169.44L193.565 169.35C193.6 169.395 197.295 174.06 198.215 178.665L198.075 178.695V178.69Z" fill="#4D9372"/>
<path d="M187.685 160.375C187.6 161.31 187.395 162.87 187.12 164.76C187.09 164.975 187.055 165.19 187.025 165.41C186.085 171.81 184.485 181.4 184.015 184.195L184.295 184.245C184.745 181.555 186.25 172.535 187.2 166.145C187.24 165.885 187.275 165.635 187.315 165.385C187.63 163.225 187.875 161.43 187.97 160.395C188.095 159.03 188.485 158.205 189.13 157.94C190.165 157.515 191.56 158.675 191.575 158.685L191.76 158.465C191.7 158.415 190.22 157.185 189.025 157.675C188.275 157.985 187.825 158.89 187.69 160.37L187.685 160.375Z" fill="#209AA6"/>
<path d="M195.85 156.07C195.43 155.865 195.005 155.92 194.34 155.945C193.135 155.99 190.995 156.86 190.87 156.065C190.745 155.27 192.4 155.15 193.86 155.02C194.43 154.965 194.84 155.005 195.135 155.075C193.815 153.52 191.74 152.285 189.76 152.935C186.975 153.85 187.385 156.58 187.385 156.58C187.385 156.58 182.905 154.305 181.925 156.635C181.33 158.055 183.285 160.17 185.735 161.565C185.88 160.28 186.17 158.545 186.665 158.655C187.315 158.805 186.455 160.695 186.99 162.195C187.99 162.63 189.015 162.925 189.945 162.985C189.3 161.775 188.58 160.145 189.18 159.775C190.155 159.17 190.525 161.43 191.73 162.32C192.06 162.565 192.305 162.73 192.485 162.855C192.885 163.13 193.31 163.385 193.75 163.595C194.985 164.19 195.585 165.63 195.585 165.63C195.585 165.63 196.295 162.875 196.495 160.935C196.02 160.445 195.39 160.01 194.835 159.355C193.74 158.07 191.41 158.81 191.815 157.775C192.22 156.735 194.27 157.135 195.76 157.945C196.11 158.135 196.38 158.375 196.585 158.635C196.555 158.015 196.475 157.46 196.315 157.025C196.205 156.715 196.045 156.4 195.855 156.08L195.85 156.07ZM185.19 158.06C184.74 158.295 183.965 158.66 183.715 158.265C183.47 157.875 184.065 157.435 184.58 157.21C185.095 156.985 185.795 157.105 185.995 157.465C186.2 157.82 185.64 157.825 185.19 158.065V158.06ZM188.745 156.365C188.15 156.595 188.715 155.625 188.715 155.625C188.895 155.45 189.37 154.975 189.67 155.155C189.975 155.335 189.335 156.13 188.74 156.36L188.745 156.365Z" fill="#209AA6"/>
<path d="M184.695 184.73H184.405C184.47 183.455 184.68 178.72 184.495 172.895C184.44 171.195 184.04 170.15 183.295 169.795C183.27 169.78 183.24 169.765 183.21 169.755C183.145 169.73 183.075 169.705 183.005 169.69C181.305 169.29 178.685 171.835 178.66 171.86L178.46 171.655C178.575 171.545 181.145 169.05 182.995 169.395C183.095 169.415 183.19 169.44 183.285 169.48C183.3 169.48 183.31 169.485 183.32 169.49C184.235 169.86 184.725 171 184.78 172.885C184.96 178.695 184.76 183.425 184.69 184.73H184.695Z" fill="#209AA6"/>
<path d="M183.955 172.46C183.16 170.38 181.465 169.645 181.465 169.645C181.465 169.645 181.71 167.375 180.015 165.98C178.43 164.675 175.81 164.83 174.675 165.575C175.615 165.995 177.11 166.76 176.98 167.35C176.8 168.14 174.515 166.7 173.27 167.095C172.775 167.75 172.265 168.535 171.83 169.335C172.4 170.385 175.075 169.575 175.145 170.575C175.225 171.725 173.83 171.34 172.33 171.315C171.69 171.305 171.15 171.5 170.74 171.73C169.76 173.78 167.765 176.73 167.765 176.73C167.765 176.73 169.82 177.52 172.35 178.245C172.985 178.135 173.645 177.855 174.055 177.22C175.07 175.66 175.86 175.005 176.655 175.25C177.34 175.465 174.575 177.47 174.29 178.755C175.605 179.07 176.94 179.32 178.1 179.395C178.365 179.08 178.58 178.615 178.625 177.93C178.76 175.985 179.005 175.22 179.965 175.305C180.92 175.39 181.115 177.3 180.455 179.055C180.435 179.115 180.41 179.17 180.395 179.225C183.715 178.315 184.715 174.455 183.955 172.46ZM171.6 173.905C171.32 173.905 171.09 173.715 171.09 173.48C171.09 173.245 171.315 173.06 171.6 173.06C171.885 173.06 172.105 173.25 172.105 173.48C172.105 173.71 171.88 173.905 171.6 173.905ZM179.965 169.385C179.37 169.495 178.165 168.22 178.36 167.21C178.475 166.625 179.46 166.66 179.875 167.45C180.29 168.24 180.555 169.275 179.96 169.385H179.965ZM182.8 175.39C182.48 175.39 182.225 174.98 182.225 174.475C182.225 173.97 182.485 173.56 182.8 173.56C183.115 173.56 183.375 173.97 183.375 174.475C183.375 174.98 183.12 175.39 182.8 175.39Z" fill="#209AA6"/>
<path d="M170.245 175.88L170.2 175.745C172.22 175.1 174.44 173.82 176.225 172.795C176.785 172.475 177.31 172.17 177.77 171.92C179.68 170.885 181.14 169.955 181.155 169.945L181.23 170.065C181.23 170.065 179.755 171.005 177.835 172.045C177.375 172.295 176.85 172.6 176.29 172.92C174.5 173.95 172.27 175.235 170.235 175.885L170.245 175.88Z" fill="#4D9372"/>
<path d="M231.734 208.859C231.734 209.045 231.584 209.195 231.399 209.195H18.6013C18.4101 209.195 18.2563 209.035 18.2663 208.841C18.2751 208.66 18.4388 208.524 18.6201 208.524H231.399C231.584 208.524 231.734 208.674 231.734 208.859Z" fill="#1A7D87"/>
</svg>
