<svg width="250" height="250" viewBox="0 0 250 250" fill="none" xmlns="http://www.w3.org/2000/svg">
<path d="M118.695 45.9338C130.031 48.4763 135.233 57.9425 146.321 67.91C173.343 92.1975 194.6 82.645 206.396 97.6C224.579 120.65 210.525 189.551 158.949 211.574C117.278 229.368 64.6013 210.801 44.1525 168.241C21.1088 120.279 51.3125 67.4838 82.0088 51.6113C86.405 49.3388 107.36 43.3913 118.695 45.9338Z" fill="#ECF3FF"/>
<path d="M24.7463 160.757C22.3475 161.382 13.26 161.016 14.9963 156.532C16.9263 151.547 22.0775 155.905 24.2875 158.669C23.45 154.26 23.335 149.769 23.3475 147.365C21.7138 145.402 18.2625 132.93 25.0613 133.549C33.97 134.359 26.0775 146.164 24.025 147.504C24.0263 150.38 24.2175 156.08 25.52 161.025C25.7963 157.882 28.9313 148.944 33.0963 152.096C39.1388 156.669 27.5775 162.187 25.8238 162.092C26.3738 163.896 27.0875 165.56 28.0175 166.89C28.6875 167.847 29.4288 168.956 30.1963 170.162C30.21 170.177 30.2238 170.192 30.2363 170.206C30.6238 166.897 33.7125 158.4 37.79 161.485C43.4313 165.754 33.7288 170.847 30.9875 171.427C32.6875 174.192 34.4388 177.353 35.79 180.397C35.98 177.409 41.8438 171.3 44.1725 174.794C45.4713 176.741 38.5988 183.089 36.3338 181.666C37.6263 184.822 38.4038 187.772 38.1338 189.925C38.035 190.719 37.8888 191.655 37.7213 192.669C39.3275 190.894 45.1275 184.94 46.855 189.547C48.2875 193.367 43.5013 195.584 41.49 195.584C39.915 195.584 38.2463 194.094 37.5925 193.444C37.5 193.993 37.4025 194.557 37.3025 195.135C36.4925 199.835 35.5213 205.494 35.8075 208.897C37.1775 206.24 43.2975 195.174 46.855 202.29C48.68 205.939 43.5013 208.996 41.49 209.667C39.8388 210.217 36.8875 209.724 35.8788 209.527C35.935 209.911 36.0075 210.266 36.1075 210.567C37.4188 214.5 40.0663 218.496 40.0925 218.535C40.195 218.689 40.1538 218.897 40 219C39.9425 219.037 39.8788 219.056 39.8138 219.056C39.705 219.056 39.5988 219.004 39.535 218.907C39.5113 218.872 37.5438 215.9 36.135 212.529C34.555 212.33 28.4813 211.501 26.7363 210.337C24.7238 208.996 21.1225 204.589 24.0538 202.96C28.59 200.44 33.3475 207.139 35.4313 210.622C34.6563 208.022 35.3425 202.821 36.1488 197.936C34.525 198.422 29.2463 197.479 27.4075 196.254C25.395 194.912 21.9275 191.437 24.0538 189.547C29.385 184.809 35.0188 194.847 36.2613 197.256C36.3888 196.496 36.5175 195.747 36.6425 195.021C36.9788 193.074 37.295 191.234 37.4688 189.841C37.7188 187.842 36.9738 184.967 35.6463 181.742C34.5875 182.079 31.0063 183.067 27.0713 182.505C22.3763 181.834 19.9963 178.179 21.7063 176.469C24.6163 173.559 33.2163 179.587 35.4388 181.232C34.085 178.06 32.1888 174.581 30.1075 171.262C27.3713 171.896 16.4725 171.664 17.9475 167.335C19.4213 163.011 25.0013 165.92 28.28 168.456C28.01 168.057 27.74 167.66 27.4675 167.272C26.2263 165.5 25.3575 163.196 24.7463 160.756V160.757Z" fill="#1A7D87"/>
<path d="M225.254 160.757C227.653 161.382 236.74 161.016 235.004 156.532C233.074 151.547 227.923 155.905 225.713 158.669C226.55 154.26 226.665 149.769 226.653 147.365C228.286 145.402 231.738 132.93 224.939 133.549C216.03 134.359 223.923 146.164 225.975 147.504C225.974 150.38 225.783 156.08 224.48 161.025C224.204 157.882 221.069 148.944 216.904 152.096C210.861 156.669 222.423 162.187 224.176 162.092C223.626 163.896 222.913 165.56 221.983 166.89C221.313 167.847 220.571 168.956 219.804 170.162C219.79 170.177 219.776 170.192 219.764 170.206C219.376 166.897 216.288 158.4 212.21 161.485C206.569 165.754 216.271 170.847 219.013 171.427C217.313 174.192 215.561 177.353 214.21 180.397C214.02 177.409 208.156 171.3 205.828 174.794C204.529 176.741 211.401 183.089 213.666 181.666C212.374 184.822 211.596 187.772 211.866 189.925C211.965 190.719 212.111 191.655 212.279 192.669C210.673 190.894 204.873 184.94 203.145 189.547C201.713 193.367 206.499 195.584 208.51 195.584C210.085 195.584 211.754 194.094 212.408 193.444C212.5 193.993 212.598 194.557 212.698 195.135C213.508 199.835 214.479 205.494 214.194 208.897C212.824 206.24 206.704 195.174 203.146 202.29C201.321 205.939 206.5 208.996 208.511 209.667C210.163 210.217 213.114 209.724 214.123 209.527C214.066 209.911 213.994 210.266 213.894 210.567C212.583 214.5 209.935 218.496 209.909 218.535C209.806 218.689 209.848 218.897 210.001 219C210.059 219.037 210.123 219.056 210.188 219.056C210.296 219.056 210.403 219.004 210.466 218.907C210.49 218.872 212.458 215.9 213.866 212.529C215.446 212.33 221.52 211.501 223.265 210.337C225.278 208.996 228.879 204.589 225.948 202.96C221.411 200.44 216.654 207.139 214.57 210.622C215.345 208.022 214.659 202.821 213.853 197.936C215.476 198.422 220.755 197.479 222.594 196.254C224.606 194.912 228.074 191.437 225.948 189.547C220.616 184.809 214.983 194.847 213.74 197.256C213.613 196.496 213.484 195.747 213.359 195.021C213.023 193.074 212.706 191.234 212.533 189.841C212.283 187.842 213.028 184.967 214.355 181.742C215.414 182.079 218.995 183.067 222.93 182.505C227.625 181.834 230.005 178.179 228.295 176.469C225.385 173.559 216.785 179.587 214.563 181.232C215.916 178.06 217.813 174.581 219.894 171.262C222.63 171.896 233.529 171.664 232.054 167.335C230.58 163.011 225 165.92 221.721 168.456C221.991 168.057 222.261 167.66 222.534 167.272C223.775 165.5 224.644 163.196 225.255 160.756L225.254 160.757Z" fill="#1A7D87"/>
<path d="M205.826 202.291C200.196 200.039 198.82 208.655 198.524 211.481C197.284 207.36 196.758 202.346 197.318 198.264C198.174 198.243 201.495 198.086 203.815 196.926C206.498 195.585 208.153 190.214 205.828 189.549C201.921 188.433 198.481 195.206 197.436 197.514C197.528 196.993 197.638 196.489 197.769 196.009C198.625 192.87 199.245 188.825 199.514 184.85C200.573 184.83 203.526 184.728 205.159 184.184C207.171 183.513 210.578 178.259 207.841 177.478C204.071 176.4 200.735 181.809 199.568 183.981C199.794 179.835 199.623 175.845 198.918 173.126C199.219 171.931 199.794 169.396 199.794 167.418C199.794 164.735 196.68 159.454 193.758 162.053C188.418 166.799 196.42 172.346 198.339 173.564C198.988 176.241 199.13 180.108 198.898 184.118C197.699 181.1 192.855 170.243 187.051 175.466C184.823 177.473 189.734 182.173 193.088 183.514C195.754 184.58 198.03 184.806 198.851 184.854C198.581 188.759 197.966 192.739 197.123 195.833C196.97 196.394 196.846 196.988 196.746 197.603C195.475 195.038 189.558 184.129 183.028 188.879C180.315 190.851 185.71 195.585 188.393 196.926C190.695 198.078 195.383 198.138 196.665 198.133C196.108 202.2 196.611 207.178 197.819 211.353C195.849 208.371 190.088 200.719 185.709 205.645C183.111 208.568 189.836 211.045 191.745 211.681C193.426 212.241 197.021 212.409 198.16 212.449C199.114 215.329 200.413 217.72 201.926 218.981C201.989 219.034 202.065 219.059 202.141 219.059C202.238 219.059 202.333 219.018 202.399 218.939C202.518 218.796 202.498 218.585 202.356 218.466C200.911 217.263 199.674 214.981 198.761 212.225C199.634 211.861 202.173 210.766 203.818 209.669C205.83 208.328 208.943 203.536 205.83 202.291H205.826Z" fill="#1A7D87"/>
<path d="M231.399 218.388H18.6201C18.4388 218.388 18.2763 218.524 18.2663 218.705C18.2563 218.899 18.4101 219.058 18.6013 219.058H231.399C231.584 219.058 231.734 218.908 231.734 218.723C231.734 218.538 231.584 218.388 231.399 218.388Z" fill="#1A7D87"/>
<path d="M158.856 73.7587V181.392C158.856 184.565 155.538 187.136 151.445 187.136H95.9585C91.8647 187.136 88.5472 184.565 88.5472 181.392V73.7587C88.5472 70.5862 91.8647 68.0137 95.9585 68.0137H151.445C155.538 68.0137 158.856 70.585 158.856 73.7587Z" fill="white"/>
<path d="M158.856 172.724V181.391C158.856 184.564 155.539 187.135 151.445 187.135H95.9587C91.865 187.135 88.5475 184.564 88.5475 181.391V172.724H158.857H158.856Z" fill="#209AA6"/>
<path d="M158.856 73.7587V82.1162H88.5463V73.7587C88.5463 70.5862 91.8638 68.0137 95.9575 68.0137H151.444C155.538 68.0137 158.855 70.585 158.855 73.7587H158.856Z" fill="#209AA6"/>
<path d="M100.62 79.46C102.845 79.46 104.649 77.6562 104.649 75.4312C104.649 73.2062 102.845 71.4025 100.62 71.4025C98.395 71.4025 96.5913 73.2062 96.5913 75.4312C96.5913 77.6562 98.395 79.46 100.62 79.46Z" fill="#ECF3FF"/>
<path d="M93.2438 77.2687C93.2013 77.2687 93.1588 77.255 93.1238 77.225L91.2213 75.6375C91.1801 75.6025 91.1551 75.5512 91.1538 75.4975C91.1538 75.4425 91.1751 75.3912 91.2163 75.355L93.1188 73.6425C93.1963 73.5737 93.3138 73.58 93.3838 73.6562C93.4526 73.7337 93.4463 73.8512 93.3701 73.9212L91.6276 75.4887L93.3638 76.9375C93.4438 77.0037 93.4538 77.1225 93.3876 77.2012C93.3501 77.2462 93.2976 77.2687 93.2438 77.2687Z" fill="#ECF3FF"/>
<path d="M127.203 74.7812H107.358C106.805 74.7812 106.358 74.3338 106.358 73.7812C106.358 73.2287 106.805 72.7812 107.358 72.7812H127.203C127.755 72.7812 128.203 73.2287 128.203 73.7812C128.203 74.3338 127.755 74.7812 127.203 74.7812Z" fill="#ECF3FF"/>
<path d="M134.24 77.4562H107.141C106.934 77.4562 106.766 77.2887 106.766 77.0812C106.766 76.8737 106.934 76.7062 107.141 76.7062H134.24C134.448 76.7062 134.615 76.8737 134.615 77.0812C134.615 77.2887 134.448 77.4562 134.24 77.4562Z" fill="#ECF3FF"/>
<path d="M135.498 90.3513H98.6263C97.5024 90.3513 96.5913 91.2624 96.5913 92.3863V100.324C96.5913 101.448 97.5024 102.359 98.6263 102.359H135.498C136.621 102.359 137.533 101.448 137.533 100.324V92.3863C137.533 91.2624 136.621 90.3513 135.498 90.3513Z" fill="#ECF3FF"/>
<path d="M137.415 91.6437C137.415 91.6437 138.124 94.1375 139.608 93.885C139.083 95.2825 137.206 94.5112 137.206 94.5112L137.415 91.6437Z" fill="#ECF3FF"/>
<path d="M134.094 93.8388H107.536C107.404 93.8388 107.295 93.7313 107.295 93.5975C107.295 93.4638 107.403 93.3563 107.536 93.3563H134.094C134.226 93.3563 134.335 93.4638 134.335 93.5975C134.335 93.7313 134.228 93.8388 134.094 93.8388Z" fill="#514593"/>
<path d="M134.094 96.8863H102.503C102.37 96.8863 102.261 96.7787 102.261 96.645C102.261 96.5112 102.369 96.4037 102.503 96.4037H134.094C134.226 96.4037 134.335 96.5112 134.335 96.645C134.335 96.7787 134.228 96.8863 134.094 96.8863Z" fill="#514593"/>
<path d="M134.094 99.9325H102.503C102.37 99.9325 102.261 99.825 102.261 99.6913C102.261 99.5575 102.369 99.45 102.503 99.45H134.094C134.226 99.45 134.335 99.5575 134.335 99.6913C134.335 99.825 134.228 99.9325 134.094 99.9325Z" fill="#514593"/>
<path d="M150.813 95.1163C150.813 96.3725 150.326 97.515 149.531 98.3663C149.438 98.4688 149.338 98.5663 149.233 98.6575C149.063 98.8113 148.883 98.9538 148.69 99.0813C148.666 99.0975 148.64 99.1138 148.616 99.1288C148.501 99.2038 148.384 99.2738 148.263 99.3363C148.199 99.37 148.136 99.4013 148.071 99.4325C147.86 99.5313 147.64 99.615 147.414 99.6825C147.391 99.6913 147.369 99.6975 147.346 99.7013C146.958 99.8138 146.549 99.875 146.128 99.8813H146.125C146.105 99.8813 146.084 99.8813 146.064 99.8813H146.048C145.698 99.8813 145.358 99.8438 145.029 99.77C144.97 99.7563 144.911 99.7438 144.851 99.7275C144.621 99.6688 144.399 99.5925 144.183 99.5013C144.028 99.435 143.876 99.3613 143.733 99.28C143.606 99.21 143.484 99.1325 143.365 99.0525C143.326 99.0288 143.29 99.0025 143.254 98.975C143.244 98.9675 143.235 98.96 143.225 98.9538C143.104 98.8663 142.984 98.77 142.873 98.6663C141.898 97.7975 141.284 96.5275 141.284 95.1163C141.284 92.485 143.418 90.3513 146.049 90.3513C148.68 90.3513 150.814 92.485 150.814 95.1163H150.813Z" fill="#ECF3FF"/>
<path d="M135.498 140.29H98.6263C97.5024 140.29 96.5913 141.201 96.5913 142.325V147.786C96.5913 148.91 97.5024 149.821 98.6263 149.821H135.498C136.621 149.821 137.533 148.91 137.533 147.786V142.325C137.533 141.201 136.621 140.29 135.498 140.29Z" fill="#ECF3FF"/>
<path d="M137.415 141.581C137.415 141.581 138.124 144.075 139.608 143.822C139.083 145.22 137.206 144.449 137.206 144.449L137.415 141.581Z" fill="#ECF3FF"/>
<path d="M134.094 143.777H107.536C107.404 143.777 107.295 143.67 107.295 143.536C107.295 143.402 107.403 143.295 107.536 143.295H134.094C134.226 143.295 134.335 143.402 134.335 143.536C134.335 143.67 134.228 143.777 134.094 143.777Z" fill="#514593"/>
<path d="M134.094 146.824H102.503C102.37 146.824 102.261 146.716 102.261 146.583C102.261 146.449 102.369 146.341 102.503 146.341H134.094C134.226 146.341 134.335 146.449 134.335 146.583C134.335 146.716 134.228 146.824 134.094 146.824Z" fill="#514593"/>
<path d="M135.498 151.674H98.6263C97.5024 151.674 96.5913 152.585 96.5913 153.709V162.891C96.5913 164.015 97.5024 164.926 98.6263 164.926H135.498C136.621 164.926 137.533 164.015 137.533 162.891V153.709C137.533 152.585 136.621 151.674 135.498 151.674Z" fill="#ECF3FF"/>
<path d="M134.094 155.161H107.536C107.404 155.161 107.295 155.054 107.295 154.92C107.295 154.786 107.403 154.679 107.536 154.679H134.094C134.226 154.679 134.335 154.786 134.335 154.92C134.335 155.054 134.228 155.161 134.094 155.161Z" fill="#514593"/>
<path d="M134.094 158.207H102.503C102.37 158.207 102.261 158.1 102.261 157.966C102.261 157.832 102.369 157.725 102.503 157.725H134.094C134.226 157.725 134.335 157.832 134.335 157.966C134.335 158.1 134.228 158.207 134.094 158.207Z" fill="#514593"/>
<path d="M134.094 161.265H102.503C102.37 161.265 102.261 161.157 102.261 161.024C102.261 160.89 102.369 160.782 102.503 160.782H134.094C134.226 160.782 134.335 160.89 134.335 161.024C134.335 161.157 134.228 161.265 134.094 161.265Z" fill="#514593"/>
<path d="M150.813 145.055C150.813 146.311 150.326 147.454 149.531 148.305C149.438 148.407 149.338 148.505 149.233 148.596C149.063 148.75 148.883 148.892 148.69 149.02C148.666 149.036 148.64 149.052 148.616 149.067C148.501 149.142 148.384 149.212 148.263 149.275C148.199 149.309 148.136 149.34 148.071 149.371C147.86 149.47 147.64 149.554 147.414 149.621C147.391 149.63 147.369 149.636 147.346 149.64C146.958 149.752 146.549 149.814 146.128 149.82H146.125C146.105 149.82 146.084 149.82 146.064 149.82H146.048C145.698 149.82 145.358 149.782 145.029 149.709C144.97 149.695 144.911 149.682 144.851 149.666C144.621 149.607 144.399 149.531 144.183 149.44C144.028 149.374 143.876 149.3 143.733 149.219C143.606 149.149 143.484 149.071 143.365 148.991C143.326 148.967 143.29 148.941 143.254 148.914C143.244 148.906 143.235 148.899 143.225 148.892C143.104 148.805 142.984 148.71 142.873 148.605C141.898 147.736 141.284 146.466 141.284 145.055C141.284 142.424 143.418 140.29 146.049 140.29C148.68 140.29 150.814 142.424 150.814 145.055H150.813Z" fill="#ECF3FF"/>
<path d="M96.475 131.955H148.778C149.901 131.955 150.812 131.044 150.812 129.92V110.978C150.812 109.854 149.901 108.943 148.778 108.943H96.475C95.3511 108.943 94.44 109.854 94.44 110.978V129.92C94.44 131.044 95.3511 131.955 96.475 131.955Z" fill="#ECF3FF"/>
<path d="M94.655 110.235C94.655 110.235 93.9463 112.729 92.4625 112.476C92.9875 113.874 94.8638 113.102 94.8638 113.102L94.655 110.235Z" fill="#ECF3FF"/>
<path d="M137.165 111.949H98.7026C98.5693 111.949 98.4613 112.057 98.4613 112.19C98.4613 112.323 98.5693 112.431 98.7026 112.431H137.165C137.298 112.431 137.406 112.323 137.406 112.19C137.406 112.057 137.298 111.949 137.165 111.949Z" fill="#514593"/>
<path d="M98.7026 115.477H144.548C144.68 115.477 144.789 115.37 144.789 115.236C144.789 115.104 144.681 114.995 144.548 114.995H98.7026C98.5701 114.995 98.4613 115.102 98.4613 115.236C98.4613 115.369 98.5688 115.477 98.7026 115.477Z" fill="#514593"/>
<path d="M144.546 118.043H98.7026C98.5693 118.043 98.4613 118.151 98.4613 118.284C98.4613 118.417 98.5693 118.525 98.7026 118.525H144.546C144.68 118.525 144.788 118.417 144.788 118.284C144.788 118.151 144.68 118.043 144.546 118.043Z" fill="#514593"/>
<path d="M144.546 121.089H98.7026C98.5693 121.089 98.4613 121.197 98.4613 121.33C98.4613 121.463 98.5693 121.571 98.7026 121.571H144.546C144.68 121.571 144.788 121.463 144.788 121.33C144.788 121.197 144.68 121.089 144.546 121.089Z" fill="#514593"/>
<path d="M98.38 124.618H133.416C133.549 124.618 133.658 124.51 133.658 124.376V124.135H98.38V124.618Z" fill="#514593"/>
<path d="M146.635 184.107H100.769C98.4613 184.107 96.5913 182.237 96.5913 179.93C96.5913 177.622 98.4613 175.753 100.769 175.753H146.635C148.943 175.753 150.813 177.622 150.813 179.93C150.813 182.237 148.943 184.107 146.635 184.107Z" fill="white"/>
<path d="M146.181 182.794C147.763 182.794 149.045 181.512 149.045 179.93C149.045 178.348 147.763 177.066 146.181 177.066C144.6 177.066 143.318 178.348 143.318 179.93C143.318 181.512 144.6 182.794 146.181 182.794Z" fill="#209AA6"/>
<path d="M200.939 213.191L196.286 213.064L194.981 208.836L194.556 207.457L192.584 201.066L198.634 200.494L199.637 206.025L199.976 207.89L200.939 213.191Z" fill="#FFC5CD"/>
<path d="M199.976 207.89C199.554 208.075 198.889 208.295 197.839 208.531C196.44 208.846 195.538 208.881 194.981 208.836L194.556 207.457L199.638 206.025L199.976 207.89Z" fill="#D6798E"/>
<path d="M181.505 211.736L176.861 212.055L175.826 207.557L175.494 206.116L174.157 200.31L180.277 200.116C180.277 200.116 180.367 202.53 180.555 205.171C180.601 205.81 180.654 206.464 180.711 207.1C180.906 209.242 181.169 211.186 181.505 211.736Z" fill="#FFC5CD"/>
<path d="M180.711 207.1C180.213 207.249 179.43 207.428 178.248 207.579C177.129 207.723 176.35 207.668 175.826 207.558L175.494 206.116L180.555 205.171C180.601 205.81 180.654 206.464 180.711 207.1Z" fill="#D6798E"/>
<path d="M176.944 210.44L173.532 212.612L175.941 215.324L182.051 212.751C182.051 212.751 181.305 211.537 181.292 211.075C181.28 210.614 176.942 210.439 176.942 210.439L176.944 210.44Z" fill="#FFC5CD"/>
<path d="M183.263 215.251L166.718 216.851C167.391 215.381 169.694 214.684 170.848 214.286C172.344 213.769 174.354 211.017 174.354 211.017C175.498 211.281 175.853 213.114 175.853 213.114C175.853 213.114 176.188 213.454 178.479 213.269C180.771 213.084 180.973 211.864 181.745 211.765C182.241 211.701 183.263 215.254 183.263 215.254V215.251Z" fill="#209AA6"/>
<path d="M183.263 215.261L183.373 216.411C183.391 216.611 183.245 216.79 183.044 216.809L166.62 218.387C166.458 217.797 166.514 217.29 166.716 216.851L183.261 215.261H183.263Z" fill="#514593"/>
<path d="M172.106 215.23C172.053 215.235 171.998 215.217 171.956 215.177L170.815 214.056C170.741 213.984 170.74 213.865 170.813 213.791C170.885 213.717 171.004 213.716 171.078 213.789L172.219 214.91C172.293 214.982 172.294 215.101 172.221 215.175C172.189 215.207 172.148 215.226 172.105 215.23H172.106Z" fill="#514593"/>
<path d="M173.348 214.57C173.294 214.575 173.239 214.557 173.198 214.517L172.056 213.396C171.983 213.324 171.981 213.205 172.054 213.131C172.126 213.057 172.245 213.056 172.319 213.129L173.46 214.25C173.534 214.322 173.535 214.441 173.463 214.515C173.43 214.547 173.389 214.566 173.346 214.57H173.348Z" fill="#514593"/>
<path d="M198.426 140.529C198.426 140.529 197.144 143.198 195.271 147.096C193.131 151.553 190.22 157.618 187.57 163.144C185.841 166.751 184.224 170.128 183.006 172.68C181.76 175.289 180.93 177.036 180.823 177.289C180.305 178.496 183.508 204.451 182.776 205.079C182.438 205.369 181.994 205.613 181.48 205.818C178.57 206.976 173.436 206.866 172.759 206.646C171.961 206.388 167.403 180.906 166.594 176.291C166.04 173.13 172.395 153.501 175.564 144.013C175.955 142.838 176.299 141.819 176.574 141.006C177.026 139.668 177.296 138.885 177.296 138.885L188.338 139.744L197.248 140.438H197.251L198.426 140.529Z" fill="#514593"/>
<path d="M182.776 205.079C182.438 205.369 181.994 205.612 181.48 205.817C180.1 192.43 178.856 182.221 178.625 179.37C178.396 176.546 180.003 174.701 181.036 172.724C182.07 170.745 183.443 163.799 183.443 163.799L187.57 163.144C184.075 170.435 181.036 176.79 180.823 177.289C180.305 178.496 183.508 204.451 182.776 205.079Z" fill="#413991"/>
<path d="M196.522 211.464L192.919 213.3L195.057 216.229L201.386 214.253C201.386 214.253 200.76 212.972 200.791 212.512C200.822 212.052 196.522 211.464 196.522 211.464Z" fill="#FFC5CD"/>
<path d="M202.352 216.859L185.731 216.867C186.542 215.469 188.901 214.995 190.087 214.709C191.626 214.337 193.89 211.79 193.89 211.79C195.004 212.161 195.181 214.02 195.181 214.02C195.181 214.02 195.482 214.39 197.781 214.426C200.08 214.461 200.399 213.266 201.177 213.241C201.677 213.225 202.354 216.859 202.354 216.859H202.352Z" fill="#209AA6"/>
<path d="M202.352 216.867V218.023C202.352 218.224 202.189 218.387 201.987 218.387H185.487C185.382 217.785 185.487 217.285 185.73 216.867H202.351H202.352Z" fill="#514593"/>
<path d="M191.249 215.769C191.195 215.769 191.143 215.746 191.105 215.701L190.076 214.476C190.01 214.398 190.02 214.279 190.099 214.213C190.178 214.146 190.296 214.156 190.363 214.235L191.391 215.46C191.458 215.539 191.448 215.658 191.369 215.724C191.334 215.754 191.291 215.768 191.249 215.768V215.769Z" fill="#514593"/>
<path d="M192.549 215.231C192.495 215.231 192.442 215.209 192.405 215.164L191.376 213.939C191.31 213.86 191.32 213.741 191.399 213.675C191.479 213.609 191.596 213.619 191.662 213.697L192.691 214.922C192.757 215.001 192.747 215.12 192.669 215.186C192.634 215.216 192.591 215.23 192.549 215.23V215.231Z" fill="#514593"/>
<path d="M196.761 177.37C196.491 179.47 202.211 205.469 201.82 205.935C201.717 206.056 201.026 206.317 200.04 206.626C197.245 207.501 192.09 208.762 191.331 208.341C190.306 207.771 183.506 182.2 182.859 179.807C182.697 179.21 182.785 176.464 183.006 172.68C183.445 165.219 184.407 153.724 185.017 146.712C185.289 143.581 185.491 141.344 185.544 140.759C185.552 140.659 185.557 140.607 185.557 140.607C185.557 140.607 186.692 140.239 188.337 139.744C191.947 138.657 198.016 136.964 199.941 137.231C201.537 137.452 202.771 138.426 203.535 140.105C203.559 140.156 203.581 140.209 203.602 140.262C204.137 141.509 204.422 143.121 204.422 145.086C204.422 145.471 204.384 145.96 204.31 146.535C203.387 153.881 197.012 175.422 196.761 177.37Z" fill="#514593"/>
<path d="M201.82 205.935C201.717 206.056 201.026 206.317 200.04 206.626C197.842 199.809 194.306 179.986 194.192 177.706C194.06 175.076 198.892 160.15 200.887 152.392C202.882 144.634 200.555 142.306 200.555 142.306L203.535 140.105C204.112 141.371 204.422 143.037 204.422 145.086C204.422 150.389 197.032 175.27 196.761 177.37C196.491 179.47 202.211 205.469 201.82 205.935Z" fill="#413991"/>
<path d="M182.883 172.724C182.815 172.717 182.765 172.657 182.77 172.59L184.582 148.856C184.587 148.787 184.647 148.736 184.716 148.741C184.784 148.745 184.836 148.806 184.831 148.875L183.019 172.609C183.014 172.677 182.954 172.729 182.885 172.724C182.885 172.724 182.884 172.724 182.883 172.724Z" fill="#2E234F"/>
<path d="M195.939 154.486C191.103 154.017 189.194 149.817 189.175 149.775C189.148 149.712 189.175 149.639 189.239 149.61C189.301 149.582 189.375 149.61 189.404 149.674C189.423 149.715 191.276 153.782 195.963 154.237C196.01 154.242 196.058 154.246 196.105 154.25C196.174 154.254 196.225 154.316 196.22 154.385C196.215 154.454 196.154 154.505 196.085 154.5C196.036 154.496 195.988 154.491 195.939 154.487V154.486Z" fill="#2E234F"/>
<path d="M204.422 145.086C204.422 145.471 204.384 145.96 204.31 146.535C202.151 146.745 198.874 147.007 195.271 147.096C191.92 147.179 188.289 147.111 185.017 146.712C179.106 145.991 176.606 144.802 175.564 144.012C175.955 142.837 176.299 141.819 176.574 141.006L185.544 140.759L197.247 140.437H197.251L203.602 140.262C204.137 141.509 204.422 143.121 204.422 145.086Z" fill="#413991"/>
<path d="M184.3 154.165C184.269 154.162 184.239 154.147 184.216 154.121L183.505 153.277C182.854 152.505 182.52 151.522 182.566 150.512L182.791 145.609C182.795 145.54 182.852 145.486 182.921 145.49C182.99 145.494 183.044 145.551 183.04 145.62L182.815 150.524C182.771 151.471 183.084 152.391 183.695 153.116L184.406 153.96C184.451 154.012 184.444 154.091 184.391 154.136C184.365 154.159 184.331 154.169 184.299 154.165H184.3Z" fill="#2E234F"/>
<path d="M179.454 117.066L177.489 121.47L176.254 124.24L173.604 130.181C172.776 132.036 170.38 132.545 168.87 131.186L153.734 117.569L155.726 114.946C155.726 114.946 168.765 124.161 169.299 123.929C169.463 123.055 169.721 122.076 170.009 121.119C170.185 120.532 170.371 119.955 170.555 119.414C171.148 117.656 171.699 116.285 171.699 116.285L179.454 117.066Z" fill="#FFC5CD"/>
<path d="M177.489 121.47L176.254 124.24C175.293 124.059 173.803 123.698 172.426 123.033C171.085 122.384 170.37 121.629 170.009 121.119C170.185 120.533 170.371 119.955 170.555 119.414L177.489 121.47Z" fill="#D6798E"/>
<path d="M184.552 108.639C184.49 109.27 183.787 111.091 182.859 113.237C181.024 117.47 178.306 122.967 177.869 123.114C177.609 123.2 177.127 123.211 176.515 123.144C175.571 123.04 174.316 122.75 173.082 122.265C171.05 121.464 169.761 119.706 169.679 119.016C169.627 118.582 172.759 108.979 173.582 106.44C174.406 103.902 177.604 102.451 180.459 101.061C180.459 101.061 181.289 101.802 182.827 102.787C184.367 103.774 184.737 106.76 184.552 108.639Z" fill="#209AA6"/>
<path d="M147.856 107.635C148.059 107.57 148.104 108.059 148.581 108.289C149.06 108.519 151.026 109.069 151.51 110.074C151.994 111.079 154.15 113.721 154.433 114C154.715 114.279 157.17 115.964 157.17 115.964L154.924 118.642C154.924 118.642 152.394 116.377 152.251 116.261C152.108 116.145 149.434 114.657 148.613 114.449C148.283 114.365 147.598 113.821 147.415 113.575C147.233 113.329 146.978 113.335 146.854 113.006C146.729 112.677 146.788 112.502 146.723 112.207C146.676 111.996 146.414 111.92 146.424 111.477C146.434 111.035 146.73 111.077 146.795 110.929C146.859 110.78 146.666 110.545 146.771 110.305C146.875 110.065 147.169 110.025 147.243 109.879C147.299 109.767 145.139 108.014 144.415 107.061C144.188 106.761 144.546 106.294 144.883 106.471C145.89 107.002 147.811 108.827 147.764 108.779C147.593 108.606 147.478 107.757 147.856 107.635Z" fill="#FFC5CD"/>
<path d="M150.083 110.795C149.78 110.572 147.745 109.904 147.514 109.829C147.455 109.81 147.391 109.841 147.371 109.901C147.353 109.96 147.384 110.024 147.444 110.044C148.338 110.335 149.741 110.825 149.949 110.977C150.101 111.09 150.241 111.3 150.211 111.456C150.193 111.555 150.101 111.626 149.939 111.669C149.893 111.681 149.833 111.685 149.763 111.681C149.745 111.676 149.728 111.675 149.71 111.679C149.054 111.627 147.61 111.092 147.039 110.861C146.981 110.837 146.915 110.866 146.891 110.924C146.868 110.981 146.896 111.047 146.954 111.071C147.17 111.159 148.861 111.835 149.693 111.901C149.893 112.05 149.994 112.205 149.976 112.34C149.961 112.46 149.849 112.569 149.678 112.632C149.613 112.656 149.493 112.66 149.339 112.649C149.334 112.647 149.331 112.646 149.326 112.645C149.309 112.64 149.293 112.641 149.275 112.645C148.585 112.58 147.32 112.257 146.986 112.147C146.928 112.127 146.864 112.16 146.844 112.219C146.824 112.277 146.856 112.341 146.915 112.361C147.056 112.409 148.47 112.802 149.283 112.869C149.521 112.941 149.62 113.099 149.631 113.226C149.641 113.347 149.579 113.456 149.469 113.509C149.235 113.619 148.273 113.547 147.721 113.476C147.66 113.469 147.603 113.512 147.595 113.574C147.588 113.635 147.631 113.692 147.693 113.7C147.845 113.72 149.195 113.887 149.565 113.712C149.596 113.697 149.625 113.681 149.651 113.661C149.794 113.557 149.873 113.387 149.856 113.207C149.846 113.096 149.796 112.97 149.696 112.862C149.718 112.857 149.738 112.852 149.755 112.846C149.836 112.816 149.909 112.777 149.97 112.732C150.1 112.637 150.181 112.512 150.2 112.371C150.216 112.249 150.189 112.076 150.011 111.885C150.115 111.856 150.194 111.817 150.254 111.774C150.369 111.69 150.415 111.586 150.431 111.501C150.48 111.245 150.293 110.954 150.081 110.797L150.083 110.795Z" fill="#D6798E"/>
<path d="M148.535 109.622C148.595 109.666 148.625 109.735 148.661 109.816C148.72 109.947 148.792 110.111 149.016 110.187C149.052 110.2 149.091 110.192 149.119 110.171C149.136 110.157 149.151 110.139 149.159 110.116C149.179 110.057 149.147 109.994 149.089 109.972C148.959 109.929 148.919 109.837 148.867 109.724C148.825 109.627 148.776 109.517 148.667 109.439C148.334 109.196 148.039 108.935 148.036 108.932C147.99 108.891 147.919 108.895 147.877 108.941C147.836 108.987 147.84 109.059 147.886 109.1C147.899 109.111 148.191 109.371 148.535 109.62V109.622Z" fill="#D6798E"/>
<path d="M182.859 113.237C181.024 117.47 178.306 122.967 177.869 123.114C177.609 123.2 177.128 123.211 176.515 123.144C176.106 121.291 175.245 118.957 174.976 116.589C174.604 113.301 176.038 110.509 176.038 110.509L180.723 105.731L182.859 113.237Z" fill="#1A7D87"/>
<path d="M206.739 143.491C206.345 143.811 204.343 144.055 202.911 144.324C199.675 144.933 192.761 145.266 188.176 144.934C182.105 144.493 175.003 142.705 174.841 141.823C174.681 140.94 177.803 136.575 178.284 133.526C178.499 132.163 178.21 129.435 177.773 126.439C177.705 125.974 177.634 125.501 177.56 125.026C177.049 121.723 176.43 118.304 176.159 116.159C175.598 111.723 176.411 104.269 177.384 103.144C178.356 102.02 182.655 99.4213 187.11 99.15C192.785 98.805 196.301 100.1 199.928 102.578C200.481 102.956 201.009 104.09 201.503 105.744C204.245 114.933 207.826 142.608 206.739 143.491Z" fill="#209AA6"/>
<path d="M194.487 91.7776C195.654 89.7551 195.317 87.3742 193.733 86.4598C192.15 85.5454 189.919 86.4438 188.751 88.4664C187.584 90.489 187.921 92.8698 189.505 93.7842C191.088 94.6986 193.319 93.8002 194.487 91.7776Z" fill="#2E234F"/>
<path d="M181.402 86.7512C183.15 86.7512 184.567 85.3342 184.567 83.5862C184.567 81.8382 183.15 80.4212 181.402 80.4212C179.654 80.4212 178.237 81.8382 178.237 83.5862C178.237 85.3342 179.654 86.7512 181.402 86.7512Z" fill="#2E234F"/>
<path d="M190.953 99.2237C190.813 101.034 187.145 104.609 185.446 104.005C183.749 103.402 183.339 101.87 183.664 100.616C183.689 100.52 183.709 100.406 183.724 100.277C183.899 98.75 183.385 95.2312 183.385 95.2312C183.385 95.2312 184.151 94.3225 185.183 93.1987C187.153 91.05 190.286 87.9387 190.683 89.0662C191.286 90.7837 191.091 97.4137 190.953 99.2237Z" fill="#FFC5CD"/>
<path d="M189.281 94.9637C189.281 94.9637 187.818 99.3337 183.724 100.277C183.899 98.75 183.385 95.2312 183.385 95.2312C183.385 95.2312 184.151 94.3225 185.183 93.1987L189.281 94.9637Z" fill="#D6798E"/>
<path d="M191.019 93.0375C190.074 94.94 184.481 98.6525 182.784 98.3412C181.087 98.03 179.439 94.3987 179.176 93.5612C178.912 92.725 179.202 87.635 179.176 86.7275C179.176 86.7175 179.176 86.7062 179.176 86.6962C179.171 86.4875 179.171 86.285 179.176 86.0875C179.214 84.3375 179.617 83 180.025 82.085C180.436 81.1587 181.342 80.5475 182.356 80.5162C188.112 80.3425 190.197 82.9125 191.486 85.3487C192.879 87.9812 191.02 93.0375 191.02 93.0375H191.019Z" fill="#FFC5CD"/>
<path d="M185.076 89.2887C185.076 89.8912 184.849 90.3812 184.567 90.3812C184.286 90.3812 184.059 89.8925 184.059 89.2887C184.059 88.685 184.286 88.1962 184.567 88.1962C184.849 88.1962 185.076 88.685 185.076 89.2887Z" fill="#2E234F"/>
<path d="M179.897 89.275C179.897 89.8037 179.685 90.2312 179.424 90.2312C179.162 90.2312 178.95 89.8025 178.95 89.275C178.95 88.7475 179.162 88.3187 179.424 88.3187C179.685 88.3187 179.897 88.7475 179.897 89.275Z" fill="#2E234F"/>
<path d="M186.028 87.1112C186.073 87.1825 185.998 87.2687 185.92 87.2337C185.618 87.0962 185.091 86.8787 184.74 86.8687C184.223 86.8525 183.738 86.94 183.683 86.8375C183.626 86.7337 183.889 86.185 184.813 86.2725C185.445 86.3325 185.841 86.815 186.029 87.1125L186.028 87.1112Z" fill="#2E234F"/>
<path d="M180.171 86.8775C180.097 86.965 179.665 86.79 179.174 86.695C179.169 86.4862 179.169 86.2837 179.174 86.0862C179.177 86.0862 179.182 86.0862 179.186 86.0862C180.106 86.195 180.247 86.7875 180.171 86.8762V86.8775Z" fill="#2E234F"/>
<path d="M180.453 93.0875C180.253 93.0875 180.079 93.0363 179.966 92.9C179.669 92.54 180.11 91.0288 180.718 89.0888C180.871 88.5988 181.004 88.175 181.056 87.9513C181.071 87.8838 181.139 87.8425 181.206 87.8575C181.274 87.8725 181.315 87.94 181.3 88.0075C181.246 88.2413 181.111 88.6688 180.956 89.1638C180.621 90.2325 179.925 92.4563 180.159 92.74C180.395 93.025 181.349 92.6288 181.775 92.3913C181.835 92.3575 181.911 92.3788 181.945 92.44C181.979 92.5 181.958 92.5763 181.896 92.61C181.784 92.6725 181.019 93.0863 180.453 93.0875Z" fill="#D6798E"/>
<path d="M183.13 95.2312C182.88 95.2312 182.639 95.15 182.406 94.9862C182.006 94.705 181.755 94.2637 181.666 94.0862C181.644 94.0437 181.633 94.015 181.633 94.015C181.619 93.9825 181.62 93.945 181.635 93.9137C181.65 93.8825 181.677 93.8575 181.712 93.8475L184.864 92.91C184.901 92.9 184.941 92.9062 184.973 92.93C185.004 92.9537 185.023 92.99 185.023 93.0287C185.023 93.0537 185.024 93.6362 184.715 94.2062C184.436 94.7212 183.999 95.0537 183.416 95.195C183.32 95.2187 183.224 95.23 183.13 95.23V95.2312ZM181.928 94.045C182.024 94.22 182.24 94.5637 182.551 94.7812C182.809 94.9625 183.081 95.02 183.359 94.9525C183.87 94.8287 184.252 94.5375 184.496 94.0875C184.679 93.75 184.741 93.4012 184.762 93.2012L181.929 94.045H181.928Z" fill="#EA5F61"/>
<path d="M184.897 93.0312C184.897 93.0312 184.902 93.6 184.605 94.1475C184.392 94.5387 184.024 94.92 183.386 95.075C183.031 95.1625 182.725 95.0588 182.477 94.885C182.1 94.62 181.857 94.19 181.776 94.0312C181.756 93.9925 181.746 93.9688 181.746 93.9688L184.875 93.0375L184.895 93.0312H184.897Z" fill="#911E26"/>
<path d="M184.878 93.0375C184.559 93.305 183.661 94.0175 183.011 94.1875C182.464 94.33 182.011 94.1562 181.779 94.0312C181.759 93.9925 181.749 93.9687 181.749 93.9687L184.878 93.0375Z" fill="white"/>
<path d="M184.606 94.1475C184.394 94.5387 184.025 94.92 183.388 95.075C183.033 95.1625 182.726 95.0587 182.479 94.885C182.718 94.68 183.124 94.375 183.543 94.2662C183.904 94.1737 184.313 94.15 184.605 94.1475H184.606Z" fill="#CB4B51"/>
<path d="M182.664 85.2507C185.29 84.7947 187.049 82.2961 186.593 79.67C186.137 77.0438 183.638 75.2845 181.012 75.7405C178.386 76.1965 176.627 78.695 177.083 81.3212C177.539 83.9474 180.037 85.7067 182.664 85.2507Z" fill="#2E234F"/>
<path d="M188.695 86.0314C190.789 85.6975 192.215 83.7297 191.881 81.636C191.547 79.5424 189.58 78.1158 187.486 78.4497C185.392 78.7835 183.966 80.7514 184.3 82.845C184.633 84.9386 186.601 86.3652 188.695 86.0314Z" fill="#2E234F"/>
<path d="M190.95 79.842C191.264 77.797 189.861 75.8844 187.816 75.57C185.771 75.2556 183.859 76.6585 183.544 78.7035C183.23 80.7485 184.633 82.6611 186.678 82.9755C188.723 83.2899 190.635 81.887 190.95 79.842Z" fill="#2E234F"/>
<path d="M193.729 84.0678C195.034 83.3623 195.519 81.733 194.814 80.4287C194.108 79.1244 192.479 78.639 191.174 79.3445C189.87 80.0501 189.385 81.6793 190.09 82.9836C190.796 84.2879 192.425 84.7733 193.729 84.0678Z" fill="#2E234F"/>
<path d="M192.455 79.6178C192.643 78.8146 192.144 78.0109 191.341 77.8228C190.538 77.6347 189.734 78.1334 189.546 78.9366C189.358 79.7399 189.857 80.5435 190.66 80.7316C191.463 80.9197 192.267 80.4211 192.455 79.6178Z" fill="#2E234F"/>
<path d="M194.953 88.1873C196.526 86.8109 196.928 84.6964 195.85 83.4645C194.772 82.2325 192.623 82.3496 191.05 83.726C189.476 85.1024 189.075 87.2168 190.152 88.4488C191.23 89.6807 193.379 89.5637 194.953 88.1873Z" fill="#2E234F"/>
<path d="M192.449 87.6213C193.499 88.2525 193.002 90.71 191.566 91.44C191.152 91.65 190.074 90.0063 190.307 89.0588C190.541 88.1113 191.206 86.875 192.449 87.6213Z" fill="#FFC5CD"/>
<path d="M189.706 85.7188C189.706 85.7188 187.502 88.8275 190.387 90.1225C190.387 90.1225 190.234 88.5063 190.865 87.8525L189.706 85.7188Z" fill="#2E234F"/>
<path d="M190.864 89.57C190.864 89.57 190.854 89.57 190.847 89.57C190.779 89.5613 190.73 89.4988 190.739 89.43C190.837 88.6575 191.059 88.15 191.396 87.9213C191.642 87.7538 191.856 87.8025 191.88 87.8075C191.947 87.825 191.987 87.8925 191.97 87.96C191.952 88.0263 191.886 88.0663 191.82 88.05C191.811 88.0488 191.684 88.0238 191.529 88.1338C191.342 88.265 191.097 88.6025 190.987 89.4625C190.98 89.525 190.925 89.5713 190.864 89.5713V89.57Z" fill="#D6798E"/>
<path d="M183.347 92.9175C182.056 92.9175 181.005 91.3538 181.005 89.4325C181.005 87.5113 182.055 85.9475 183.347 85.9475C184.64 85.9475 185.69 87.5113 185.69 89.4325C185.69 91.3538 184.64 92.9175 183.347 92.9175ZM183.347 86.1975C182.194 86.1975 181.255 87.6488 181.255 89.4325C181.255 91.2163 182.194 92.6675 183.347 92.6675C184.501 92.6675 185.44 91.2163 185.44 89.4325C185.44 87.6488 184.501 86.1975 183.347 86.1975Z" fill="#2E234F"/>
<path d="M178.592 91.7712C177.564 91.7712 176.726 90.4 176.726 88.715C176.726 87.03 177.564 85.6588 178.592 85.6588C179.621 85.6588 180.459 87.03 180.459 88.715C180.459 90.4 179.621 91.7712 178.592 91.7712ZM178.592 85.91C177.701 85.91 176.976 87.1687 176.976 88.7162C176.976 90.2637 177.701 91.5225 178.592 91.5225C179.484 91.5225 180.209 90.2637 180.209 88.7162C180.209 87.1687 179.484 85.91 178.592 85.91Z" fill="#2E234F"/>
<path d="M181.131 89.32C181.112 89.32 181.092 89.315 181.075 89.3063C181.067 89.3025 180.691 89.1175 180.365 89.2588C180.301 89.2863 180.227 89.2575 180.2 89.1938C180.172 89.13 180.201 89.0563 180.265 89.0288C180.702 88.8388 181.169 89.0725 181.187 89.0825C181.249 89.1138 181.274 89.1888 181.241 89.2513C181.219 89.295 181.175 89.3188 181.13 89.3188L181.131 89.32Z" fill="#2E234F"/>
<path d="M190.275 89.5575H185.565C185.496 89.5575 185.44 89.5012 185.44 89.4325C185.44 89.3637 185.496 89.3075 185.565 89.3075H190.275C190.344 89.3075 190.4 89.3637 190.4 89.4325C190.4 89.5012 190.344 89.5575 190.275 89.5575Z" fill="#2E234F"/>
<path d="M206.739 143.491C206.345 143.811 204.343 144.055 202.911 144.324C203.745 140.71 202.086 132.152 201.124 131.121C200.061 129.984 185.685 126.796 183.845 127.456C182.005 128.115 179.644 126.657 178.885 126.449C178.564 126.361 178.146 126.382 177.773 126.439C177.705 125.974 177.634 125.501 177.56 125.026C178.2 123.635 178.479 121.024 179.244 119.824C179.685 119.132 180.733 119.34 180.959 119.415C181.843 119.707 183.914 120.896 186.34 121.714C188.766 122.53 196.118 122.2 197.023 122.275C197.928 122.35 198.218 122.091 196.045 119.159C193.871 116.225 193.313 111.249 193.313 111.249L201.503 105.744C204.245 114.932 207.826 142.607 206.739 143.491Z" fill="#1A7D87"/>
<path d="M206.113 129.794L186.148 126.162L186.334 122.85C186.334 122.85 197.963 123.187 201.644 123.392C201.681 123.395 201.604 123.252 201.439 122.995C201.229 122.662 200.876 122.136 200.445 121.481C199.115 119.456 197.051 116.195 196.193 113.579L205.644 115.957L206.883 119.076L207.695 121.124L209.498 125.661C210.384 127.89 208.473 130.224 206.113 129.794Z" fill="#FFC5CD"/>
<path d="M178.686 115.404H174.981C174.583 115.406 174.259 115.729 174.259 116.129L174.263 125.179C174.263 125.577 174.586 125.901 174.985 125.901H178.69C179.089 125.899 179.413 125.576 179.413 125.176L179.409 116.126C179.409 115.728 179.085 115.404 178.686 115.404Z" fill="#FF6483"/>
<path d="M175.738 116.544C175.738 116.846 175.493 117.091 175.19 117.092C174.888 117.092 174.643 116.847 174.641 116.545C174.64 116.242 174.886 115.997 175.189 115.996C175.491 115.996 175.736 116.241 175.738 116.544Z" fill="#2E234F"/>
<path d="M175.577 117.913C175.577 118.126 175.404 118.3 175.19 118.3C174.976 118.3 174.802 118.126 174.802 117.913C174.802 117.699 174.976 117.525 175.19 117.525C175.404 117.525 175.577 117.699 175.577 117.913Z" fill="#2E234F"/>
<path d="M188.178 122.906C186.618 122.901 184.178 122.389 183.71 121.737C183.451 121.379 181.294 119.664 179.411 118.199V119.885C179.648 120.122 179.876 120.322 180.09 120.465C180.054 120.71 178.848 120.457 178.114 120.099C177.733 119.912 175.854 119.12 174.141 118.404C173.603 118.179 173.169 118.886 173.613 119.265L178.32 121.729L172.884 120.932C172.315 120.849 172.05 121.614 172.549 121.9L177.805 123.08L172.983 123.472C172.373 123.522 172.279 124.376 172.863 124.557L178.113 124.651L174.571 125.902C174.135 126.056 174.299 126.712 174.755 126.64C174.769 126.637 174.781 126.636 174.795 126.634C176.655 126.329 178.559 125.751 178.724 125.81C179.008 125.911 180.781 126.366 182.711 126.1C184.528 125.849 186.961 126.245 187.59 126.426L188.178 122.906Z" fill="#FFC5CD"/>
<path d="M207.695 121.124C207.234 121.427 206.436 121.86 205.085 122.396C203.465 123.039 202.21 123.077 201.439 122.995C201.229 122.662 200.876 122.136 200.445 121.481L206.883 119.076L207.695 121.124Z" fill="#D6798E"/>
<path d="M196.214 100.492C199.475 101.952 201.477 103.077 202.455 104.776C204.041 107.531 208.551 118.081 208.551 118.844C208.551 119.606 206.382 120.661 204.8 121.422C203.217 122.185 200.17 122.477 199.525 122.126C198.88 121.775 192.392 110.051 192.002 108.235C191.612 106.419 192.17 98.6812 196.215 100.492H196.214Z" fill="#209AA6"/>
<path d="M83.0637 140.784C82.3025 140.784 81.565 140.664 80.85 140.424C76.1037 138.827 74.5375 132.489 74.4725 132.22C74.2862 131.441 74.7662 130.66 75.5437 130.474C76.3212 130.289 77.1025 130.766 77.2887 131.544C77.2987 131.584 77.63 132.907 78.3937 134.341C79.0462 135.566 80.1625 137.139 81.78 137.68C83.6562 138.306 85.9987 137.484 88.7412 135.232C89.36 134.725 90.2725 134.815 90.78 135.432C91.2875 136.051 91.1975 136.964 90.5787 137.471C87.8937 139.675 85.375 140.784 83.0625 140.784H83.0637Z" fill="#2E234F"/>
<path d="M64.9937 99.7162C65.2062 99.7162 65.3975 99.5687 65.4437 99.3525C66.015 96.6862 64.97 93.1987 64.925 93.0525C64.8512 92.8087 64.5937 92.6725 64.35 92.7462C64.1062 92.82 63.9687 93.0775 64.0425 93.3212C64.0525 93.355 65.0625 96.73 64.5412 99.16C64.4875 99.4087 64.6462 99.6537 64.895 99.7075C64.9275 99.715 64.96 99.7175 64.9925 99.7175L64.9937 99.7162Z" fill="#2E234F"/>
<path d="M64.7175 95.2012C65.8877 95.2012 66.8363 94.2526 66.8363 93.0825C66.8363 91.9123 65.8877 90.9637 64.7175 90.9637C63.5473 90.9637 62.5988 91.9123 62.5988 93.0825C62.5988 94.2526 63.5473 95.2012 64.7175 95.2012Z" fill="#209AA6"/>
<path d="M66.2449 94.5487C65.8599 94.9512 65.3174 95.2012 64.7174 95.2012C63.5474 95.2012 62.5974 94.2525 62.5974 93.0825C62.5974 92.39 62.9287 91.7762 63.4424 91.3887C63.0749 91.7687 62.8487 92.2875 62.8487 92.8587C62.8487 94.03 63.7974 94.9775 64.9674 94.9775C65.4474 94.9775 65.8899 94.8187 66.2449 94.5487Z" fill="#1A7D87"/>
<path d="M90.2181 115.59C90.2775 111.582 88.0012 108.299 85.1338 108.256C82.2664 108.214 79.8937 111.428 79.8342 115.436C79.7748 119.444 82.0511 122.727 84.9185 122.77C87.7859 122.812 90.1586 119.598 90.2181 115.59Z" fill="#209AA6"/>
<path d="M41.5175 106.281V121.498C41.5175 123.865 43.4375 125.784 45.8037 125.784H83.0375C85.475 125.784 87.4525 123.808 87.4525 121.369V106.153C87.4525 101.64 83.7937 97.9813 79.2812 97.9813H49.815C49.0937 97.9813 48.395 98.0725 47.7275 98.2463C44.155 99.1725 41.5175 102.418 41.5175 106.279V106.281Z" fill="white"/>
<path d="M41.5175 106.281V121.497C41.5175 123.865 43.4375 125.784 45.8037 125.784H50.6925C52.415 125.183 53.6512 123.542 53.6512 121.615V106.105C53.6512 102.373 51.1475 99.2237 47.7275 98.2475C44.155 99.1737 41.5175 102.419 41.5175 106.28V106.281Z" fill="#E1E8FF"/>
<path d="M49.2402 115.59C49.2996 111.583 47.0233 108.299 44.1559 108.257C41.2885 108.214 38.9158 111.429 38.8563 115.436C38.7969 119.444 41.0732 122.728 43.9406 122.77C46.808 122.813 49.1807 119.598 49.2402 115.59Z" fill="#209AA6"/>
<path d="M44.6316 115.563C44.6701 112.966 43.1955 110.839 41.338 110.811C39.4804 110.784 37.9434 112.866 37.9048 115.463C37.8663 118.06 39.3409 120.188 41.1985 120.215C43.056 120.243 44.5931 118.16 44.6316 115.563Z" fill="#2E234F"/>
<path d="M79.74 119.21H61.2025C58.75 119.21 56.7612 117.221 56.7612 114.769V111.377C56.7612 108.982 58.7425 107.064 61.135 107.139L79.86 107.73C82.0087 107.795 83.7175 109.556 83.7175 111.706V115.232C83.7175 117.429 81.9362 119.21 79.74 119.21Z" fill="#2E234F"/>
<path d="M64.1962 114.702C65.3104 114.702 66.2137 113.852 66.2137 112.804C66.2137 111.755 65.3104 110.905 64.1962 110.905C63.082 110.905 62.1787 111.755 62.1787 112.804C62.1787 113.852 63.082 114.702 64.1962 114.702Z" fill="#209AA6"/>
<path d="M76.8274 115.035C77.9154 115.035 78.7974 114.171 78.7974 113.106C78.7974 112.041 77.9154 111.177 76.8274 111.177C75.7394 111.177 74.8574 112.041 74.8574 113.106C74.8574 114.171 75.7394 115.035 76.8274 115.035Z" fill="#209AA6"/>
<path d="M56.535 124.854C56.4987 124.854 56.4612 124.849 56.425 124.836C56.3987 124.828 53.7137 123.974 49.2912 122.539C44.7187 121.056 42.98 117.304 42.9075 117.145C42.825 116.962 42.9062 116.748 43.0887 116.665C43.2712 116.583 43.4862 116.664 43.5687 116.846C43.585 116.883 45.2575 120.469 49.515 121.849C53.935 123.283 56.6187 124.136 56.645 124.145C56.8362 124.206 56.9412 124.41 56.88 124.6C56.8312 124.754 56.6887 124.853 56.535 124.853V124.854Z" fill="#2E234F"/>
<path d="M55.8242 125.687L61.3648 126.643C61.8839 126.732 62.3773 126.384 62.4669 125.865L62.6341 124.896C62.7237 124.377 62.3755 123.883 61.8564 123.794L56.3158 122.838C55.7968 122.748 55.3034 123.096 55.2138 123.615L55.0465 124.585C54.957 125.104 55.3051 125.597 55.8242 125.687Z" fill="#2E234F"/>
<path d="M46.6174 133.432C47.2362 140.634 50.1962 161.667 63.6449 162.556C77.3962 163.466 80.5937 140.904 81.2487 133.972C81.3137 133.285 81.2124 132.607 80.9687 131.994C80.5774 130.999 79.8212 130.162 78.8074 129.69C76.5624 128.644 72.3774 127.591 64.5887 127.382C56.2999 127.16 51.7549 128.102 49.2899 129.087C48.1737 129.534 47.3274 130.414 46.9049 131.48C46.6637 132.086 46.5587 132.751 46.6174 133.434V133.432Z" fill="white"/>
<path d="M71.1763 160.24C69.1063 161.849 66.6238 162.754 63.6438 162.556C50.195 161.669 47.2363 140.634 46.6163 133.434C46.5563 132.751 46.6625 132.086 46.905 131.48C47.3263 130.415 48.1725 129.535 49.2888 129.089C49.61 128.961 49.9663 128.833 50.3625 128.708C50.0638 129.06 49.8263 129.458 49.6575 129.886C49.415 130.494 49.31 131.158 49.3688 131.84C49.9888 139.041 52.9475 160.075 66.3963 160.963C68.1575 161.08 69.745 160.81 71.1763 160.24Z" fill="#E1E8FF"/>
<path d="M46.905 131.479C50.9825 132.725 57.0663 134.269 64.4413 134.269C70.745 134.269 76.9 132.942 80.9688 131.992C80.5775 130.997 79.8213 130.161 78.8075 129.689C76.5625 128.643 72.3775 127.59 64.5888 127.381C56.3 127.159 51.755 128.101 49.29 129.086C48.1738 129.532 47.3275 130.412 46.905 131.479Z" fill="#BECAEA"/>
<path d="M67.0625 149.38C69.5298 149.38 71.53 147.421 71.53 145.005C71.53 142.589 69.5298 140.63 67.0625 140.63C64.5951 140.63 62.595 142.589 62.595 145.005C62.595 147.421 64.5951 149.38 67.0625 149.38Z" fill="#209AA6"/>
<path d="M62.5938 145.005C62.5938 147.421 64.595 149.38 67.0625 149.38C68.4563 149.38 69.7012 148.755 70.5212 147.775C69.74 148.431 68.725 148.828 67.615 148.828C65.1475 148.828 63.1463 146.869 63.1463 144.453C63.1463 143.399 63.5275 142.433 64.16 141.679C63.2013 142.48 62.5938 143.673 62.5938 145.005Z" fill="#1A7D87"/>
<path d="M90.9374 139.631C90.4599 139.631 89.9924 139.395 89.7162 138.962L87.4874 135.477C87.2787 135.151 87.2099 134.755 87.2949 134.377C87.3799 134 87.6137 133.672 87.9424 133.467L92.4524 130.661C93.1312 130.239 94.0249 130.446 94.4474 131.126C94.8699 131.805 94.6624 132.699 93.9824 133.121L90.7174 135.152L91.3837 136.195L94.9562 133.969C95.6349 133.546 96.5287 133.754 96.9512 134.432C97.3737 135.111 97.1674 136.005 96.4874 136.427L91.6999 139.411C91.4612 139.56 91.1962 139.63 90.9349 139.63L90.9374 139.631Z" fill="#2E234F"/>
<path d="M51.4199 152.161C51.1574 152.161 50.8924 152.09 50.6537 151.941C46.7374 149.495 44.7512 146.71 44.7487 143.664C44.7449 138.656 50.2512 135.147 50.4862 135C51.1637 134.575 52.0574 134.78 52.4824 135.457C52.9074 136.135 52.7024 137.027 52.0262 137.452C51.9974 137.47 50.8462 138.207 49.7274 139.394C48.7749 140.402 47.6412 141.964 47.6449 143.669C47.6499 145.647 49.1787 147.604 52.1874 149.484C52.8662 149.907 53.0724 150.801 52.6487 151.48C52.3737 151.92 51.9012 152.161 51.4187 152.161H51.4199Z" fill="#2E234F"/>
<path d="M54.45 157.54C54.1262 157.54 53.8 157.432 53.53 157.21L49.1737 153.626C48.5612 153.122 48.4675 152.219 48.965 151.6L51.555 148.375C51.7975 148.072 52.1512 147.881 52.5362 147.841C52.9212 147.801 53.3062 147.917 53.605 148.164L57.705 151.541C58.3225 152.05 58.41 152.962 57.9012 153.58C57.3925 154.197 56.48 154.286 55.8625 153.777L52.895 151.332L52.12 152.297L55.37 154.971C55.9875 155.48 56.0762 156.392 55.5687 157.01C55.2825 157.359 54.8675 157.539 54.4487 157.539L54.45 157.54Z" fill="#2E234F"/>
<path d="M63.1375 180.285L64.7412 180.261C64.9137 180.259 65.0512 180.116 65.0487 179.944C65.0462 179.771 64.9037 179.634 64.7312 179.636L63.1275 179.66C62.955 179.663 62.8175 179.805 62.82 179.978C62.8225 180.15 62.965 180.288 63.1375 180.285Z" fill="#514593"/>
<path d="M67.2563 180.224L68.86 180.2C69.0325 180.197 69.17 180.055 69.1675 179.882C69.165 179.71 69.0225 179.572 68.85 179.575L67.2462 179.599C67.0737 179.601 66.9363 179.744 66.9388 179.916C66.9413 180.089 67.0838 180.226 67.2563 180.224Z" fill="#514593"/>
<path d="M65.98 178.985C66.1525 178.983 66.29 178.84 66.2875 178.667L66.2637 177.064C66.2612 176.891 66.1187 176.754 65.9462 176.756C65.7737 176.759 65.6362 176.901 65.6387 177.074L65.6625 178.678C65.665 178.85 65.8075 178.988 65.98 178.985Z" fill="#514593"/>
<path d="M66.0412 183.104C66.2137 183.101 66.3512 182.959 66.3487 182.786L66.325 181.183C66.3225 181.01 66.18 180.873 66.0075 180.875C65.835 180.878 65.6975 181.02 65.7 181.193L65.7237 182.796C65.7262 182.969 65.8687 183.106 66.0412 183.104Z" fill="#514593"/>
<path d="M150.908 202.531L152.511 202.507C152.684 202.505 152.821 202.362 152.819 202.19C152.816 202.017 152.674 201.88 152.501 201.882L150.898 201.906C150.725 201.909 150.587 202.051 150.59 202.224C150.592 202.396 150.735 202.534 150.908 202.531Z" fill="#514593"/>
<path d="M155.026 202.47L156.63 202.446C156.803 202.444 156.94 202.301 156.938 202.129C156.935 201.956 156.793 201.819 156.62 201.821L155.016 201.845C154.844 201.847 154.706 201.99 154.709 202.162C154.711 202.335 154.854 202.472 155.026 202.47Z" fill="#514593"/>
<path d="M153.75 201.231C153.922 201.229 154.06 201.086 154.057 200.914L154.034 199.31C154.031 199.137 153.889 199 153.716 199.002C153.544 199.005 153.406 199.147 153.409 199.32L153.432 200.924C153.435 201.096 153.577 201.234 153.75 201.231Z" fill="#514593"/>
<path d="M153.811 205.35C153.984 205.348 154.121 205.205 154.119 205.033L154.095 203.429C154.093 203.256 153.95 203.119 153.777 203.121C153.605 203.124 153.468 203.266 153.47 203.439L153.494 205.042C153.496 205.215 153.639 205.353 153.811 205.35Z" fill="#514593"/>
<path d="M172.917 60.0512C172.631 60.98 171.614 61.7525 170.989 62.2112C170.274 62.7362 169.672 63.3837 169.672 63.3837C169.672 63.3837 168.987 62.675 168.367 62.2112C167.747 61.7462 166.726 60.98 166.439 60.0512C166.152 59.1225 166.509 57.89 167.725 57.5575C168.94 57.2237 169.68 58.6312 169.68 58.6312C169.68 58.6312 170.417 57.2237 171.634 57.5575C172.85 57.89 173.206 59.1225 172.92 60.0512H172.917Z" fill="#FF6483"/>
<path d="M95.4563 198.609C95.17 199.537 94.1525 200.31 93.5275 200.769C92.8125 201.294 92.2113 201.941 92.2113 201.941C92.2113 201.941 91.5263 201.232 90.9063 200.769C90.2863 200.304 89.265 199.537 88.9775 198.609C88.6913 197.68 89.0475 196.447 90.2638 196.115C91.4788 195.781 92.2188 197.189 92.2188 197.189C92.2188 197.189 92.9563 195.781 94.1725 196.115C95.3888 196.447 95.745 197.68 95.4588 198.609H95.4563Z" fill="#FF6483"/>
</svg>
