<svg width="250" height="251" viewBox="0 0 250 251" fill="none" xmlns="http://www.w3.org/2000/svg">
<path d="M232.281 208.024H19.5025C19.3213 208.024 19.1588 208.16 19.1488 208.341C19.1388 208.535 19.2925 208.694 19.4838 208.694H232.281C232.466 208.694 232.616 208.544 232.616 208.359C232.616 208.174 232.466 208.024 232.281 208.024Z" fill="#1A7D87"/>
<path d="M40.9863 208.024C40.9863 208.024 6.1375 159.94 21.13 126.206C36.1225 92.4737 79.1362 104.755 95.7075 97.2487C112.279 89.7437 126.001 34.9162 168.214 43.1425C210.426 51.37 194.87 93.2837 199.886 119.855C204.902 146.426 242.58 150.372 215.806 208.022H40.9863V208.024Z" fill="#EBF2FF"/>
<path d="M181.295 134.428C178.712 108.56 156.05 90.7601 153.469 64.8926C163.894 60.7213 174.317 56.5488 184.742 52.3776C187.325 78.2451 209.988 96.0451 212.569 121.913C202.144 126.084 191.72 130.256 181.295 134.428Z" fill="#CCD9ED"/>
<path d="M208.934 118.94C204.615 96.5327 186.401 80.2752 182.082 57.8689C182.017 57.4664 181.67 57.2577 181.301 57.4064C173.421 60.5602 165.541 63.7139 157.66 66.8664C157.291 67.0139 157.039 67.4627 157.104 67.8652C157.515 70.0489 157.95 72.1977 158.612 74.3227C158.612 74.3227 158.612 74.3227 158.612 74.3239C158.612 74.3239 158.612 74.3252 158.612 74.3264C164.292 91.5352 176.804 105.323 182.464 122.54C182.464 122.54 182.464 122.541 182.464 122.543C182.464 122.543 182.464 122.543 182.464 122.544C183.105 124.614 183.619 126.795 183.952 128.936C184.017 129.339 184.365 129.548 184.734 129.399C192.614 126.245 200.494 123.091 208.375 119.939C208.744 119.791 208.996 119.343 208.931 118.94H208.934ZM174.674 61.6089C174.691 61.8077 174.714 62.0089 174.754 62.1964C175.407 65.2539 178.972 67.1927 181.977 65.9039C182.15 65.8302 182.33 65.7502 182.502 65.6627C188.245 82.2389 200.135 95.6977 205.859 112.281C205.676 112.335 205.492 112.4 205.316 112.468C202.171 113.669 200.565 117.571 201.157 120.73C201.189 120.899 201.23 121.066 201.272 121.23C197.955 122.558 194.637 123.885 191.32 125.213C191.302 125.038 191.275 124.861 191.247 124.695C190.711 121.379 186.844 119.923 184.031 120.985C183.871 121.046 183.71 121.124 183.552 121.203C177.829 104.621 165.941 91.1652 160.199 74.5914C160.365 74.5414 160.531 74.4864 160.692 74.4202C163.786 73.1677 165.506 69.3639 164.844 66.1614C164.805 65.9727 164.761 65.7814 164.71 65.5952C168.031 64.2664 171.352 62.9377 174.672 61.6077L174.674 61.6089ZM202.614 120.693C202.566 120.53 202.525 120.364 202.494 120.194C202.026 117.638 203.297 114.861 205.736 113.85C205.912 113.778 206.097 113.719 206.28 113.671C206.856 115.663 207.1 116.675 207.471 118.749C205.529 119.526 204.556 119.915 202.614 120.693ZM182.077 64.2727C181.907 64.3652 181.732 64.4489 181.554 64.5202C179.211 65.4552 176.58 64.1927 176.09 61.6602C176.052 61.4677 176.029 61.2702 176.016 61.0702C177.956 60.2939 178.926 59.9052 180.866 59.1289C181.241 61.2302 181.49 62.2552 182.076 64.2727H182.077ZM163.366 66.1327C163.422 66.3152 163.471 66.5039 163.506 66.6964C163.977 69.2514 162.709 72.0264 160.27 73.0377C160.11 73.1039 159.942 73.1577 159.776 73.2039C159.189 71.1852 158.94 70.1577 158.565 68.0552C160.486 67.2864 161.446 66.9027 163.367 66.1339L163.366 66.1327ZM183.975 122.59C184.13 122.508 184.29 122.433 184.452 122.368C186.795 121.433 189.424 122.696 189.91 125.23C189.942 125.4 189.965 125.574 189.977 125.749C188.054 126.519 187.091 126.904 185.167 127.674C184.796 125.598 184.551 124.584 183.975 122.59Z" fill="#EBF2FF"/>
<path d="M188.549 102.889C183.028 105.064 176.076 102.346 172.934 97.4388C169.748 92.4625 172.271 85.9838 177.488 83.9175C182.914 81.7688 190.086 84.1575 193.103 89.3675C195.955 94.295 193.926 100.771 188.549 102.889Z" fill="#EBF2FF"/>
<path d="M17.3838 178.588C17.3838 182.443 27.5463 185.596 29.6488 186.648C31.7513 187.699 35.8875 191.921 37.1488 191.036C38.41 190.151 37.0075 186.296 36.3075 185.245C35.6075 184.194 31.0513 178.586 25.4438 176.134C24.0425 175.433 17.3838 174.733 17.3838 178.586V178.588Z" fill="#209AA6"/>
<path d="M38.235 194.006C38.16 194.006 38.0913 193.959 38.0675 193.884C34.6325 182.893 24.2713 179.663 24.1675 179.631C24.075 179.604 24.0225 179.506 24.05 179.414C24.0775 179.321 24.1763 179.268 24.2675 179.296C24.3738 179.328 34.91 182.606 38.4013 193.779C38.43 193.871 38.3788 193.969 38.2863 193.999C38.2688 194.004 38.2513 194.006 38.2338 194.006H38.235Z" fill="#2E234F"/>
<path d="M30.7001 159.314C27.5463 161.416 29.6488 164.921 29.6488 164.921C31.0501 168.776 35.6063 179.289 37.0076 183.845C38.4088 188.401 39.4076 189.073 40.3101 189.088C41.2126 189.103 41.5638 185.948 41.5638 184.546C41.5638 183.145 42.2651 172.983 40.5126 167.725C38.9263 162.965 33.8538 157.213 30.7001 159.315V159.314Z" fill="#FB9550"/>
<path d="M40.5125 193.831C40.4163 193.831 40.3375 193.753 40.3375 193.656C40.3375 181.213 35.1425 165.136 35.09 164.975C35.06 164.883 35.11 164.784 35.2025 164.754C35.2963 164.724 35.3938 164.774 35.4238 164.866C35.4763 165.028 40.6888 181.158 40.6888 193.656C40.6888 193.753 40.61 193.831 40.5137 193.831H40.5125Z" fill="#2E234F"/>
<path d="M57.0488 164.78C57.0488 164.78 52.4413 162.426 49.4013 167.75C46.3613 173.074 42.0351 183.683 41.8138 189.646C41.5926 195.61 48.4251 187.4 50.8163 184.544C53.2076 181.688 60.0251 172.778 59.5838 168.581C59.5226 165.779 57.0476 164.78 57.0476 164.78H57.0488Z" fill="#514592"/>
<path d="M42.265 193.831C42.255 193.831 42.245 193.831 42.235 193.829C42.14 193.813 42.075 193.723 42.0912 193.626C44.525 179.373 55.3425 167.375 55.4512 167.255C55.5162 167.184 55.6275 167.179 55.6987 167.244C55.77 167.309 55.775 167.42 55.71 167.491C55.6012 167.61 44.8525 179.535 42.4375 193.685C42.4225 193.77 42.3487 193.831 42.265 193.831Z" fill="#2E234F"/>
<path d="M43.495 208.024H37.5288C36.6275 208.024 35.8638 207.359 35.7388 206.466L33.94 193.573C33.895 193.246 34.1475 192.955 34.4775 192.955H46.5475C46.8763 192.955 47.13 193.246 47.085 193.573L45.2863 206.466C45.1613 207.359 44.3975 208.024 43.4963 208.024H43.495Z" fill="#209AA6"/>
<path d="M45.7688 197.686H35.2563C35.16 197.686 35.0813 197.607 35.0813 197.511C35.0813 197.415 35.16 197.336 35.2563 197.336H45.7688C45.865 197.336 45.9438 197.415 45.9438 197.511C45.9438 197.607 45.865 197.686 45.7688 197.686Z" fill="#1A7D87"/>
<path d="M168.35 68.4288V177.826C168.35 181.43 165.427 184.351 161.824 184.351H52.4275C48.8225 184.351 45.9012 181.43 45.9012 177.826V68.4288C45.9012 64.8251 48.8225 61.9026 52.4275 61.9026H161.824C165.427 61.9026 168.35 64.8251 168.35 68.4288Z" fill="#1A7D87"/>
<path d="M168.35 63.8038V173.201C168.35 176.805 165.427 179.726 161.824 179.726H52.4275C48.8225 179.726 45.9012 176.805 45.9012 173.201V63.8038C45.9012 60.2001 48.8225 57.2776 52.4275 57.2776H161.824C165.427 57.2776 168.35 60.2001 168.35 63.8038Z" fill="#BDD2F4"/>
<path d="M168.35 63.8038V86.3351H45.9012V63.8038C45.9012 60.2001 48.8225 57.2776 52.4275 57.2776H161.824C165.427 57.2776 168.35 60.2001 168.35 63.8038Z" fill="#209AA6"/>
<path d="M53.435 65.5813C51.7075 65.5813 50.3075 64.1813 50.3075 62.4538V56.2888C50.3075 54.5613 51.7075 53.1613 53.435 53.1613C55.1625 53.1613 56.5625 54.5613 56.5625 56.2888V62.4538C56.5625 64.1813 55.1625 65.5813 53.435 65.5813Z" fill="#2E234F"/>
<path d="M74.9112 65.5813C73.1837 65.5813 71.7837 64.1813 71.7837 62.4538V56.2888C71.7837 54.5613 73.1837 53.1613 74.9112 53.1613C76.6387 53.1613 78.0387 54.5613 78.0387 56.2888V62.4538C78.0387 64.1813 76.6387 65.5813 74.9112 65.5813Z" fill="#2E234F"/>
<path d="M96.3875 53.16C98.1138 53.16 99.515 54.5613 99.515 56.2875V62.4525C99.515 64.1788 98.1138 65.58 96.3875 65.58C94.6613 65.58 93.26 64.1788 93.26 62.4525V56.2875C93.26 54.5613 94.6613 53.16 96.3875 53.16Z" fill="#2E234F"/>
<path d="M117.864 53.16H117.862C116.135 53.16 114.735 54.5603 114.735 56.2875V62.4538C114.735 64.1811 116.135 65.5813 117.862 65.5813H117.864C119.591 65.5813 120.991 64.1811 120.991 62.4538V56.2875C120.991 54.5603 119.591 53.16 117.864 53.16Z" fill="#2E234F"/>
<path d="M139.339 65.5813C137.611 65.5813 136.211 64.1813 136.211 62.4538V56.2888C136.211 54.5613 137.611 53.1613 139.339 53.1613C141.066 53.1613 142.466 54.5613 142.466 56.2888V62.4538C142.466 64.1813 141.066 65.5813 139.339 65.5813Z" fill="#2E234F"/>
<path d="M160.816 53.16H160.815C159.088 53.16 157.688 54.5603 157.688 56.2875V62.4538C157.688 64.1811 159.088 65.5813 160.815 65.5813H160.816C162.544 65.5813 163.944 64.1811 163.944 62.4538V56.2875C163.944 54.5603 162.544 53.16 160.816 53.16Z" fill="#2E234F"/>
<path d="M64.44 81.8188H58.25C57.52 81.8188 56.9275 81.2276 56.9275 80.4963C56.9275 79.7663 57.5187 79.1738 58.25 79.1738H64.44C65.17 79.1738 65.7625 79.7651 65.7625 80.4963C65.7625 81.2263 65.1712 81.8188 64.44 81.8188Z" fill="#1A7D87"/>
<path d="M79.6587 81.8188H73.4687C72.7387 81.8188 72.1462 81.2276 72.1462 80.4963C72.1462 79.7663 72.7375 79.1738 73.4687 79.1738H79.6587C80.3887 79.1738 80.9812 79.7651 80.9812 80.4963C80.9812 81.2263 80.39 81.8188 79.6587 81.8188Z" fill="#1A7D87"/>
<path d="M94.8775 81.8188H88.6875C87.9575 81.8188 87.365 81.2276 87.365 80.4963C87.365 79.7663 87.9562 79.1738 88.6875 79.1738H94.8775C95.6075 79.1738 96.2 79.7651 96.2 80.4963C96.2 81.2263 95.6087 81.8188 94.8775 81.8188Z" fill="#1A7D87"/>
<path d="M110.096 81.8188H103.906C103.176 81.8188 102.584 81.2276 102.584 80.4963C102.584 79.7663 103.175 79.1738 103.906 79.1738H110.096C110.826 79.1738 111.419 79.7651 111.419 80.4963C111.419 81.2263 110.827 81.8188 110.096 81.8188Z" fill="#1A7D87"/>
<path d="M125.314 81.8188H119.124C118.394 81.8188 117.801 81.2276 117.801 80.4963C117.801 79.7663 118.393 79.1738 119.124 79.1738H125.314C126.044 79.1738 126.636 79.7651 126.636 80.4963C126.636 81.2263 126.045 81.8188 125.314 81.8188Z" fill="#1A7D87"/>
<path d="M140.533 81.8188H134.343C133.613 81.8188 133.02 81.2276 133.02 80.4963C133.02 79.7663 133.611 79.1738 134.343 79.1738H140.533C141.263 79.1738 141.855 79.7651 141.855 80.4963C141.855 81.2263 141.264 81.8188 140.533 81.8188Z" fill="#1A7D87"/>
<path d="M155.751 81.8188H149.561C148.831 81.8188 148.239 81.2276 148.239 80.4963C148.239 79.7663 148.83 79.1738 149.561 79.1738H155.751C156.481 79.1738 157.074 79.7651 157.074 80.4963C157.074 81.2263 156.483 81.8188 155.751 81.8188Z" fill="#1A7D87"/>
<path d="M124.049 97.9102H120.389C118.96 97.9102 117.801 99.0686 117.801 100.498V103.895C117.801 105.324 118.96 106.483 120.389 106.483H124.049C125.478 106.483 126.636 105.324 126.636 103.895V100.498C126.636 99.0686 125.478 97.9102 124.049 97.9102Z" fill="#1A7D87"/>
<path d="M139.268 97.9102H135.608C134.178 97.9102 133.02 99.0686 133.02 100.498V103.895C133.02 105.324 134.178 106.483 135.608 106.483H139.268C140.697 106.483 141.855 105.324 141.855 103.895V100.498C141.855 99.0686 140.697 97.9102 139.268 97.9102Z" fill="#FB9550"/>
<path d="M154.486 97.9102H150.826C149.397 97.9102 148.239 99.0686 148.239 100.498V103.895C148.239 105.324 149.397 106.483 150.826 106.483H154.486C155.915 106.483 157.074 105.324 157.074 103.895V100.498C157.074 99.0686 155.915 97.9102 154.486 97.9102Z" fill="#FF6483"/>
<path d="M63.1762 111.461H59.5162C58.0872 111.461 56.9287 112.62 56.9287 114.049V117.446C56.9287 118.875 58.0872 120.034 59.5162 120.034H63.1762C64.6052 120.034 65.7637 118.875 65.7637 117.446V114.049C65.7637 112.62 64.6052 111.461 63.1762 111.461Z" fill="#1A7D87"/>
<path d="M61.105 97.9102H58.985C57.8493 97.9102 56.9287 98.8308 56.9287 99.9664V101.901C56.9287 103.037 57.8493 103.958 58.985 103.958H61.105C62.2406 103.958 63.1612 103.037 63.1612 101.901V99.9664C63.1612 98.8308 62.2406 97.9102 61.105 97.9102Z" fill="#FB9550"/>
<path d="M78.3937 111.461H74.7337C73.3047 111.461 72.1462 112.62 72.1462 114.049V117.446C72.1462 118.875 73.3047 120.034 74.7337 120.034H78.3937C79.8228 120.034 80.9812 118.875 80.9812 117.446V114.049C80.9812 112.62 79.8228 111.461 78.3937 111.461Z" fill="#1A7D87"/>
<path d="M93.6125 111.461H89.9525C88.5235 111.461 87.365 112.62 87.365 114.049V117.446C87.365 118.875 88.5235 120.034 89.9525 120.034H93.6125C95.0415 120.034 96.2 118.875 96.2 117.446V114.049C96.2 112.62 95.0415 111.461 93.6125 111.461Z" fill="#1A7D87"/>
<path d="M108.831 111.461H105.171C103.742 111.461 102.584 112.62 102.584 114.049V117.446C102.584 118.875 103.742 120.034 105.171 120.034H108.831C110.26 120.034 111.419 118.875 111.419 117.446V114.049C111.419 112.62 110.26 111.461 108.831 111.461Z" fill="#1A7D87"/>
<path d="M124.049 111.461H120.389C118.96 111.461 117.801 112.62 117.801 114.049V117.446C117.801 118.875 118.96 120.034 120.389 120.034H124.049C125.478 120.034 126.636 118.875 126.636 117.446V114.049C126.636 112.62 125.478 111.461 124.049 111.461Z" fill="#1A7D87"/>
<path d="M139.268 111.461H135.608C134.178 111.461 133.02 112.62 133.02 114.049V117.446C133.02 118.875 134.178 120.034 135.608 120.034H139.268C140.697 120.034 141.855 118.875 141.855 117.446V114.049C141.855 112.62 140.697 111.461 139.268 111.461Z" fill="#FB9550"/>
<path d="M154.486 111.461H150.826C149.397 111.461 148.239 112.62 148.239 114.049V117.446C148.239 118.875 149.397 120.034 150.826 120.034H154.486C155.915 120.034 157.074 118.875 157.074 117.446V114.049C157.074 112.62 155.915 111.461 154.486 111.461Z" fill="#FF6483"/>
<path d="M63.1762 125.012H59.5162C58.0872 125.012 56.9287 126.171 56.9287 127.6V130.997C56.9287 132.426 58.0872 133.585 59.5162 133.585H63.1762C64.6052 133.585 65.7637 132.426 65.7637 130.997V127.6C65.7637 126.171 64.6052 125.012 63.1762 125.012Z" fill="#1A7D87"/>
<path d="M78.3937 125.012H74.7337C73.3047 125.012 72.1462 126.171 72.1462 127.6V130.997C72.1462 132.426 73.3047 133.585 74.7337 133.585H78.3937C79.8228 133.585 80.9812 132.426 80.9812 130.997V127.6C80.9812 126.171 79.8228 125.012 78.3937 125.012Z" fill="#1A7D87"/>
<path d="M93.6125 125.012H89.9525C88.5235 125.012 87.365 126.171 87.365 127.6V130.997C87.365 132.426 88.5235 133.585 89.9525 133.585H93.6125C95.0415 133.585 96.2 132.426 96.2 130.997V127.6C96.2 126.171 95.0415 125.012 93.6125 125.012Z" fill="#1A7D87"/>
<path d="M108.831 125.012H105.171C103.742 125.012 102.584 126.171 102.584 127.6V130.997C102.584 132.426 103.742 133.585 105.171 133.585H108.831C110.26 133.585 111.419 132.426 111.419 130.997V127.6C111.419 126.171 110.26 125.012 108.831 125.012Z" fill="#1A7D87"/>
<path d="M124.049 125.012H120.389C118.96 125.012 117.801 126.171 117.801 127.6V130.997C117.801 132.426 118.96 133.585 120.389 133.585H124.049C125.478 133.585 126.636 132.426 126.636 130.997V127.6C126.636 126.171 125.478 125.012 124.049 125.012Z" fill="#1A7D87"/>
<path d="M139.268 125.012H135.608C134.178 125.012 133.02 126.171 133.02 127.6V130.997C133.02 132.426 134.178 133.585 135.608 133.585H139.268C140.697 133.585 141.855 132.426 141.855 130.997V127.6C141.855 126.171 140.697 125.012 139.268 125.012Z" fill="#FB9550"/>
<path d="M154.486 125.012H150.826C149.397 125.012 148.239 126.171 148.239 127.6V130.997C148.239 132.426 149.397 133.585 150.826 133.585H154.486C155.915 133.585 157.074 132.426 157.074 130.997V127.6C157.074 126.171 155.915 125.012 154.486 125.012Z" fill="#FF6483"/>
<path d="M59.515 138.564H63.175C64.6025 138.564 65.7625 139.722 65.7625 141.151V144.55C65.7625 145.977 64.6037 147.137 63.175 147.137H59.515C58.0875 147.137 56.9275 145.979 56.9275 144.55V141.151C56.9275 139.724 58.0862 138.564 59.515 138.564Z" fill="#1A7D87"/>
<path d="M74.7337 138.564H78.3937C79.8212 138.564 80.9812 139.722 80.9812 141.151V144.55C80.9812 145.977 79.8225 147.137 78.3937 147.137H74.7337C73.3062 147.137 72.1462 145.979 72.1462 144.55V141.151C72.1462 139.724 73.305 138.564 74.7337 138.564Z" fill="#1A7D87"/>
<path d="M89.9513 138.564H93.6113C95.0388 138.564 96.1988 139.722 96.1988 141.151V144.55C96.1988 145.977 95.04 147.137 93.6113 147.137H89.9513C88.5238 147.137 87.3638 145.979 87.3638 144.55V141.151C87.3638 139.724 88.5225 138.564 89.9513 138.564Z" fill="#1A7D87"/>
<path d="M105.17 138.564H108.83C110.258 138.564 111.418 139.722 111.418 141.151V144.55C111.418 145.977 110.259 147.137 108.83 147.137H105.17C103.743 147.137 102.583 145.979 102.583 144.55V141.151C102.583 139.724 103.741 138.564 105.17 138.564Z" fill="#1A7D87"/>
<path d="M120.389 138.564H124.049C125.476 138.564 126.636 139.722 126.636 141.151V144.55C126.636 145.977 125.478 147.137 124.049 147.137H120.389C118.961 147.137 117.801 145.979 117.801 144.55V141.151C117.801 139.724 118.96 138.564 120.389 138.564Z" fill="#1A7D87"/>
<path d="M135.606 138.564H139.266C140.694 138.564 141.854 139.722 141.854 141.151V144.55C141.854 145.977 140.695 147.137 139.266 147.137H135.606C134.179 147.137 133.019 145.979 133.019 144.55V141.151C133.019 139.724 134.178 138.564 135.606 138.564Z" fill="#FB9550"/>
<path d="M150.825 138.564H154.485C155.913 138.564 157.073 139.722 157.073 141.151V144.55C157.073 145.977 155.914 147.137 154.485 147.137H150.825C149.398 147.137 148.238 145.979 148.238 144.55V141.151C148.238 139.724 149.396 138.564 150.825 138.564Z" fill="#FF6483"/>
<path d="M63.1762 152.114H59.5162C58.0872 152.114 56.9287 153.272 56.9287 154.701V158.099C56.9287 159.528 58.0872 160.686 59.5162 160.686H63.1762C64.6052 160.686 65.7637 159.528 65.7637 158.099V154.701C65.7637 153.272 64.6052 152.114 63.1762 152.114Z" fill="#1A7D87"/>
<path d="M78.3937 152.114H74.7337C73.3047 152.114 72.1462 153.272 72.1462 154.701V158.099C72.1462 159.528 73.3047 160.686 74.7337 160.686H78.3937C79.8228 160.686 80.9812 159.528 80.9812 158.099V154.701C80.9812 153.272 79.8228 152.114 78.3937 152.114Z" fill="#1A7D87"/>
<path d="M93.6125 152.114H89.9525C88.5235 152.114 87.365 153.272 87.365 154.701V158.099C87.365 159.528 88.5235 160.686 89.9525 160.686H93.6125C95.0415 160.686 96.2 159.528 96.2 158.099V154.701C96.2 153.272 95.0415 152.114 93.6125 152.114Z" fill="#1A7D87"/>
<path d="M108.831 152.114H105.171C103.742 152.114 102.584 153.272 102.584 154.701V158.099C102.584 159.528 103.742 160.686 105.171 160.686H108.831C110.26 160.686 111.419 159.528 111.419 158.099V154.701C111.419 153.272 110.26 152.114 108.831 152.114Z" fill="#1A7D87"/>
<path d="M124.049 152.114H120.389C118.96 152.114 117.801 153.272 117.801 154.701V158.099C117.801 159.528 118.96 160.686 120.389 160.686H124.049C125.478 160.686 126.636 159.528 126.636 158.099V154.701C126.636 153.272 125.478 152.114 124.049 152.114Z" fill="#1A7D87"/>
<path d="M139.268 152.114H135.608C134.178 152.114 133.02 153.272 133.02 154.701V158.099C133.02 159.528 134.178 160.686 135.608 160.686H139.268C140.697 160.686 141.855 159.528 141.855 158.099V154.701C141.855 153.272 140.697 152.114 139.268 152.114Z" fill="#FB9550"/>
<path d="M87.9037 100.061H66.4362C66.0637 100.061 65.7625 99.7601 65.7625 99.3876C65.7625 99.0151 66.0637 98.7139 66.4362 98.7139H87.9037C88.2762 98.7139 88.5775 99.0151 88.5775 99.3876C88.5775 99.7601 88.2762 100.061 87.9037 100.061Z" fill="#1A7D87"/>
<path d="M80.805 101.808H66.4362C66.0641 101.808 65.7625 102.109 65.7625 102.481V102.483C65.7625 102.855 66.0641 103.156 66.4362 103.156H80.805C81.1771 103.156 81.4787 102.855 81.4787 102.483V102.481C81.4787 102.109 81.1771 101.808 80.805 101.808Z" fill="#1A7D87"/>
<path d="M145.893 97.5713C146.1 97.475 146.213 97.9913 146.754 98.1725C147.295 98.3538 149.468 98.68 150.118 99.6888C150.768 100.696 153.171 103.328 153.51 103.586C153.849 103.846 163.538 107.349 170.674 111.005C174.119 103.699 180.463 94.8213 180.463 94.8213L187.368 100.426L174.52 116.421C173.443 117.763 171.541 118.101 170.068 117.216C164.509 113.876 151.865 106.278 151.734 106.195C151.565 106.09 148.514 104.858 147.608 104.744C147.244 104.698 146.441 104.21 146.213 103.971C145.984 103.733 145.714 103.774 145.538 103.439C145.36 103.104 145.399 102.91 145.291 102.603C145.214 102.384 144.923 102.336 144.875 101.863C144.826 101.389 145.149 101.395 145.198 101.228C145.246 101.06 145.01 100.835 145.089 100.565C145.168 100.295 145.476 100.214 145.535 100.048C145.58 99.9213 143.041 98.3375 142.143 97.415C141.859 97.125 142.181 96.5788 142.563 96.7238C143.709 97.1575 146.003 98.8488 145.945 98.8038C145.739 98.6425 145.504 97.7525 145.891 97.5713H145.893Z" fill="#FFC5CD"/>
<path d="M190.774 100.019C190.514 101.067 189.534 102.727 188.266 104.532C187.401 105.764 186.401 107.061 185.405 108.277C185.035 108.727 184.666 109.166 184.305 109.586C183.888 110.07 183.48 110.529 183.093 110.952H183.091C181.709 112.464 180.583 113.511 180.196 113.572C179.655 113.657 178.006 112.52 176.338 111.119C174.256 109.371 172.144 107.214 172.11 106.51C172.049 105.242 176.718 98.0162 177.868 96.3287C179.028 94.6275 180.924 92.335 183.55 90.8862C183.55 90.8862 186.838 90.1225 188.806 91.5912C190.773 93.06 191.623 96.59 190.774 100.019Z" fill="#209AA6"/>
<path d="M187.368 100.425L185.405 108.277C185.035 108.727 184.666 109.166 184.305 109.586C183.888 110.07 183.48 110.529 183.093 110.952H183.091C181.709 112.464 180.583 113.511 180.196 113.572C179.655 113.657 178.006 112.52 176.338 111.119C179.101 106.317 179.983 98.3286 179.983 98.3286L187.368 100.425Z" fill="#1A7D87"/>
<path d="M149.004 101.667C148.943 101.725 148.858 101.78 148.743 101.826C148.115 102.076 145.664 101.434 145.386 101.36C145.321 101.342 145.283 101.276 145.3 101.211C145.318 101.146 145.384 101.107 145.449 101.125C146.181 101.321 148.184 101.787 148.653 101.601C148.819 101.535 148.908 101.446 148.915 101.337C148.926 101.166 148.749 100.961 148.571 100.861C148.33 100.726 146.766 100.39 145.774 100.197C145.708 100.185 145.665 100.121 145.678 100.055C145.69 99.9887 145.754 99.9462 145.82 99.9587C146.076 100.009 148.339 100.451 148.69 100.649C148.936 100.787 149.175 101.074 149.158 101.352C149.151 101.445 149.116 101.561 149.005 101.666L149.004 101.667Z" fill="#D6798E"/>
<path d="M148.828 102.729C148.769 102.785 148.696 102.835 148.613 102.879C148.119 103.136 145.714 102.779 145.516 102.74C145.45 102.728 145.408 102.663 145.421 102.598C145.435 102.531 145.499 102.489 145.564 102.503C146.034 102.596 148.141 102.851 148.5 102.665C148.675 102.574 148.78 102.443 148.78 102.313C148.78 102.16 148.641 102.001 148.388 101.865C148.329 101.834 148.306 101.76 148.338 101.701C148.369 101.643 148.443 101.62 148.501 101.651C148.933 101.883 149.023 102.14 149.021 102.315C149.021 102.468 148.951 102.613 148.824 102.731L148.828 102.729Z" fill="#D6798E"/>
<path d="M148.611 103.762C148.585 103.786 148.558 103.809 148.526 103.829C148.155 104.064 146.691 104.065 146.525 104.065C146.458 104.065 146.404 104.01 146.404 103.942C146.404 103.875 146.459 103.821 146.525 103.821C147.124 103.824 148.16 103.772 148.395 103.622C148.506 103.552 148.559 103.429 148.531 103.3C148.503 103.162 148.371 103.002 148.093 102.961C148.026 102.951 147.98 102.89 147.99 102.824C148 102.757 148.061 102.711 148.128 102.721C148.53 102.78 148.723 103.032 148.769 103.25C148.81 103.441 148.748 103.632 148.61 103.762H148.611Z" fill="#D6798E"/>
<path d="M147.578 100.11C147.55 100.136 147.51 100.149 147.47 100.141C147.22 100.09 147.121 99.925 147.041 99.7912C146.993 99.71 146.95 99.64 146.881 99.6012C146.481 99.3812 146.134 99.1425 146.12 99.1325C146.065 99.095 146.051 99.0187 146.089 98.9637C146.128 98.9087 146.203 98.895 146.258 98.9325C146.261 98.935 146.61 99.175 146.999 99.3887C147.125 99.4587 147.191 99.5687 147.25 99.6662C147.319 99.7812 147.374 99.8725 147.519 99.9025C147.585 99.9162 147.626 99.98 147.613 100.046C147.608 100.071 147.595 100.094 147.578 100.11Z" fill="#D6798E"/>
<path d="M180.699 199.881L177.269 202.114L179.733 204.834L185.89 202.171C185.89 202.171 185.124 200.95 185.106 200.482C185.089 200.016 180.699 199.881 180.699 199.881Z" fill="#FFC5CD"/>
<path d="M177.491 189.27L179.364 196.575L179.876 198.571L180.283 200.152L180.631 201.517L185.368 201.232L184.804 197.512L184.546 195.811L183.448 188.559L177.491 189.27Z" fill="#FFC5CD"/>
<path d="M187.139 204.69L170.414 206.47C171.081 204.976 173.405 204.247 174.568 203.834C176.076 203.296 178.084 200.491 178.084 200.491C179.244 200.746 179.62 202.597 179.62 202.597C179.62 202.597 179.963 202.939 182.28 202.729C184.598 202.52 184.79 201.282 185.571 201.175C186.073 201.106 187.14 204.69 187.14 204.69H187.139Z" fill="#209AA6"/>
<path d="M187.14 204.699L187.263 205.861C187.284 206.064 187.136 206.246 186.934 206.267L170.33 208.025C170.16 207.43 170.211 206.916 170.413 206.47L187.139 204.7L187.14 204.699Z" fill="#2E234F"/>
<path d="M175.85 204.775C175.796 204.781 175.74 204.764 175.699 204.723L174.533 203.599C174.458 203.526 174.455 203.406 174.528 203.33C174.6 203.255 174.72 203.253 174.796 203.325L175.963 204.449C176.038 204.521 176.04 204.641 175.968 204.718C175.935 204.751 175.894 204.77 175.851 204.775H175.85Z" fill="#2E234F"/>
<path d="M177.1 204.096C177.046 204.102 176.99 204.085 176.949 204.044L175.783 202.92C175.708 202.847 175.705 202.727 175.778 202.651C175.85 202.576 175.97 202.574 176.046 202.646L177.213 203.77C177.288 203.842 177.29 203.962 177.218 204.039C177.185 204.072 177.144 204.091 177.101 204.096H177.1Z" fill="#2E234F"/>
<path d="M179.364 196.575L179.876 198.572C180.38 198.549 181.139 198.469 182.249 198.261C183.503 198.027 184.306 197.744 184.804 197.514L184.546 195.812L179.364 196.575Z" fill="#D6798E"/>
<path d="M200.179 201.018L196.533 202.876L198.696 205.84L205.1 203.84C205.1 203.84 204.466 202.545 204.499 202.079C204.531 201.613 200.179 201.018 200.179 201.018Z" fill="#FFC5CD"/>
<path d="M195.968 190.155L198.356 197.662L198.915 199.416L199.53 201.349V201.35L199.94 202.639L204.679 202.852V202.851L203.859 198.216L203.554 196.5L202.379 189.865L195.968 190.155Z" fill="#FFC5CD"/>
<path d="M206.078 206.477L189.258 206.486C190.079 205.071 192.466 204.591 193.665 204.302C195.223 203.926 197.513 201.349 197.513 201.349C198.639 201.725 198.819 203.605 198.819 203.605C198.819 203.605 199.123 203.98 201.45 204.016C203.776 204.052 204.099 202.842 204.886 202.817C205.391 202.801 206.076 206.477 206.076 206.477H206.078Z" fill="#209AA6"/>
<path d="M206.078 206.486V207.655C206.078 207.859 205.913 208.024 205.709 208.024H189.013C188.906 207.414 189.013 206.909 189.258 206.486H206.078Z" fill="#2E234F"/>
<path d="M194.843 205.375C194.789 205.375 194.735 205.352 194.698 205.307L193.656 204.067C193.589 203.987 193.599 203.867 193.68 203.8C193.76 203.732 193.88 203.742 193.948 203.824L194.989 205.064C195.056 205.144 195.046 205.264 194.965 205.331C194.93 205.361 194.886 205.376 194.843 205.376V205.375Z" fill="#2E234F"/>
<path d="M196.158 204.83C196.104 204.83 196.05 204.807 196.013 204.762L194.971 203.522C194.904 203.442 194.914 203.322 194.995 203.255C195.075 203.187 195.195 203.197 195.263 203.279L196.304 204.519C196.371 204.599 196.361 204.719 196.28 204.786C196.245 204.816 196.201 204.831 196.158 204.831V204.83Z" fill="#2E234F"/>
<path d="M198.356 197.663L198.915 199.417C199.446 199.426 200.36 199.371 201.579 199.036C202.639 198.745 203.388 198.44 203.858 198.216L203.553 196.5L198.355 197.663H198.356Z" fill="#D6798E"/>
<path d="M170.391 170.711C172.39 179.571 176.456 197.189 177.283 197.522C178.385 197.969 186.279 196.785 186.519 195.591C186.581 195.286 186.454 193.259 186.231 190.409C185.584 182.107 184.121 166.826 184.121 166.826L189.155 156.065L200.323 132.191L180.418 128.716L170.738 160.887C169.778 164.077 169.659 167.461 170.391 170.71V170.711Z" fill="#2E234F"/>
<path d="M186.231 190.41C185.584 182.109 184.121 166.828 184.121 166.828L189.155 156.066L187.474 154.874C187.474 154.874 181.505 165.211 181.578 166.704C181.646 168.069 183.126 184.161 186.23 190.41H186.231Z" fill="#1F1938"/>
<path d="M187.841 170.059C187.841 170.059 195.619 197.955 196.741 198.351C197.864 198.75 205.696 197.22 205.885 196.017C206.073 194.814 201.081 169.227 200.826 167.807C200.76 167.44 201.165 164.911 201.803 161.365C201.926 160.681 202.058 159.959 202.196 159.206C204.111 148.822 207.343 132.789 207.343 132.789L188.745 129.829L187.04 163.797C186.934 165.915 187.205 168.035 187.841 170.057V170.059Z" fill="#2E234F"/>
<path d="M188.271 141.021C188.24 141.019 188.209 141.005 188.185 140.979L187.441 140.145C186.76 139.381 186.396 138.397 186.415 137.375L186.505 132.409C186.505 132.339 186.564 132.284 186.634 132.285C186.704 132.287 186.759 132.344 186.758 132.414L186.668 137.38C186.65 138.339 186.993 139.261 187.63 139.977L188.374 140.811C188.42 140.864 188.416 140.944 188.364 140.99C188.338 141.014 188.304 141.024 188.271 141.021Z" fill="#1F1938"/>
<path d="M187.358 159.832C187.289 159.827 187.236 159.769 187.24 159.7L188.409 135.641C188.413 135.571 188.471 135.517 188.541 135.521C188.61 135.524 188.665 135.584 188.661 135.654L187.493 159.712C187.489 159.782 187.43 159.836 187.36 159.832C187.36 159.832 187.359 159.832 187.358 159.832Z" fill="#1F1938"/>
<path d="M208.551 134.601C207.774 135.331 201.639 136.23 196.13 136.777C193.086 137.08 190.235 137.275 188.584 137.275C183.941 137.275 177.961 135.296 177.091 133.439C176.195 131.522 178.931 125.307 179.333 119.619C179.734 113.93 179.634 94.5186 180.595 93.4111C181.979 91.8173 183.73 89.8161 190.114 89.2498C194.69 88.8436 199.141 89.3061 202.054 91.6461C202.674 92.1423 203.224 92.7248 203.689 93.4023C203.871 93.6648 204.039 93.9398 204.193 94.2311C204.383 94.5861 204.553 94.9636 204.7 95.3636C205.189 96.6836 205.668 98.0698 206.124 99.4861C207.739 104.502 209.07 109.91 209.548 114.231C210.13 119.492 209.87 133.362 208.551 134.601Z" fill="#209AA6"/>
<path d="M199.359 81.9184C200.484 79.8712 200.095 77.4981 198.492 76.6179C196.889 75.7378 194.678 76.6838 193.554 78.731C192.43 80.7782 192.819 83.1513 194.422 84.0314C196.025 84.9116 198.235 83.9656 199.359 81.9184Z" fill="#2E234F"/>
<path d="M188.954 75.3662C188.201 76.9437 186.313 77.6125 184.735 76.86C183.158 76.1075 182.489 74.2187 183.241 72.6412C183.994 71.0637 185.883 70.395 187.46 71.1475C189.038 71.9 189.706 73.7887 188.954 75.3662Z" fill="#2E234F"/>
<path d="M195.981 89.4323C195.88 91.2448 192.29 94.8986 190.579 94.3311C188.869 93.7648 188.426 92.2423 188.724 90.981C188.746 90.8848 188.764 90.7698 188.776 90.6411C188.919 89.1098 188.329 85.6036 188.329 85.6036C188.329 85.6036 189.075 84.6786 190.082 83.5323C192.006 81.3423 195.071 78.1636 195.491 79.2823C196.131 80.9861 196.08 87.6198 195.98 89.4323H195.981Z" fill="#FFC5CD"/>
<path d="M194.219 85.2087C194.219 85.2087 192.849 89.6087 188.776 90.6412C188.919 89.11 188.329 85.6037 188.329 85.6037C188.329 85.6037 189.075 84.6787 190.082 83.5325L194.219 85.2087Z" fill="#D6798E"/>
<path d="M195.914 83.2449C195.009 85.1662 189.499 88.9987 187.794 88.7237C186.091 88.4487 184.365 84.8537 184.084 84.0224C183.803 83.1924 183.983 78.0974 183.936 77.1899C183.936 77.1799 183.936 77.1687 183.934 77.1587C183.924 76.9499 183.92 76.7474 183.921 76.5499C183.921 74.7999 184.296 73.4537 184.684 72.5299C185.075 71.5949 185.969 70.9637 186.98 70.9112C192.731 70.6137 194.87 73.1374 196.212 75.5462C197.661 78.1474 195.913 83.2437 195.913 83.2437L195.914 83.2449Z" fill="#FFC5CD"/>
<path d="M189.893 79.625C189.905 80.2275 189.689 80.7213 189.408 80.7275C189.126 80.7338 188.889 80.25 188.875 79.6463C188.863 79.0438 189.079 78.55 189.36 78.5438C189.641 78.5375 189.879 79.0213 189.893 79.625Z" fill="#2E234F"/>
<path d="M184.715 79.7224C184.726 80.2512 184.524 80.6837 184.261 80.6887C184 80.6949 183.778 80.2712 183.766 79.7424C183.755 79.2137 183.958 78.7812 184.22 78.7762C184.481 78.7699 184.704 79.1937 184.715 79.7224Z" fill="#2E234F"/>
<path d="M190.796 77.4273C190.843 77.4973 190.769 77.5861 190.691 77.5523C190.386 77.4211 189.855 77.2148 189.504 77.2123C188.986 77.2073 188.504 77.3061 188.445 77.2036C188.388 77.1011 188.638 76.5473 189.563 76.6148C190.195 76.6611 190.603 77.1348 190.796 77.4286V77.4273Z" fill="#2E234F"/>
<path d="M184.938 77.3198C184.866 77.4086 184.43 77.2436 183.936 77.1586C183.926 76.9498 183.923 76.7473 183.924 76.5498C183.928 76.5498 183.933 76.5498 183.936 76.5498C184.859 76.6386 185.013 77.2286 184.938 77.3186V77.3198Z" fill="#2E234F"/>
<path d="M185.351 83.5224C185.153 83.5261 184.976 83.4786 184.861 83.3449C184.556 82.9911 184.965 81.4711 185.531 79.5186C185.674 79.0249 185.798 78.5986 185.845 78.3736C185.859 78.3061 185.925 78.2624 185.993 78.2774C186.06 78.2911 186.104 78.3574 186.089 78.4249C186.04 78.6586 185.915 79.0899 185.77 79.5886C185.459 80.6649 184.809 82.9036 185.05 83.1811C185.291 83.4611 186.238 83.0436 186.658 82.7986C186.718 82.7636 186.794 82.7836 186.829 82.8436C186.864 82.9036 186.844 82.9799 186.784 83.0149C186.673 83.0799 185.916 83.5111 185.351 83.5224Z" fill="#D6798E"/>
<path d="M188.075 85.6088C187.826 85.6138 187.581 85.5375 187.346 85.38C186.94 85.1075 186.68 84.6713 186.586 84.4963C186.563 84.4538 186.551 84.4263 186.551 84.4263C186.538 84.3938 186.538 84.3563 186.551 84.325C186.566 84.2925 186.593 84.2675 186.626 84.2575L189.756 83.2525C189.794 83.2413 189.834 83.2475 189.866 83.27C189.898 83.2925 189.918 83.3288 189.919 83.3675C189.919 83.3925 189.934 83.975 189.636 84.5513C189.369 85.0713 188.939 85.4138 188.359 85.5675C188.263 85.5938 188.168 85.6075 188.073 85.6088H188.075ZM186.848 84.4488C186.948 84.6213 187.171 84.96 187.486 85.1725C187.748 85.3488 188.02 85.4 188.296 85.3263C188.805 85.1913 189.181 84.8925 189.415 84.4363C189.59 84.095 189.645 83.745 189.663 83.5438L186.848 84.4488Z" fill="#EA5F61"/>
<path d="M189.795 83.3701C189.795 83.3701 189.813 83.9389 189.528 84.4926C189.324 84.8889 188.963 85.2776 188.33 85.4451C187.976 85.5401 187.669 85.4426 187.418 85.2751C187.034 85.0176 186.783 84.5939 186.699 84.4364C186.678 84.3989 186.668 84.3751 186.668 84.3751L189.776 83.3764L189.796 83.3701H189.795Z" fill="#911E26"/>
<path d="M189.775 83.3762C189.463 83.65 188.581 84.3825 187.934 84.5662C187.39 84.72 186.934 84.5575 186.699 84.4362C186.678 84.3987 186.668 84.375 186.668 84.375L189.776 83.3762H189.775Z" fill="white"/>
<path d="M189.528 84.4939C189.324 84.8901 188.963 85.2789 188.33 85.4464C187.976 85.5414 187.669 85.4439 187.418 85.2764C187.653 85.0664 188.051 84.7526 188.468 84.6351C188.828 84.5339 189.235 84.5014 189.528 84.4939Z" fill="#CB4B51"/>
<path d="M191.273 71.4663C191.574 68.8179 189.671 66.427 187.022 66.1262C184.374 65.8254 181.983 67.7285 181.682 70.3769C181.381 73.0254 183.284 75.4162 185.933 75.717C188.581 76.0179 190.972 74.1147 191.273 71.4663Z" fill="#2E234F"/>
<path d="M193.993 76.1555C196 75.4713 197.072 73.2898 196.388 71.2832C195.703 69.2766 193.522 68.2046 191.515 68.8889C189.509 69.5732 188.437 71.7546 189.121 73.7612C189.805 75.7679 191.987 76.8398 193.993 76.1555Z" fill="#2E234F"/>
<path d="M195.093 71.4132C196.118 69.6162 195.493 67.3281 193.696 66.3027C191.899 65.2773 189.611 65.9028 188.585 67.6998C187.56 69.4968 188.185 71.7849 189.982 72.8103C191.779 73.8357 194.067 73.2102 195.093 71.4132Z" fill="#2E234F"/>
<path d="M198.437 74.2143C199.725 73.4782 200.171 71.8379 199.435 70.5506C198.699 69.2633 197.059 68.8165 195.772 69.5525C194.484 70.2886 194.038 71.9288 194.774 73.2161C195.51 74.5034 197.15 74.9503 198.437 74.2143Z" fill="#2E234F"/>
<path d="M196.936 70.1225C196.581 70.8675 195.689 71.1825 194.945 70.8275C194.2 70.4725 193.885 69.58 194.24 68.8362C194.595 68.0912 195.487 67.7762 196.231 68.1312C196.976 68.4862 197.291 69.3787 196.936 70.1225Z" fill="#2E234F"/>
<path d="M199.739 78.2986C198.195 79.7086 196.05 79.8723 194.945 78.6636C193.841 77.4548 194.198 75.3323 195.74 73.9223C197.284 72.5123 199.429 72.3486 200.534 73.5573C201.638 74.7661 201.281 76.8886 199.739 78.2986Z" fill="#2E234F"/>
<path d="M197.228 77.8C198.291 78.4088 197.848 80.8763 196.428 81.6363C196.018 81.855 194.904 80.235 195.118 79.2838C195.331 78.3313 195.97 77.0813 197.226 77.8H197.228Z" fill="#FFC5CD"/>
<path d="M194.445 75.9561C194.445 75.9561 192.309 79.1111 195.221 80.3436C195.221 80.3436 195.034 78.7311 195.65 78.0648L194.446 75.9561H194.445Z" fill="#2E234F"/>
<path d="M195.685 79.7811C195.685 79.7811 195.674 79.7811 195.669 79.7811C195.6 79.7736 195.55 79.7123 195.558 79.6436C195.64 78.8698 195.85 78.3573 196.183 78.1211C196.425 77.9486 196.64 77.9923 196.664 77.9973C196.731 78.0136 196.773 78.0798 196.758 78.1473C196.743 78.2136 196.675 78.2561 196.609 78.2411C196.6 78.2398 196.473 78.2173 196.32 78.3311C196.136 78.4661 195.899 78.8086 195.808 79.6711C195.801 79.7348 195.748 79.7811 195.686 79.7823L195.685 79.7811Z" fill="#D6798E"/>
<path d="M208.551 134.601C207.774 135.331 201.639 136.23 196.13 136.777C196.955 133.724 198.44 130.045 199.124 127.389C200.324 122.731 201.051 119.866 200.686 118.295C199.728 114.166 198.144 114.237 197.091 113.837C196.04 113.437 195.355 100.917 195.355 100.917L203.69 93.4036C203.873 93.6661 204.04 93.9411 204.194 94.2323C204.384 94.5873 204.554 94.9648 204.701 95.3648C205.19 96.6848 205.669 98.0711 206.125 99.4873C207.74 104.504 209.071 109.911 209.549 114.232C210.131 119.494 209.871 133.364 208.553 134.602L208.551 134.601Z" fill="#1A7D87"/>
<path d="M202.485 118.842C202.503 119.397 198.705 139.78 197.576 141.237C197.303 141.591 195.133 143.37 193.4 145.034C192.928 145.487 193.494 146.244 194.06 145.912C194.773 145.496 195.425 145.049 195.796 144.635C196.034 144.706 195.609 145.864 195.149 146.537C194.909 146.889 193.854 148.632 192.898 150.224C192.598 150.724 193.235 151.256 193.673 150.87L196.79 146.567L195.218 151.832C195.053 152.384 195.771 152.756 196.128 152.304L198.054 147.274L197.746 152.102C197.708 152.712 198.539 152.93 198.803 152.377L199.653 147.196L200.38 150.881C200.47 151.336 201.143 151.266 201.136 150.802C201.136 150.79 201.136 150.777 201.136 150.765C201.104 148.88 200.805 146.914 200.888 146.759C201.029 146.492 201.735 144.802 201.75 142.855C201.761 141.332 206.555 126.079 208.185 120.935C208.538 119.824 208.638 118.649 208.48 117.495L206.483 102.896L198.436 103.49C198.436 103.49 202.469 118.287 202.486 118.842H202.485Z" fill="#FFC5CD"/>
<path d="M201.584 91.2962C204.054 93.0862 207.003 96.0075 207.676 98.955C208.334 101.834 210.39 110.02 209.936 110.949C209.32 112.209 199.709 113.159 198.845 112.37C197.981 111.581 194.686 99.0662 194.67 97.2775C194.653 95.4887 195.548 92.8062 197.393 92.0237C199.238 91.2412 201.585 91.2962 201.585 91.2962H201.584Z" fill="#209AA6"/>
</svg>
