<svg width="251" height="251" viewBox="0 0 251 251" fill="none" xmlns="http://www.w3.org/2000/svg">
<path d="M45.0294 210.852C40.245 206.133 22.4477 187.219 26.3363 170.406C28.9912 158.928 39.4578 157.725 41.6307 145.595C44.5792 129.136 27.1614 120.994 30.7547 107.529C33.5473 97.0647 44.8902 98.9042 58.2847 85.7773C77.9039 66.55 69.9864 46.5135 83.4355 40.5738C96.5888 34.7648 105.395 53.3853 139.515 62.3258C167.899 69.7631 182.726 62.3598 189.477 72.862C197.487 85.3236 180.226 101.373 189.137 115.686C197.098 128.474 217.231 125.868 218.706 135.399C219.919 143.231 206.823 148.217 208.51 156.471C209.981 163.671 220.694 163.552 224.144 170.406C229.396 180.838 214.256 200.33 202.392 210.851H45.0294V210.852Z" fill="#EBF2FF"/>
<path d="M232.234 211.192C232.234 211.378 232.084 211.528 231.899 211.528H19.1016C18.9103 211.528 18.7566 211.368 18.7666 211.174C18.7753 210.993 18.9391 210.857 19.1203 210.857H231.899C232.084 210.857 232.234 211.007 232.234 211.192Z" fill="#1A7D87"/>
<path d="M35.2027 95.1068C35.7759 95.1068 36.2405 94.6421 36.2405 94.0689C36.2405 93.4957 35.7759 93.031 35.2027 93.031C34.6295 93.031 34.1648 93.4957 34.1648 94.0689C34.1648 94.6421 34.6295 95.1068 35.2027 95.1068Z" fill="#FF6482"/>
<path d="M123.486 192.384C124.059 192.384 124.524 191.92 124.524 191.346C124.524 190.773 124.059 190.309 123.486 190.309C122.912 190.309 122.448 190.773 122.448 191.346C122.448 191.92 122.912 192.384 123.486 192.384Z" fill="#FF6482"/>
<path d="M219.342 159.669C219.915 159.669 220.38 159.204 220.38 158.631C220.38 158.057 219.915 157.593 219.342 157.593C218.769 157.593 218.304 158.057 218.304 158.631C218.304 159.204 218.769 159.669 219.342 159.669Z" fill="#4ED066"/>
<path d="M108.405 46.324C108.978 46.324 109.442 45.8594 109.442 45.2862C109.442 44.713 108.978 44.2483 108.405 44.2483C107.831 44.2483 107.367 44.713 107.367 45.2862C107.367 45.8594 107.831 46.324 108.405 46.324Z" fill="#4ED066"/>
<path d="M26.823 177.471C27.3962 177.471 27.8609 177.007 27.8609 176.434C27.8609 175.86 27.3962 175.396 26.823 175.396C26.2498 175.396 25.7852 175.86 25.7852 176.434C25.7852 177.007 26.2498 177.471 26.823 177.471Z" fill="#514592"/>
<path d="M201.452 75.3428C202.026 75.3428 202.49 74.8782 202.49 74.305C202.49 73.7318 202.026 73.2671 201.452 73.2671C200.879 73.2671 200.415 73.7318 200.415 74.305C200.415 74.8782 200.879 75.3428 201.452 75.3428Z" fill="#514592"/>
<path d="M46.4886 163.758C46.3918 163.758 46.2998 163.701 46.2608 163.606C45.7118 162.272 46.0474 157.176 46.4361 151.276C46.9263 143.834 47.5364 134.574 46.1533 133.096C45.9583 132.888 45.7358 132.871 45.5229 133.106C43.4777 135.352 44.6326 153.962 45.5287 163.489C45.5412 163.624 45.4416 163.744 45.3062 163.757C45.1742 163.766 45.0504 163.67 45.0374 163.535C44.9309 162.401 42.4572 135.741 45.1578 132.774C45.5584 132.334 46.1253 132.346 46.5134 132.759C48.0424 134.393 47.4761 142.992 46.9281 151.308C46.5592 156.904 46.2111 162.19 46.7162 163.418C46.7682 163.544 46.7079 163.688 46.5823 163.739C46.5516 163.753 46.5198 163.758 46.4886 163.758Z" fill="#4ED066"/>
<path d="M47.1795 163.758C47.1736 163.758 47.1675 163.758 47.1617 163.757C47.0657 163.748 46.9953 163.662 47.0053 163.566C47.0097 163.521 47.4722 158.992 48.9148 154.394C50.8667 148.174 53.585 144.794 56.9945 144.35C58.3383 144.175 59.1226 144.346 59.3937 144.873C60.0333 146.118 57.4456 148.888 54.7062 151.82C52.7875 153.874 50.3991 156.43 50.8585 157.004C50.9643 157.137 51.0753 157.198 51.2068 157.198C51.7792 157.198 52.6628 156.092 53.5173 155.023C54.8582 153.345 56.2441 151.609 57.4637 152.421C57.6693 152.558 57.7865 152.769 57.8028 153.032C57.9545 155.472 48.8307 163.38 48.4425 163.716C48.3693 163.778 48.2591 163.771 48.1958 163.698C48.1327 163.625 48.1405 163.514 48.2136 163.451C50.8236 161.197 57.571 154.936 57.4538 153.054C57.444 152.898 57.3856 152.79 57.2697 152.712C56.3172 152.079 54.9746 153.758 53.7905 155.241C52.8013 156.479 51.9472 157.548 51.2071 157.548C51.2067 157.548 51.2067 157.548 51.2067 157.548C50.9673 157.548 50.758 157.439 50.5851 157.223C49.9682 156.451 51.6521 154.576 54.4506 151.581C56.7491 149.121 59.6098 146.059 59.0825 145.033C58.8922 144.663 58.1863 144.547 57.0395 144.697C49.2252 145.716 47.371 163.422 47.3528 163.601C47.3441 163.691 47.2682 163.758 47.1795 163.758Z" fill="#4ED066"/>
<path d="M44.3734 163.988C44.2439 163.988 44.1355 163.887 44.1272 163.756C42.8621 143.331 39.3414 139.964 38.6484 139.496C38.4817 139.384 38.2381 139.265 38.0232 139.336C37.9804 139.35 37.9177 139.383 37.8644 139.501C37.4926 140.329 38.3262 142.967 39.0414 144.873C39.2889 145.417 39.497 145.936 39.6587 146.421C39.7006 146.546 39.6361 146.682 39.5124 146.729C39.3895 146.774 39.2499 146.717 39.1979 146.596C39.1227 146.42 38.8742 145.833 38.5805 145.056C36.204 139.872 30.0836 132.218 27.4211 131.386C27.123 131.293 26.8967 131.3 26.7512 131.409C26.4632 131.626 26.3096 131.875 26.2826 132.175C26.1747 133.359 27.945 135.275 30.1862 137.702C30.8277 138.396 31.512 139.137 32.2122 139.925C35.7349 143.888 40.7182 154.271 41.8754 156.733C41.9582 156.896 42.0386 157.068 42.1171 157.25C42.1701 157.375 42.1137 157.518 41.9905 157.573C41.8691 157.627 41.7227 157.574 41.6664 157.451C41.6596 157.436 41.573 157.249 41.4194 156.923C40.6566 155.438 39.7329 154.831 39.0616 154.585C38.2362 154.283 37.4907 154.399 37.0694 154.61C36.9682 155.062 39.3057 157.579 41.5629 159.631C41.6616 159.721 41.6712 159.872 41.585 159.973C41.4969 160.075 41.3461 160.088 41.2431 160.006C38.8131 158.061 36.9779 157.943 36.1447 158.434C35.8659 158.598 35.7147 158.831 35.7504 159.041C35.7917 159.286 36.0774 159.484 36.5141 159.572C39.0202 160.073 42.3647 163.199 42.5059 163.332C42.6051 163.426 42.6099 163.582 42.5165 163.681C42.4231 163.78 42.267 163.784 42.1679 163.692C42.1341 163.66 38.7854 160.529 36.4179 160.055C35.7625 159.924 35.342 159.584 35.264 159.123C35.1936 158.706 35.4354 158.279 35.8949 158.009C36.61 157.589 37.8211 157.519 39.3911 158.247C38.0144 156.874 36.5046 155.197 36.598 154.521C36.6196 154.363 36.7087 154.239 36.8489 154.168C37.3622 153.912 38.257 153.764 39.2316 154.122C39.5774 154.248 39.9814 154.458 40.3985 154.804C38.4429 150.81 34.625 143.381 31.8434 140.252C31.146 139.467 30.4636 138.729 29.8241 138.036C27.409 135.422 25.6639 133.533 25.7915 132.13C25.8315 131.691 26.0549 131.315 26.4556 131.014C26.735 130.805 27.1091 130.772 27.5685 130.915C29.9465 131.658 34.7449 137.272 37.6497 142.224C37.3276 141.013 37.1556 139.876 37.4147 139.299C37.5115 139.084 37.6681 138.934 37.8674 138.868C38.0909 138.794 38.4554 138.771 38.9245 139.088C39.945 139.776 43.3722 143.589 44.6195 163.726C44.6276 163.862 44.5246 163.979 44.3889 163.987C44.3835 163.988 44.3782 163.988 44.3734 163.988Z" fill="#4ED066"/>
<path d="M56.4378 200.249C56.4378 206.106 51.6904 210.852 45.8355 210.852C39.9794 210.852 35.2332 206.105 35.2332 200.249L39.6717 163.512H51.506L54.1245 183.022L54.1258 183.024L56.4378 200.249Z" fill="#209AA6"/>
<path d="M50.2735 166.471H41.3973C41.261 166.471 41.1506 166.36 41.1506 166.224C41.1506 166.088 41.2609 165.977 41.3973 165.977H50.2735C50.4098 165.977 50.5201 166.088 50.5201 166.224C50.52 166.36 50.4098 166.471 50.2735 166.471Z" fill="#1A7D87"/>
<path d="M56.4378 200.249C56.4378 206.106 51.6904 210.852 45.8355 210.852C39.9794 210.852 35.2332 206.105 35.2332 200.249C35.2332 200.249 39.6884 208.791 45.8355 208.791C49.7937 208.791 52.1582 205.248 53.34 202.726C53.9693 201.383 54.2819 199.914 54.2682 198.431L54.1247 183.022L54.1259 183.024L56.4378 200.249Z" fill="#1A7D87"/>
<path d="M179.372 63.3872V144.422C179.372 145.79 178.975 147.066 178.289 148.142C177.056 150.076 174.892 151.362 172.433 151.362H78.5683C74.7402 151.362 71.6274 148.249 71.6274 144.422V63.3872C71.6274 62.2897 71.8839 61.2516 72.3411 60.3269C73.3408 58.2976 75.3037 56.8267 77.6313 56.511H77.6331C77.9402 56.4691 78.2507 56.4482 78.5683 56.4482H172.433C174.346 56.4482 176.081 57.2264 177.337 58.4829C178.594 59.7392 179.372 61.474 179.372 63.3872Z" fill="white"/>
<path d="M172.433 56.4476C176.259 56.4476 179.372 59.5606 179.372 63.3871V144.422C179.372 148.248 176.259 151.361 172.433 151.361H78.5672C74.7407 151.361 71.6277 148.248 71.6277 144.422V63.3871C71.6277 59.5607 74.7407 56.4476 78.5672 56.4476H172.433ZM172.433 55.5752H78.5672C74.2529 55.5752 70.7554 59.0727 70.7554 63.3871V144.422C70.7554 148.736 74.2529 152.234 78.5672 152.234H172.433C176.747 152.234 180.245 148.736 180.245 144.422V63.3871C180.245 59.0727 176.747 55.5752 172.433 55.5752Z" fill="#E8EFF9"/>
<path d="M179.63 66.8932H71.3806C71.1397 66.8932 70.9443 66.698 70.9443 66.457C70.9443 66.2161 71.1396 66.0208 71.3806 66.0208H179.63C179.871 66.0208 180.066 66.216 180.066 66.457C180.066 66.698 179.871 66.8932 179.63 66.8932Z" fill="#E8EFF9"/>
<path d="M88.4563 62.6173C89.0535 62.6173 89.5378 62.1331 89.5378 61.5358C89.5378 60.9385 89.0535 60.4543 88.4563 60.4543C87.859 60.4543 87.3748 60.9385 87.3748 61.5358C87.3748 62.1331 87.859 62.6173 88.4563 62.6173Z" fill="#4ED066"/>
<path d="M83.7461 62.6173C84.3434 62.6173 84.8276 62.1331 84.8276 61.5358C84.8276 60.9385 84.3434 60.4543 83.7461 60.4543C83.1488 60.4543 82.6646 60.9385 82.6646 61.5358C82.6646 62.1331 83.1488 62.6173 83.7461 62.6173Z" fill="#FB9B5B"/>
<path d="M79.0356 62.6173C79.6329 62.6173 80.1171 62.1331 80.1171 61.5358C80.1171 60.9385 79.6329 60.4543 79.0356 60.4543C78.4383 60.4543 77.9541 60.9385 77.9541 61.5358C77.9541 62.1331 78.4383 62.6173 79.0356 62.6173Z" fill="#FF6482"/>
<path d="M151.059 130.104H99.9005C97.2291 130.104 95.0635 127.938 95.0635 125.267V87.1458C95.0635 84.4745 97.2291 82.3088 99.9005 82.3088H151.059C153.731 82.3088 155.896 84.4745 155.896 87.1458V125.267C155.896 127.938 153.731 130.104 151.059 130.104Z" fill="#209AA6"/>
<path d="M147.178 127.055H103.782C101.11 127.055 98.9446 124.889 98.9446 122.218V90.1954C98.9446 87.524 101.11 85.3584 103.782 85.3584H147.178C149.849 85.3584 152.015 87.524 152.015 90.1954V122.218C152.015 124.889 149.849 127.055 147.178 127.055Z" fill="#2E234F"/>
<path d="M135 107.25C135 113.5 130.625 116.625 125.425 118.438C125.153 118.53 124.857 118.525 124.588 118.425C119.375 116.625 115 113.5 115 107.25V98.5001C115 98.1686 115.132 97.8506 115.366 97.6162C115.601 97.3818 115.919 97.2501 116.25 97.2501C118.75 97.2501 121.875 95.7501 124.05 93.8501C124.315 93.6238 124.652 93.4995 125 93.4995C125.349 93.4995 125.685 93.6238 125.95 93.8501C128.138 95.7626 131.25 97.2501 133.75 97.2501C134.082 97.2501 134.4 97.3818 134.634 97.6162C134.869 97.8506 135 98.1686 135 98.5001V107.25Z" fill="#209AA6"/>
<path d="M121.25 106L123.75 108.5L128.75 103.5" stroke="white" stroke-width="1.33" stroke-linecap="round" stroke-linejoin="round"/>
<path d="M139.441 85.9807C139.097 85.9807 138.819 85.702 138.819 85.3583V82.3088C138.819 81.9652 139.097 81.6865 139.441 81.6865C139.785 81.6865 140.063 81.9652 140.063 82.3088V85.3583C140.063 85.702 139.785 85.9807 139.441 85.9807Z" fill="white"/>
<path d="M135.452 85.9807C135.108 85.9807 134.83 85.702 134.83 85.3583V82.3088C134.83 81.9652 135.108 81.6865 135.452 81.6865C135.796 81.6865 136.074 81.9652 136.074 82.3088V85.3583C136.074 85.702 135.796 85.9807 135.452 85.9807Z" fill="white"/>
<path d="M131.463 85.9807C131.119 85.9807 130.841 85.702 130.841 85.3583V82.3088C130.841 81.9652 131.119 81.6865 131.463 81.6865C131.807 81.6865 132.085 81.9652 132.085 82.3088V85.3583C132.085 85.702 131.807 85.9807 131.463 85.9807Z" fill="white"/>
<path d="M127.474 85.9807C127.131 85.9807 126.852 85.702 126.852 85.3583V82.3088C126.852 81.9652 127.131 81.6865 127.474 81.6865C127.818 81.6865 128.097 81.9652 128.097 82.3088V85.3583C128.097 85.702 127.818 85.9807 127.474 85.9807Z" fill="white"/>
<path d="M123.486 85.9807C123.142 85.9807 122.863 85.702 122.863 85.3583V82.3088C122.863 81.9652 123.142 81.6865 123.486 81.6865C123.829 81.6865 124.108 81.9652 124.108 82.3088V85.3583C124.108 85.702 123.829 85.9807 123.486 85.9807Z" fill="white"/>
<path d="M119.497 85.9807C119.153 85.9807 118.875 85.702 118.875 85.3583V82.3088C118.875 81.9652 119.153 81.6865 119.497 81.6865C119.841 81.6865 120.119 81.9652 120.119 82.3088V85.3583C120.119 85.702 119.841 85.9807 119.497 85.9807Z" fill="white"/>
<path d="M115.508 85.9807C115.164 85.9807 114.886 85.702 114.886 85.3583V82.3088C114.886 81.9652 115.164 81.6865 115.508 81.6865C115.852 81.6865 116.13 81.9652 116.13 82.3088V85.3583C116.13 85.702 115.852 85.9807 115.508 85.9807Z" fill="white"/>
<path d="M111.519 85.9807C111.175 85.9807 110.897 85.702 110.897 85.3583V82.3088C110.897 81.9652 111.175 81.6865 111.519 81.6865C111.863 81.6865 112.141 81.9652 112.141 82.3088V85.3583C112.141 85.702 111.863 85.9807 111.519 85.9807Z" fill="white"/>
<path d="M139.441 130.726C139.097 130.726 138.819 130.448 138.819 130.104V127.055C138.819 126.711 139.097 126.432 139.441 126.432C139.785 126.432 140.063 126.711 140.063 127.055V130.104C140.063 130.448 139.785 130.726 139.441 130.726Z" fill="white"/>
<path d="M135.452 130.726C135.108 130.726 134.83 130.448 134.83 130.104V127.055C134.83 126.711 135.108 126.432 135.452 126.432C135.796 126.432 136.074 126.711 136.074 127.055V130.104C136.074 130.448 135.796 130.726 135.452 130.726Z" fill="white"/>
<path d="M131.463 130.726C131.119 130.726 130.841 130.448 130.841 130.104V127.055C130.841 126.711 131.119 126.432 131.463 126.432C131.807 126.432 132.085 126.711 132.085 127.055V130.104C132.085 130.448 131.807 130.726 131.463 130.726Z" fill="white"/>
<path d="M127.474 130.726C127.131 130.726 126.852 130.448 126.852 130.104V127.055C126.852 126.711 127.131 126.432 127.474 126.432C127.818 126.432 128.097 126.711 128.097 127.055V130.104C128.097 130.448 127.818 130.726 127.474 130.726Z" fill="white"/>
<path d="M123.486 130.726C123.142 130.726 122.863 130.448 122.863 130.104V127.055C122.863 126.711 123.142 126.432 123.486 126.432C123.829 126.432 124.108 126.711 124.108 127.055V130.104C124.108 130.448 123.829 130.726 123.486 130.726Z" fill="white"/>
<path d="M119.497 130.726C119.153 130.726 118.875 130.448 118.875 130.104V127.055C118.875 126.711 119.153 126.432 119.497 126.432C119.841 126.432 120.119 126.711 120.119 127.055V130.104C120.119 130.448 119.841 130.726 119.497 130.726Z" fill="white"/>
<path d="M115.508 130.726C115.164 130.726 114.886 130.448 114.886 130.104V127.055C114.886 126.711 115.164 126.432 115.508 126.432C115.852 126.432 116.13 126.711 116.13 127.055V130.104C116.13 130.448 115.852 130.726 115.508 130.726Z" fill="white"/>
<path d="M111.519 130.726C111.175 130.726 110.897 130.448 110.897 130.104V127.055C110.897 126.711 111.175 126.432 111.519 126.432C111.863 126.432 112.141 126.711 112.141 127.055V130.104C112.141 130.448 111.863 130.726 111.519 130.726Z" fill="white"/>
<path d="M98.1129 92.3922H95.0635C94.7199 92.3922 94.4412 92.1136 94.4412 91.77C94.4412 91.4263 94.7198 91.1477 95.0635 91.1477H98.1129C98.4565 91.1477 98.7352 91.4263 98.7352 91.77C98.7352 92.1136 98.4565 92.3922 98.1129 92.3922Z" fill="white"/>
<path d="M98.1129 96.3811H95.0635C94.7199 96.3811 94.4412 96.1025 94.4412 95.7587C94.4412 95.4151 94.7198 95.1365 95.0635 95.1365H98.1129C98.4565 95.1365 98.7352 95.4151 98.7352 95.7587C98.7352 96.1025 98.4565 96.3811 98.1129 96.3811Z" fill="white"/>
<path d="M98.1129 100.37H95.0635C94.7199 100.37 94.4412 100.091 94.4412 99.7479C94.4412 99.4041 94.7198 99.1255 95.0635 99.1255H98.1129C98.4565 99.1255 98.7352 99.4041 98.7352 99.7479C98.7352 100.091 98.4565 100.37 98.1129 100.37Z" fill="white"/>
<path d="M98.1129 104.359H95.0635C94.7199 104.359 94.4412 104.08 94.4412 103.737C94.4412 103.393 94.7198 103.114 95.0635 103.114H98.1129C98.4565 103.114 98.7352 103.393 98.7352 103.737C98.7352 104.08 98.4565 104.359 98.1129 104.359Z" fill="white"/>
<path d="M98.1129 108.348H95.0635C94.7199 108.348 94.4412 108.069 94.4412 107.725C94.4412 107.382 94.7198 107.103 95.0635 107.103H98.1129C98.4565 107.103 98.7352 107.382 98.7352 107.725C98.7352 108.069 98.4565 108.348 98.1129 108.348Z" fill="white"/>
<path d="M98.1129 112.337H95.0635C94.7199 112.337 94.4412 112.058 94.4412 111.714C94.4412 111.371 94.7198 111.092 95.0635 111.092H98.1129C98.4565 111.092 98.7352 111.371 98.7352 111.714C98.7352 112.058 98.4565 112.337 98.1129 112.337Z" fill="white"/>
<path d="M98.1129 116.326H95.0635C94.7199 116.326 94.4412 116.047 94.4412 115.703C94.4412 115.36 94.7198 115.081 95.0635 115.081H98.1129C98.4565 115.081 98.7352 115.36 98.7352 115.703C98.7352 116.047 98.4565 116.326 98.1129 116.326Z" fill="white"/>
<path d="M98.1129 120.314H95.0635C94.7199 120.314 94.4412 120.036 94.4412 119.692C94.4412 119.348 94.7198 119.07 95.0635 119.07H98.1129C98.4565 119.07 98.7352 119.348 98.7352 119.692C98.7352 120.036 98.4565 120.314 98.1129 120.314Z" fill="white"/>
<path d="M155.937 92.3922H152.888C152.544 92.3922 152.265 92.1136 152.265 91.77C152.265 91.4263 152.544 91.1477 152.888 91.1477H155.937C156.281 91.1477 156.559 91.4263 156.559 91.77C156.559 92.1136 156.281 92.3922 155.937 92.3922Z" fill="white"/>
<path d="M155.937 96.3811H152.888C152.544 96.3811 152.265 96.1025 152.265 95.7587C152.265 95.4151 152.544 95.1365 152.888 95.1365H155.937C156.281 95.1365 156.559 95.4151 156.559 95.7587C156.559 96.1025 156.281 96.3811 155.937 96.3811Z" fill="white"/>
<path d="M155.937 100.37H152.888C152.544 100.37 152.265 100.091 152.265 99.7479C152.265 99.4041 152.544 99.1255 152.888 99.1255H155.937C156.281 99.1255 156.559 99.4041 156.559 99.7479C156.559 100.091 156.281 100.37 155.937 100.37Z" fill="white"/>
<path d="M155.937 104.359H152.888C152.544 104.359 152.265 104.08 152.265 103.737C152.265 103.393 152.544 103.114 152.888 103.114H155.937C156.281 103.114 156.559 103.393 156.559 103.737C156.559 104.08 156.281 104.359 155.937 104.359Z" fill="white"/>
<path d="M155.937 108.348H152.888C152.544 108.348 152.265 108.069 152.265 107.725C152.265 107.382 152.544 107.103 152.888 107.103H155.937C156.281 107.103 156.559 107.382 156.559 107.725C156.559 108.069 156.281 108.348 155.937 108.348Z" fill="white"/>
<path d="M155.937 112.337H152.888C152.544 112.337 152.265 112.058 152.265 111.714C152.265 111.371 152.544 111.092 152.888 111.092H155.937C156.281 111.092 156.559 111.371 156.559 111.714C156.559 112.058 156.281 112.337 155.937 112.337Z" fill="white"/>
<path d="M155.937 116.326H152.888C152.544 116.326 152.265 116.047 152.265 115.703C152.265 115.36 152.544 115.081 152.888 115.081H155.937C156.281 115.081 156.559 115.36 156.559 115.703C156.559 116.047 156.281 116.326 155.937 116.326Z" fill="white"/>
<path d="M155.937 120.314H152.888C152.544 120.314 152.265 120.036 152.265 119.692C152.265 119.348 152.544 119.07 152.888 119.07H155.937C156.281 119.07 156.559 119.348 156.559 119.692C156.559 120.036 156.281 120.314 155.937 120.314Z" fill="white"/>
<path d="M66.3062 68.5484C66.3062 72.4478 63.1451 75.61 59.2446 75.61H50.5938V69.9125H52.5367L47.759 64.3251L42.9798 69.9125H44.9226V75.61H36.2718C32.3712 75.61 29.2102 72.4478 29.2102 68.5484C29.2102 64.7948 32.1382 61.7268 35.8343 61.5016C37.3902 59.7403 39.6305 58.5989 42.1393 58.4968C43.4851 55.292 46.6531 53.0415 50.347 53.0415C55.1098 53.0415 58.9977 56.7825 59.2331 61.4868H59.2446C63.1451 61.4868 66.3062 64.6479 66.3062 68.5484Z" fill="#209AA6"/>
<path d="M101.457 166.744H68.7568V210.852H101.457V166.744Z" fill="#2E234F"/>
<path d="M102.71 171.695H67.5042C66.9917 171.695 66.5762 171.279 66.5762 170.767V162.722C66.5762 162.209 66.9917 161.794 67.5042 161.794H102.71C103.222 161.794 103.638 162.209 103.638 162.722V170.767C103.638 171.279 103.223 171.695 102.71 171.695Z" fill="#F93D69"/>
<path d="M103.624 171.012H66.5897C65.9807 171.012 65.4871 170.518 65.4871 169.909V163.579C65.4871 162.97 65.9807 162.477 66.5897 162.477H103.624C104.233 162.477 104.727 162.97 104.727 163.579V169.909C104.727 170.518 104.233 171.012 103.624 171.012Z" fill="#FF6483"/>
<path d="M71.0496 164.82H69.2931C68.9747 164.82 68.7166 164.561 68.7166 164.243C68.7166 163.925 68.9747 163.667 69.2931 163.667H71.0496C71.3679 163.667 71.6261 163.925 71.6261 164.243C71.6259 164.561 71.3679 164.82 71.0496 164.82Z" fill="white"/>
<path d="M75.4705 164.82H73.714C73.3956 164.82 73.1375 164.561 73.1375 164.243C73.1375 163.925 73.3956 163.667 73.714 163.667H75.4705C75.7888 163.667 76.047 163.925 76.047 164.243C76.047 164.561 75.7888 164.82 75.4705 164.82Z" fill="white"/>
<path d="M79.8916 164.82H78.1351C77.8167 164.82 77.5586 164.561 77.5586 164.243C77.5586 163.925 77.8167 163.667 78.1351 163.667H79.8916C80.21 163.667 80.4681 163.925 80.4681 164.243C80.4681 164.561 80.21 164.82 79.8916 164.82Z" fill="white"/>
<path d="M84.3125 164.82H82.556C82.2376 164.82 81.9795 164.561 81.9795 164.243C81.9795 163.925 82.2376 163.667 82.556 163.667H84.3125C84.6309 163.667 84.889 163.925 84.889 164.243C84.889 164.561 84.6309 164.82 84.3125 164.82Z" fill="white"/>
<path d="M71.0496 167.32H69.2931C68.9747 167.32 68.7166 167.062 68.7166 166.744C68.7166 166.426 68.9747 166.167 69.2931 166.167H71.0496C71.3679 166.167 71.6261 166.426 71.6261 166.744C71.6261 167.062 71.3679 167.32 71.0496 167.32Z" fill="white"/>
<path d="M75.4705 167.32H73.714C73.3956 167.32 73.1375 167.062 73.1375 166.744C73.1375 166.426 73.3956 166.167 73.714 166.167H75.4705C75.7888 166.167 76.047 166.426 76.047 166.744C76.047 167.062 75.7888 167.32 75.4705 167.32Z" fill="#4ED066"/>
<path d="M79.8916 167.32H78.1351C77.8167 167.32 77.5586 167.062 77.5586 166.744C77.5586 166.426 77.8167 166.167 78.1351 166.167H79.8916C80.21 166.167 80.4681 166.426 80.4681 166.744C80.4681 167.062 80.21 167.32 79.8916 167.32Z" fill="white"/>
<path d="M84.3125 167.32H82.556C82.2376 167.32 81.9795 167.062 81.9795 166.744C81.9795 166.426 82.2376 166.167 82.556 166.167H84.3125C84.6309 166.167 84.889 166.426 84.889 166.744C84.889 167.062 84.6309 167.32 84.3125 167.32Z" fill="white"/>
<path d="M71.0496 169.821H69.2931C68.9747 169.821 68.7166 169.563 68.7166 169.245C68.7166 168.927 68.9747 168.668 69.2931 168.668H71.0496C71.3679 168.668 71.6261 168.927 71.6261 169.245C71.6259 169.563 71.3679 169.821 71.0496 169.821Z" fill="white"/>
<path d="M75.4705 169.821H73.714C73.3956 169.821 73.1375 169.563 73.1375 169.245C73.1375 168.927 73.3956 168.668 73.714 168.668H75.4705C75.7888 168.668 76.047 168.927 76.047 169.245C76.047 169.563 75.7888 169.821 75.4705 169.821Z" fill="white"/>
<path d="M79.8916 169.821H78.1351C77.8167 169.821 77.5586 169.563 77.5586 169.245C77.5586 168.927 77.8167 168.668 78.1351 168.668H79.8916C80.21 168.668 80.4681 168.927 80.4681 169.245C80.4681 169.563 80.21 169.821 79.8916 169.821Z" fill="white"/>
<path d="M84.3125 169.821H82.556C82.2376 169.821 81.9795 169.563 81.9795 169.245C81.9795 168.927 82.2376 168.668 82.556 168.668H84.3125C84.6309 168.668 84.889 168.927 84.889 169.245C84.889 169.563 84.6309 169.821 84.3125 169.821Z" fill="#4ED066"/>
<path d="M92.3184 165.102C91.4129 165.102 90.6763 165.839 90.6763 166.744C90.6763 167.65 91.4129 168.386 92.3184 168.386C93.2238 168.386 93.9605 167.65 93.9605 166.744C93.9605 165.839 93.2239 165.102 92.3184 165.102Z" fill="#F93D69"/>
<path d="M96.8675 165.102C95.962 165.102 95.2253 165.839 95.2253 166.744C95.2253 167.65 95.962 168.386 96.8675 168.386C97.7728 168.386 98.5096 167.65 98.5096 166.744C98.5096 165.839 97.773 165.102 96.8675 165.102Z" fill="#F93D69"/>
<path d="M101.417 165.102C100.511 165.102 99.7744 165.839 99.7744 166.744C99.7744 167.65 100.511 168.386 101.417 168.386C102.322 168.386 103.059 167.65 103.059 166.744C103.059 165.839 102.322 165.102 101.417 165.102Z" fill="#F99BB2"/>
<path d="M102.71 183.996H67.5042C66.9917 183.996 66.5762 183.58 66.5762 183.068V175.023C66.5762 174.51 66.9917 174.095 67.5042 174.095H102.71C103.222 174.095 103.638 174.51 103.638 175.023V183.068C103.638 183.58 103.223 183.996 102.71 183.996Z" fill="#F93D69"/>
<path d="M103.624 183.313H66.5897C65.9807 183.313 65.4871 182.819 65.4871 182.21V175.88C65.4871 175.271 65.9807 174.778 66.5897 174.778H103.624C104.233 174.778 104.727 175.271 104.727 175.88V182.21C104.727 182.819 104.233 183.313 103.624 183.313Z" fill="#FF6483"/>
<path d="M71.0496 177.121H69.2931C68.9747 177.121 68.7166 176.863 68.7166 176.544C68.7166 176.226 68.9747 175.968 69.2931 175.968H71.0496C71.3679 175.968 71.6261 176.226 71.6261 176.544C71.6261 176.863 71.3679 177.121 71.0496 177.121Z" fill="#4ED066"/>
<path d="M75.4705 177.121H73.714C73.3956 177.121 73.1375 176.863 73.1375 176.544C73.1375 176.226 73.3956 175.968 73.714 175.968H75.4705C75.7888 175.968 76.047 176.226 76.047 176.544C76.047 176.863 75.7888 177.121 75.4705 177.121Z" fill="white"/>
<path d="M79.8916 177.121H78.1351C77.8167 177.121 77.5586 176.863 77.5586 176.544C77.5586 176.226 77.8167 175.968 78.1351 175.968H79.8916C80.21 175.968 80.4681 176.226 80.4681 176.544C80.4681 176.863 80.21 177.121 79.8916 177.121Z" fill="white"/>
<path d="M84.3125 177.121H82.556C82.2376 177.121 81.9795 176.863 81.9795 176.544C81.9795 176.226 82.2376 175.968 82.556 175.968H84.3125C84.6309 175.968 84.889 176.226 84.889 176.544C84.889 176.863 84.6309 177.121 84.3125 177.121Z" fill="white"/>
<path d="M71.0496 179.622H69.2931C68.9747 179.622 68.7166 179.364 68.7166 179.045C68.7166 178.727 68.9747 178.469 69.2931 178.469H71.0496C71.3679 178.469 71.6261 178.727 71.6261 179.045C71.6259 179.364 71.3679 179.622 71.0496 179.622Z" fill="white"/>
<path d="M75.4705 179.622H73.714C73.3956 179.622 73.1375 179.364 73.1375 179.045C73.1375 178.727 73.3956 178.469 73.714 178.469H75.4705C75.7888 178.469 76.047 178.727 76.047 179.045C76.047 179.364 75.7888 179.622 75.4705 179.622Z" fill="white"/>
<path d="M79.8916 179.622H78.1351C77.8167 179.622 77.5586 179.364 77.5586 179.045C77.5586 178.727 77.8167 178.469 78.1351 178.469H79.8916C80.21 178.469 80.4681 178.727 80.4681 179.045C80.4681 179.364 80.21 179.622 79.8916 179.622Z" fill="white"/>
<path d="M84.3125 179.622H82.556C82.2376 179.622 81.9795 179.364 81.9795 179.045C81.9795 178.727 82.2376 178.469 82.556 178.469H84.3125C84.6309 178.469 84.889 178.727 84.889 179.045C84.889 179.364 84.6309 179.622 84.3125 179.622Z" fill="white"/>
<path d="M71.0496 182.122H69.2931C68.9747 182.122 68.7166 181.864 68.7166 181.546C68.7166 181.228 68.9747 180.969 69.2931 180.969H71.0496C71.3679 180.969 71.6261 181.228 71.6261 181.546C71.6261 181.864 71.3679 182.122 71.0496 182.122Z" fill="white"/>
<path d="M75.4705 182.122H73.714C73.3956 182.122 73.1375 181.864 73.1375 181.546C73.1375 181.228 73.3956 180.969 73.714 180.969H75.4705C75.7888 180.969 76.047 181.228 76.047 181.546C76.047 181.864 75.7888 182.122 75.4705 182.122Z" fill="white"/>
<path d="M79.8916 182.122H78.1351C77.8167 182.122 77.5586 181.864 77.5586 181.546C77.5586 181.228 77.8167 180.969 78.1351 180.969H79.8916C80.21 180.969 80.4681 181.228 80.4681 181.546C80.4681 181.864 80.21 182.122 79.8916 182.122Z" fill="#4ED066"/>
<path d="M84.3125 182.122H82.556C82.2376 182.122 81.9795 181.864 81.9795 181.546C81.9795 181.228 82.2376 180.969 82.556 180.969H84.3125C84.6309 180.969 84.889 181.228 84.889 181.546C84.889 181.864 84.6309 182.122 84.3125 182.122Z" fill="white"/>
<path d="M92.3184 177.403C91.4129 177.403 90.6763 178.14 90.6763 179.045C90.6763 179.951 91.4129 180.687 92.3184 180.687C93.2238 180.687 93.9605 179.951 93.9605 179.045C93.9605 178.14 93.2239 177.403 92.3184 177.403Z" fill="#F99BB2"/>
<path d="M96.8675 177.403C95.962 177.403 95.2253 178.14 95.2253 179.045C95.2253 179.951 95.962 180.687 96.8675 180.687C97.7728 180.687 98.5096 179.951 98.5096 179.045C98.5096 178.14 97.773 177.403 96.8675 177.403Z" fill="#F93D69"/>
<path d="M101.417 177.403C100.511 177.403 99.7744 178.14 99.7744 179.045C99.7744 179.951 100.511 180.687 101.417 180.687C102.322 180.687 103.059 179.951 103.059 179.045C103.059 178.14 102.322 177.403 101.417 177.403Z" fill="#F99BB2"/>
<path d="M102.71 196.297H67.5042C66.9917 196.297 66.5762 195.882 66.5762 195.369V187.324C66.5762 186.811 66.9917 186.396 67.5042 186.396H102.71C103.222 186.396 103.638 186.811 103.638 187.324V195.369C103.638 195.882 103.223 196.297 102.71 196.297Z" fill="#F93D69"/>
<path d="M103.624 195.614H66.5897C65.9807 195.614 65.4871 195.12 65.4871 194.511V188.182C65.4871 187.573 65.9807 187.079 66.5897 187.079H103.624C104.233 187.079 104.727 187.573 104.727 188.182V194.511C104.727 195.12 104.233 195.614 103.624 195.614Z" fill="#FF6483"/>
<path d="M71.0496 189.422H69.2931C68.9747 189.422 68.7166 189.164 68.7166 188.846C68.7166 188.527 68.9747 188.269 69.2931 188.269H71.0496C71.3679 188.269 71.6261 188.527 71.6261 188.846C71.6261 189.164 71.3679 189.422 71.0496 189.422Z" fill="white"/>
<path d="M75.4705 189.422H73.714C73.3956 189.422 73.1375 189.164 73.1375 188.846C73.1375 188.527 73.3956 188.269 73.714 188.269H75.4705C75.7888 188.269 76.047 188.527 76.047 188.846C76.047 189.164 75.7888 189.422 75.4705 189.422Z" fill="white"/>
<path d="M79.8916 189.422H78.1351C77.8167 189.422 77.5586 189.164 77.5586 188.846C77.5586 188.527 77.8167 188.269 78.1351 188.269H79.8916C80.21 188.269 80.4681 188.527 80.4681 188.846C80.4681 189.164 80.21 189.422 79.8916 189.422Z" fill="white"/>
<path d="M84.3125 189.422H82.556C82.2376 189.422 81.9795 189.164 81.9795 188.846C81.9795 188.527 82.2376 188.269 82.556 188.269H84.3125C84.6309 188.269 84.889 188.527 84.889 188.846C84.889 189.164 84.6309 189.422 84.3125 189.422Z" fill="#4ED066"/>
<path d="M71.0496 191.923H69.2931C68.9747 191.923 68.7166 191.665 68.7166 191.347C68.7166 191.028 68.9747 190.77 69.2931 190.77H71.0496C71.3679 190.77 71.6261 191.028 71.6261 191.347C71.6259 191.665 71.3679 191.923 71.0496 191.923Z" fill="#4ED066"/>
<path d="M75.4705 191.923H73.714C73.3956 191.923 73.1375 191.665 73.1375 191.347C73.1375 191.028 73.3956 190.77 73.714 190.77H75.4705C75.7888 190.77 76.047 191.028 76.047 191.347C76.047 191.665 75.7888 191.923 75.4705 191.923Z" fill="white"/>
<path d="M79.8916 191.923H78.1351C77.8167 191.923 77.5586 191.665 77.5586 191.347C77.5586 191.028 77.8167 190.77 78.1351 190.77H79.8916C80.21 190.77 80.4681 191.028 80.4681 191.347C80.4681 191.665 80.21 191.923 79.8916 191.923Z" fill="white"/>
<path d="M84.3125 191.923H82.556C82.2376 191.923 81.9795 191.665 81.9795 191.347C81.9795 191.028 82.2376 190.77 82.556 190.77H84.3125C84.6309 190.77 84.889 191.028 84.889 191.347C84.889 191.665 84.6309 191.923 84.3125 191.923Z" fill="white"/>
<path d="M71.0496 194.424H69.2931C68.9747 194.424 68.7166 194.166 68.7166 193.847C68.7166 193.529 68.9747 193.271 69.2931 193.271H71.0496C71.3679 193.271 71.6261 193.529 71.6261 193.847C71.6259 194.166 71.3679 194.424 71.0496 194.424Z" fill="white"/>
<path d="M75.4705 194.424H73.714C73.3956 194.424 73.1375 194.166 73.1375 193.847C73.1375 193.529 73.3956 193.271 73.714 193.271H75.4705C75.7888 193.271 76.047 193.529 76.047 193.847C76.047 194.166 75.7888 194.424 75.4705 194.424Z" fill="white"/>
<path d="M79.8916 194.424H78.1351C77.8167 194.424 77.5586 194.166 77.5586 193.847C77.5586 193.529 77.8167 193.271 78.1351 193.271H79.8916C80.21 193.271 80.4681 193.529 80.4681 193.847C80.4681 194.166 80.21 194.424 79.8916 194.424Z" fill="white"/>
<path d="M84.3125 194.424H82.556C82.2376 194.424 81.9795 194.166 81.9795 193.847C81.9795 193.529 82.2376 193.271 82.556 193.271H84.3125C84.6309 193.271 84.889 193.529 84.889 193.847C84.889 194.166 84.6309 194.424 84.3125 194.424Z" fill="white"/>
<path d="M92.3184 189.705C91.4129 189.705 90.6763 190.441 90.6763 191.347C90.6763 192.252 91.4129 192.989 92.3184 192.989C93.2238 192.989 93.9605 192.252 93.9605 191.347C93.9605 190.441 93.2239 189.705 92.3184 189.705Z" fill="#F99BB2"/>
<path d="M96.8675 189.705C95.962 189.705 95.2253 190.441 95.2253 191.347C95.2253 192.252 95.962 192.989 96.8675 192.989C97.7728 192.989 98.5096 192.252 98.5096 191.347C98.5096 190.441 97.773 189.705 96.8675 189.705Z" fill="#F93D69"/>
<path d="M101.417 189.705C100.511 189.705 99.7744 190.441 99.7744 191.347C99.7744 192.252 100.511 192.989 101.417 192.989C102.322 192.989 103.059 192.252 103.059 191.347C103.059 190.441 102.322 189.705 101.417 189.705Z" fill="#F93D69"/>
<path d="M102.71 208.598H67.5042C66.9917 208.598 66.5762 208.183 66.5762 207.67V199.625C66.5762 199.113 66.9917 198.697 67.5042 198.697H102.71C103.222 198.697 103.638 199.113 103.638 199.625V207.67C103.638 208.183 103.223 208.598 102.71 208.598Z" fill="#F93D69"/>
<path d="M103.624 207.915H66.5897C65.9807 207.915 65.4871 207.422 65.4871 206.812V200.483C65.4871 199.874 65.9807 199.38 66.5897 199.38H103.624C104.233 199.38 104.727 199.874 104.727 200.483V206.812C104.727 207.421 104.233 207.915 103.624 207.915Z" fill="#FF6483"/>
<path d="M71.0496 201.723H69.2931C68.9747 201.723 68.7166 201.465 68.7166 201.147C68.7166 200.828 68.9747 200.57 69.2931 200.57H71.0496C71.3679 200.57 71.6261 200.828 71.6261 201.147C71.6259 201.465 71.3679 201.723 71.0496 201.723Z" fill="white"/>
<path d="M75.4705 201.723H73.714C73.3956 201.723 73.1375 201.465 73.1375 201.147C73.1375 200.828 73.3956 200.57 73.714 200.57H75.4705C75.7888 200.57 76.047 200.828 76.047 201.147C76.047 201.465 75.7888 201.723 75.4705 201.723Z" fill="white"/>
<path d="M79.8916 201.723H78.1351C77.8167 201.723 77.5586 201.465 77.5586 201.147C77.5586 200.828 77.8167 200.57 78.1351 200.57H79.8916C80.21 200.57 80.4681 200.828 80.4681 201.147C80.4681 201.465 80.21 201.723 79.8916 201.723Z" fill="#4ED066"/>
<path d="M84.3125 201.723H82.556C82.2376 201.723 81.9795 201.465 81.9795 201.147C81.9795 200.828 82.2376 200.57 82.556 200.57H84.3125C84.6309 200.57 84.889 200.828 84.889 201.147C84.889 201.465 84.6309 201.723 84.3125 201.723Z" fill="white"/>
<path d="M71.0496 204.224H69.2931C68.9747 204.224 68.7166 203.966 68.7166 203.648C68.7166 203.329 68.9747 203.071 69.2931 203.071H71.0496C71.3679 203.071 71.6261 203.329 71.6261 203.648C71.6261 203.966 71.3679 204.224 71.0496 204.224Z" fill="white"/>
<path d="M75.4705 204.224H73.714C73.3956 204.224 73.1375 203.966 73.1375 203.648C73.1375 203.329 73.3956 203.071 73.714 203.071H75.4705C75.7888 203.071 76.047 203.329 76.047 203.648C76.047 203.966 75.7888 204.224 75.4705 204.224Z" fill="white"/>
<path d="M79.8916 204.224H78.1351C77.8167 204.224 77.5586 203.966 77.5586 203.648C77.5586 203.329 77.8167 203.071 78.1351 203.071H79.8916C80.21 203.071 80.4681 203.329 80.4681 203.648C80.4681 203.966 80.21 204.224 79.8916 204.224Z" fill="white"/>
<path d="M84.3125 204.224H82.556C82.2376 204.224 81.9795 203.966 81.9795 203.648C81.9795 203.329 82.2376 203.071 82.556 203.071H84.3125C84.6309 203.071 84.889 203.329 84.889 203.648C84.889 203.966 84.6309 204.224 84.3125 204.224Z" fill="white"/>
<path d="M71.0496 206.725H69.2931C68.9747 206.725 68.7166 206.467 68.7166 206.149C68.7166 205.83 68.9747 205.572 69.2931 205.572H71.0496C71.3679 205.572 71.6261 205.83 71.6261 206.149C71.6261 206.467 71.3679 206.725 71.0496 206.725Z" fill="#4ED066"/>
<path d="M75.4705 206.725H73.714C73.3956 206.725 73.1375 206.467 73.1375 206.149C73.1375 205.83 73.3956 205.572 73.714 205.572H75.4705C75.7888 205.572 76.047 205.83 76.047 206.149C76.047 206.467 75.7888 206.725 75.4705 206.725Z" fill="white"/>
<path d="M79.8916 206.725H78.1351C77.8167 206.725 77.5586 206.467 77.5586 206.149C77.5586 205.83 77.8167 205.572 78.1351 205.572H79.8916C80.21 205.572 80.4681 205.83 80.4681 206.149C80.4681 206.467 80.21 206.725 79.8916 206.725Z" fill="white"/>
<path d="M84.3125 206.725H82.556C82.2376 206.725 81.9795 206.467 81.9795 206.149C81.9795 205.83 82.2376 205.572 82.556 205.572H84.3125C84.6309 205.572 84.889 205.83 84.889 206.149C84.889 206.467 84.6309 206.725 84.3125 206.725Z" fill="white"/>
<path d="M92.3184 202.006C91.4129 202.006 90.6763 202.742 90.6763 203.648C90.6763 204.553 91.4129 205.29 92.3184 205.29C93.2238 205.29 93.9605 204.553 93.9605 203.648C93.9605 202.742 93.2239 202.006 92.3184 202.006Z" fill="#F93D69"/>
<path d="M96.8675 202.006C95.962 202.006 95.2253 202.742 95.2253 203.648C95.2253 204.553 95.962 205.29 96.8675 205.29C97.7728 205.29 98.5096 204.553 98.5096 203.648C98.5096 202.742 97.773 202.006 96.8675 202.006Z" fill="#F99BB2"/>
<path d="M101.417 202.006C100.511 202.006 99.7744 202.742 99.7744 203.648C99.7744 204.553 100.511 205.29 101.417 205.29C102.322 205.29 103.059 204.553 103.059 203.648C103.059 202.742 102.322 202.006 101.417 202.006Z" fill="#F93D69"/>
<path d="M209.343 94.5588V112.543C209.343 113.413 209.09 114.225 208.654 114.91C207.87 116.141 206.492 116.959 204.927 116.959H175.535C173.099 116.959 171.118 114.978 171.118 112.543V94.5588C171.118 93.8604 171.282 93.1997 171.573 92.6112C172.209 91.3198 173.458 90.3838 174.939 90.1828H174.94C175.136 90.1562 175.333 90.1428 175.535 90.1428H204.927C206.145 90.1428 207.249 90.6381 208.048 91.4377C208.848 92.2373 209.343 93.3413 209.343 94.5588Z" fill="#514592"/>
<path d="M204.927 90.1427C207.362 90.1427 209.343 92.1238 209.343 94.5588V112.543C209.343 114.978 207.362 116.959 204.927 116.959H175.535C173.099 116.959 171.118 114.978 171.118 112.543V94.5588C171.118 92.1238 173.1 90.1427 175.535 90.1427H204.927ZM204.927 89.5874H175.535C172.789 89.5874 170.563 91.8132 170.563 94.5588V112.543C170.563 115.288 172.789 117.514 175.535 117.514H204.927C207.673 117.514 209.898 115.288 209.898 112.543V94.5588C209.898 91.8132 207.673 89.5874 204.927 89.5874Z" fill="#3D377C"/>
<path d="M209.507 96.7901H170.961C170.808 96.7901 170.684 96.6659 170.684 96.5125C170.684 96.3591 170.808 96.2349 170.961 96.2349H209.507C209.661 96.2349 209.785 96.3591 209.785 96.5125C209.785 96.6659 209.661 96.7901 209.507 96.7901Z" fill="#3D377C"/>
<path d="M181.14 93.3806C181.14 93.7608 181.448 94.0689 181.828 94.0689C182.208 94.0689 182.516 93.7608 182.516 93.3806C182.516 93.0005 182.208 92.6924 181.828 92.6924C181.448 92.6924 181.14 93.0005 181.14 93.3806Z" fill="#4ED066"/>
<path d="M178.142 93.3806C178.142 93.7608 178.45 94.0689 178.83 94.0689C179.21 94.0689 179.519 93.7608 179.519 93.3806C179.519 93.0005 179.21 92.6924 178.83 92.6924C178.45 92.6924 178.142 93.0005 178.142 93.3806Z" fill="#FB9B5B"/>
<path d="M175.144 93.3806C175.144 93.7608 175.452 94.0689 175.833 94.0689C176.213 94.0689 176.521 93.7608 176.521 93.3806C176.521 93.0005 176.213 92.6924 175.833 92.6924C175.452 92.6924 175.144 93.0005 175.144 93.3806Z" fill="#FF6482"/>
<path d="M202.478 106.64H200.427C200.143 106.64 199.914 106.41 199.914 106.127C199.914 105.844 200.143 105.614 200.427 105.614H202.478C202.761 105.614 202.991 105.844 202.991 106.127C202.991 106.41 202.761 106.64 202.478 106.64Z" fill="#4ED066"/>
<path d="M198.375 106.64H196.324C196.041 106.64 195.811 106.41 195.811 106.127C195.811 105.844 196.041 105.614 196.324 105.614H198.375C198.659 105.614 198.888 105.844 198.888 106.127C198.888 106.41 198.659 106.64 198.375 106.64Z" fill="#FF6482"/>
<path d="M194.273 106.64H192.221C191.938 106.64 191.708 106.41 191.708 106.127C191.708 105.844 191.938 105.614 192.221 105.614H194.273C194.556 105.614 194.785 105.844 194.785 106.127C194.785 106.41 194.556 106.64 194.273 106.64Z" fill="#FF6482"/>
<path d="M190.17 106.64H188.119C187.835 106.64 187.606 106.41 187.606 106.127C187.606 105.844 187.835 105.614 188.119 105.614H190.17C190.453 105.614 190.683 105.844 190.683 106.127C190.683 106.41 190.453 106.64 190.17 106.64Z" fill="#FF6482"/>
<path d="M186.067 106.64H184.016C183.733 106.64 183.503 106.41 183.503 106.127C183.503 105.844 183.732 105.614 184.016 105.614H186.067C186.35 105.614 186.58 105.844 186.58 106.127C186.58 106.41 186.35 106.64 186.067 106.64Z" fill="#EBF2FF"/>
<path d="M181.964 106.64H179.913C179.63 106.64 179.4 106.41 179.4 106.127C179.4 105.844 179.63 105.614 179.913 105.614H181.964C182.248 105.614 182.477 105.844 182.477 106.127C182.477 106.41 182.248 106.64 181.964 106.64Z" fill="#EBF2FF"/>
<path d="M177.862 106.64H175.81C175.527 106.64 175.298 106.41 175.298 106.127C175.298 105.844 175.527 105.614 175.81 105.614H177.862C178.145 105.614 178.375 105.844 178.375 106.127C178.375 106.41 178.145 106.64 177.862 106.64Z" fill="#EBF2FF"/>
<path d="M204.651 101.265H202.6C202.316 101.265 202.087 101.036 202.087 100.752C202.087 100.469 202.316 100.24 202.6 100.24H204.651C204.934 100.24 205.164 100.469 205.164 100.752C205.164 101.036 204.934 101.265 204.651 101.265Z" fill="#EBF2FF"/>
<path d="M190.17 101.265H188.119C187.835 101.265 187.606 101.036 187.606 100.752C187.606 100.469 187.835 100.24 188.119 100.24H190.17C190.453 100.24 190.683 100.469 190.683 100.752C190.683 101.036 190.453 101.265 190.17 101.265ZM186.067 101.265H184.016C183.733 101.265 183.503 101.036 183.503 100.752C183.503 100.469 183.732 100.24 184.016 100.24H186.067C186.35 100.24 186.58 100.469 186.58 100.752C186.58 101.036 186.35 101.265 186.067 101.265ZM181.964 101.265H179.913C179.63 101.265 179.4 101.036 179.4 100.752C179.4 100.469 179.63 100.24 179.913 100.24H181.964C182.248 100.24 182.477 100.469 182.477 100.752C182.477 101.036 182.248 101.265 181.964 101.265ZM177.862 101.265H175.81C175.527 101.265 175.298 101.036 175.298 100.752C175.298 100.469 175.527 100.24 175.81 100.24H177.862C178.145 100.24 178.375 100.469 178.375 100.752C178.375 101.036 178.145 101.265 177.862 101.265Z" fill="#FF6482"/>
<path d="M199.462 101.265H197.411C197.127 101.265 196.898 101.036 196.898 100.752C196.898 100.469 197.127 100.24 197.411 100.24H199.462C199.745 100.24 199.975 100.469 199.975 100.752C199.975 101.036 199.745 101.265 199.462 101.265ZM195.359 101.265H193.308C193.025 101.265 192.795 101.036 192.795 100.752C192.795 100.469 193.024 100.24 193.308 100.24H195.359C195.642 100.24 195.872 100.469 195.872 100.752C195.872 101.036 195.643 101.265 195.359 101.265Z" fill="#4ED066"/>
<path d="M199.111 112.014H196.324C196.041 112.014 195.811 111.785 195.811 111.501C195.811 111.218 196.041 110.989 196.324 110.989H199.111C199.394 110.989 199.623 111.218 199.623 111.501C199.623 111.785 199.394 112.014 199.111 112.014Z" fill="#EBF2FF"/>
<path d="M194.273 112.014H192.221C191.938 112.014 191.708 111.785 191.708 111.501C191.708 111.218 191.938 110.989 192.221 110.989H194.273C194.556 110.989 194.785 111.218 194.785 111.501C194.785 111.785 194.556 112.014 194.273 112.014Z" fill="#EBF2FF"/>
<path d="M190.17 112.014H188.119C187.835 112.014 187.606 111.785 187.606 111.501C187.606 111.218 187.835 110.989 188.119 110.989H190.17C190.453 110.989 190.683 111.218 190.683 111.501C190.683 111.785 190.453 112.014 190.17 112.014Z" fill="#4ED066"/>
<path d="M186.067 112.014H184.016C183.733 112.014 183.503 111.785 183.503 111.501C183.503 111.218 183.733 110.989 184.016 110.989H186.067C186.35 110.989 186.58 111.218 186.58 111.501C186.58 111.785 186.35 112.014 186.067 112.014Z" fill="#4ED066"/>
<path d="M181.964 112.014H179.913C179.63 112.014 179.4 111.785 179.4 111.501C179.4 111.218 179.63 110.989 179.913 110.989H181.964C182.248 110.989 182.477 111.218 182.477 111.501C182.477 111.785 182.248 112.014 181.964 112.014Z" fill="#4ED066"/>
<path d="M177.862 112.014H175.81C175.527 112.014 175.298 111.785 175.298 111.501C175.298 111.218 175.527 110.989 175.81 110.989H177.862C178.145 110.989 178.375 111.218 178.375 111.501C178.375 111.785 178.145 112.014 177.862 112.014Z" fill="#FF6482"/>
<path d="M203.176 112.014H201.124C200.841 112.014 200.611 111.785 200.611 111.501C200.611 111.218 200.841 110.989 201.124 110.989H203.176C203.459 110.989 203.688 111.218 203.688 111.501C203.688 111.785 203.459 112.014 203.176 112.014Z" fill="#FF6482"/>
<path d="M87.6013 108.723H86.8513C86.6442 108.723 86.4763 108.555 86.4763 108.348C86.4763 108.141 86.6442 107.973 86.8513 107.973H87.6013C87.8084 107.973 87.9763 108.141 87.9763 108.348C87.9763 108.555 87.8084 108.723 87.6013 108.723Z" fill="#FF6483"/>
<path d="M85.3179 108.723H83.7841C83.577 108.723 83.4091 108.555 83.4091 108.348C83.4091 108.141 83.577 107.973 83.7841 107.973H85.3179C85.525 107.973 85.6929 108.141 85.6929 108.348C85.6929 108.555 85.525 108.723 85.3179 108.723ZM82.2504 108.723H80.7166C80.5095 108.723 80.3416 108.555 80.3416 108.348C80.3416 108.141 80.5095 107.973 80.7166 107.973H82.2504C82.4575 107.973 82.6254 108.141 82.6254 108.348C82.6254 108.555 82.4575 108.723 82.2504 108.723ZM79.183 108.723H77.6492C77.4421 108.723 77.2742 108.555 77.2742 108.348C77.2742 108.141 77.4421 107.973 77.6492 107.973H79.183C79.3901 107.973 79.558 108.141 79.558 108.348C79.558 108.555 79.3901 108.723 79.183 108.723ZM76.1155 108.723H74.5817C74.3746 108.723 74.2067 108.555 74.2067 108.348C74.2067 108.141 74.3746 107.973 74.5817 107.973H76.1155C76.3226 107.973 76.4905 108.141 76.4905 108.348C76.4905 108.555 76.3226 108.723 76.1155 108.723ZM73.048 108.723H71.5142C71.3071 108.723 71.1392 108.555 71.1392 108.348C71.1392 108.141 71.3071 107.973 71.5142 107.973H73.048C73.2551 107.973 73.423 108.141 73.423 108.348C73.423 108.555 73.2551 108.723 73.048 108.723ZM69.9806 108.723H68.4469C68.2397 108.723 68.0719 108.555 68.0719 108.348C68.0719 108.141 68.2397 107.973 68.4469 107.973H69.9806C70.1877 107.973 70.3556 108.141 70.3556 108.348C70.3556 108.555 70.1877 108.723 69.9806 108.723ZM66.9131 108.723H65.3794C65.1722 108.723 65.0044 108.555 65.0044 108.348C65.0044 108.141 65.1722 107.973 65.3794 107.973H66.9131C67.1202 107.973 67.2881 108.141 67.2881 108.348C67.2881 108.555 67.1202 108.723 66.9131 108.723ZM63.8456 108.723H62.3119C62.1047 108.723 61.9369 108.555 61.9369 108.348C61.9369 108.141 62.1047 107.973 62.3119 107.973H63.8456C64.0527 107.973 64.2206 108.141 64.2206 108.348C64.2206 108.555 64.0527 108.723 63.8456 108.723ZM60.7782 108.723H59.2445C59.0374 108.723 58.8695 108.555 58.8695 108.348C58.8695 108.141 59.0374 107.973 59.2445 107.973H60.7782C60.9854 107.973 61.1532 108.141 61.1532 108.348C61.1532 108.555 60.9852 108.723 60.7782 108.723ZM57.7107 108.723H56.177C55.9699 108.723 55.802 108.555 55.802 108.348C55.802 108.141 55.9699 107.973 56.177 107.973H57.7107C57.9179 107.973 58.0857 108.141 58.0857 108.348C58.0857 108.555 57.9179 108.723 57.7107 108.723ZM54.6434 108.723H53.1096C52.9025 108.723 52.7346 108.555 52.7346 108.348C52.7346 108.141 52.9025 107.973 53.1096 107.973H54.6434C54.8505 107.973 55.0184 108.141 55.0184 108.348C55.0184 108.555 54.8504 108.723 54.6434 108.723ZM51.5757 108.723H50.042C49.8349 108.723 49.667 108.555 49.667 108.348C49.667 108.141 49.8349 107.973 50.042 107.973H51.5757C51.7829 107.973 51.9507 108.141 51.9507 108.348C51.9507 108.555 51.7829 108.723 51.5757 108.723Z" fill="#FF6483"/>
<path d="M48.5083 108.723H47.7583C47.5512 108.723 47.3833 108.555 47.3833 108.348V107.598C47.3833 107.391 47.5512 107.223 47.7583 107.223C47.9654 107.223 48.1333 107.391 48.1333 107.598V107.973H48.5083C48.7154 107.973 48.8833 108.141 48.8833 108.348C48.8833 108.555 48.7154 108.723 48.5083 108.723Z" fill="#FF6483"/>
<path d="M47.7583 106.549C47.5512 106.549 47.3833 106.381 47.3833 106.174V104.75C47.3833 104.543 47.5512 104.375 47.7583 104.375C47.9654 104.375 48.1333 104.543 48.1333 104.75V106.174C48.1333 106.381 47.9654 106.549 47.7583 106.549ZM47.7583 103.701C47.5512 103.701 47.3833 103.534 47.3833 103.326V101.903C47.3833 101.696 47.5512 101.528 47.7583 101.528C47.9654 101.528 48.1333 101.696 48.1333 101.903V103.326C48.1333 103.534 47.9654 103.701 47.7583 103.701ZM47.7583 100.854C47.5512 100.854 47.3833 100.686 47.3833 100.479V99.0552C47.3833 98.8481 47.5512 98.6802 47.7583 98.6802C47.9654 98.6802 48.1333 98.8481 48.1333 99.0552V100.479C48.1333 100.686 47.9654 100.854 47.7583 100.854ZM47.7583 98.0065C47.5512 98.0065 47.3833 97.8386 47.3833 97.6315V96.2077C47.3833 96.0006 47.5512 95.8327 47.7583 95.8327C47.9654 95.8327 48.1333 96.0006 48.1333 96.2077V97.6315C48.1333 97.8385 47.9654 98.0065 47.7583 98.0065ZM47.7583 95.1588C47.5512 95.1588 47.3833 94.991 47.3833 94.7838V93.3601C47.3833 93.153 47.5512 92.9851 47.7583 92.9851C47.9654 92.9851 48.1333 93.153 48.1333 93.3601V94.7838C48.1333 94.991 47.9654 95.1588 47.7583 95.1588ZM47.7583 92.3113C47.5512 92.3113 47.3833 92.1435 47.3833 91.9363V90.5126C47.3833 90.3055 47.5512 90.1376 47.7583 90.1376C47.9654 90.1376 48.1333 90.3055 48.1333 90.5126V91.9363C48.1333 92.1435 47.9654 92.3113 47.7583 92.3113ZM47.7583 89.4638C47.5512 89.4638 47.3833 89.296 47.3833 89.0888V87.6651C47.3833 87.458 47.5512 87.2901 47.7583 87.2901C47.9654 87.2901 48.1333 87.458 48.1333 87.6651V89.0888C48.1333 89.296 47.9654 89.4638 47.7583 89.4638ZM47.7583 86.6163C47.5512 86.6163 47.3833 86.4485 47.3833 86.2413V84.8176C47.3833 84.6105 47.5512 84.4426 47.7583 84.4426C47.9654 84.4426 48.1333 84.6105 48.1333 84.8176V86.2413C48.1333 86.4483 47.9654 86.6163 47.7583 86.6163ZM47.7583 83.7687C47.5512 83.7687 47.3833 83.6008 47.3833 83.3937V81.97C47.3833 81.7628 47.5512 81.595 47.7583 81.595C47.9654 81.595 48.1333 81.7628 48.1333 81.97V83.3937C48.1333 83.6008 47.9654 83.7687 47.7583 83.7687Z" fill="#FF6483"/>
<path d="M47.7583 80.9211C47.5512 80.9211 47.3833 80.7533 47.3833 80.5461V79.7961C47.3833 79.589 47.5512 79.4211 47.7583 79.4211C47.9654 79.4211 48.1333 79.589 48.1333 79.7961V80.5461C48.1333 80.7533 47.9654 80.9211 47.7583 80.9211Z" fill="#FF6483"/>
<path d="M89.0801 108.996C89.4395 108.133 89.0316 107.143 88.1691 106.784C87.3065 106.424 86.316 106.832 85.9566 107.695C85.5972 108.557 86.0051 109.548 86.8677 109.907C87.7302 110.266 88.7208 109.859 89.0801 108.996Z" fill="#FF6483"/>
<path d="M49.4502 79.8808C49.4502 78.9466 48.6925 78.189 47.7583 78.189C46.824 78.189 46.0664 78.9466 46.0664 79.8808C46.0664 80.8151 46.824 81.5727 47.7583 81.5727C48.6925 81.5727 49.4502 80.8151 49.4502 79.8808Z" fill="#FF6483"/>
<path d="M83.4343 154.731C83.2272 154.731 83.0593 154.563 83.0593 154.356V152.856C83.0593 152.649 83.2272 152.481 83.4343 152.481C83.6415 152.481 83.8093 152.649 83.8093 152.856V154.356C83.8093 154.563 83.6413 154.731 83.4343 154.731ZM83.4343 151.731C83.2272 151.731 83.0593 151.563 83.0593 151.356V149.856C83.0593 149.649 83.2272 149.481 83.4343 149.481C83.6415 149.481 83.8093 149.649 83.8093 149.856V151.356C83.8093 151.563 83.6413 151.731 83.4343 151.731ZM83.4343 148.731C83.2272 148.731 83.0593 148.563 83.0593 148.356V146.856C83.0593 146.649 83.2272 146.481 83.4343 146.481C83.6415 146.481 83.8093 146.649 83.8093 146.856V148.356C83.8093 148.563 83.6413 148.731 83.4343 148.731ZM83.4343 145.731C83.2272 145.731 83.0593 145.563 83.0593 145.356V145.019C83.0593 144.812 83.2272 144.644 83.4343 144.644H84.5973C84.8045 144.644 84.9723 144.812 84.9723 145.019C84.9723 145.226 84.8045 145.394 84.5973 145.394H83.8075C83.7883 145.583 83.6286 145.731 83.4343 145.731ZM125.48 145.394H125.097C124.89 145.394 124.722 145.226 124.722 145.019C124.722 144.812 124.89 144.644 125.097 144.644H125.105V143.902C125.105 143.694 125.273 143.527 125.48 143.527C125.687 143.527 125.855 143.694 125.855 143.902V145.019C125.855 145.226 125.687 145.394 125.48 145.394ZM123.597 145.394H122.097C121.89 145.394 121.722 145.226 121.722 145.019C121.722 144.812 121.89 144.644 122.097 144.644H123.597C123.804 144.644 123.972 144.812 123.972 145.019C123.972 145.226 123.804 145.394 123.597 145.394ZM120.597 145.394H119.097C118.89 145.394 118.722 145.226 118.722 145.019C118.722 144.812 118.89 144.644 119.097 144.644H120.597C120.804 144.644 120.972 144.812 120.972 145.019C120.972 145.226 120.804 145.394 120.597 145.394ZM117.597 145.394H116.097C115.89 145.394 115.722 145.226 115.722 145.019C115.722 144.812 115.89 144.644 116.097 144.644H117.597C117.804 144.644 117.972 144.812 117.972 145.019C117.972 145.226 117.804 145.394 117.597 145.394ZM114.597 145.394H113.097C112.89 145.394 112.722 145.226 112.722 145.019C112.722 144.812 112.89 144.644 113.097 144.644H114.597C114.804 144.644 114.972 144.812 114.972 145.019C114.972 145.226 114.804 145.394 114.597 145.394ZM111.597 145.394H110.097C109.89 145.394 109.722 145.226 109.722 145.019C109.722 144.812 109.89 144.644 110.097 144.644H111.597C111.804 144.644 111.972 144.812 111.972 145.019C111.972 145.226 111.804 145.394 111.597 145.394ZM108.597 145.394H107.097C106.89 145.394 106.722 145.226 106.722 145.019C106.722 144.812 106.89 144.644 107.097 144.644H108.597C108.804 144.644 108.972 144.812 108.972 145.019C108.972 145.226 108.804 145.394 108.597 145.394ZM105.597 145.394H104.097C103.89 145.394 103.722 145.226 103.722 145.019C103.722 144.812 103.89 144.644 104.097 144.644H105.597C105.804 144.644 105.972 144.812 105.972 145.019C105.972 145.226 105.804 145.394 105.597 145.394ZM102.597 145.394H101.097C100.89 145.394 100.722 145.226 100.722 145.019C100.722 144.812 100.89 144.644 101.097 144.644H102.597C102.804 144.644 102.972 144.812 102.972 145.019C102.972 145.226 102.804 145.394 102.597 145.394ZM99.5972 145.394H98.0972C97.8901 145.394 97.7222 145.226 97.7222 145.019C97.7222 144.812 97.8901 144.644 98.0972 144.644H99.5972C99.8043 144.644 99.9722 144.812 99.9722 145.019C99.9722 145.226 99.8043 145.394 99.5972 145.394ZM96.5972 145.394H95.0972C94.8901 145.394 94.7222 145.226 94.7222 145.019C94.7222 144.812 94.8901 144.644 95.0972 144.644H96.5972C96.8043 144.644 96.9722 144.812 96.9722 145.019C96.9722 145.226 96.8043 145.394 96.5972 145.394ZM93.5972 145.394H92.0972C91.8901 145.394 91.7222 145.226 91.7222 145.019C91.7222 144.812 91.8901 144.644 92.0972 144.644H93.5972C93.8043 144.644 93.9722 144.812 93.9722 145.019C93.9722 145.226 93.8043 145.394 93.5972 145.394ZM90.5972 145.394H89.0972C88.8901 145.394 88.7222 145.226 88.7222 145.019C88.7222 144.812 88.8901 144.644 89.0972 144.644H90.5972C90.8043 144.644 90.9722 144.812 90.9722 145.019C90.9722 145.226 90.8043 145.394 90.5972 145.394ZM87.5972 145.394H86.0972C85.8901 145.394 85.7222 145.226 85.7222 145.019C85.7222 144.812 85.8901 144.644 86.0972 144.644H87.5972C87.8043 144.644 87.9722 144.812 87.9722 145.019C87.9722 145.226 87.8043 145.394 87.5972 145.394ZM125.48 142.777C125.273 142.777 125.105 142.609 125.105 142.402V140.902C125.105 140.694 125.273 140.527 125.48 140.527C125.687 140.527 125.855 140.694 125.855 140.902V142.402C125.855 142.609 125.687 142.777 125.48 142.777ZM125.48 139.777C125.273 139.777 125.105 139.609 125.105 139.402V137.902C125.105 137.694 125.273 137.527 125.48 137.527C125.687 137.527 125.855 137.694 125.855 137.902V139.402C125.855 139.609 125.687 139.777 125.48 139.777Z" fill="#FF6483"/>
<path d="M126.365 139.42C127.161 138.931 127.409 137.889 126.92 137.093C126.43 136.297 125.388 136.049 124.592 136.539C123.797 137.028 123.548 138.07 124.038 138.866C124.528 139.662 125.57 139.91 126.365 139.42Z" fill="#FF6483"/>
<path d="M81.7424 155.508C81.7424 156.443 82.5001 157.2 83.4343 157.2C84.3686 157.2 85.1262 156.443 85.1262 155.508C85.1262 154.574 84.3686 153.816 83.4343 153.816C82.5001 153.816 81.7424 154.574 81.7424 155.508Z" fill="#FF6483"/>
<path d="M189.271 84.1449C189.064 84.1449 188.896 83.977 188.896 83.7699V82.2699C188.896 82.0627 189.064 81.8949 189.271 81.8949C189.479 81.8949 189.646 82.0627 189.646 82.2699V83.7699C189.646 83.977 189.479 84.1449 189.271 84.1449ZM189.271 81.1449C189.064 81.1449 188.896 80.977 188.896 80.7699V79.2699C188.896 79.0627 189.064 78.8949 189.271 78.8949C189.479 78.8949 189.646 79.0627 189.646 79.2699V80.7699C189.646 80.977 189.479 81.1449 189.271 81.1449ZM189.271 78.1449C189.064 78.1449 188.896 77.977 188.896 77.7699V76.2699C188.896 76.0627 189.064 75.8949 189.271 75.8949C189.479 75.8949 189.646 76.0627 189.646 76.2699V77.7699C189.646 77.977 189.479 78.1449 189.271 78.1449ZM125.75 75.6272C125.542 75.6272 125.375 75.4594 125.375 75.2522V73.7522C125.375 73.5451 125.542 73.3772 125.75 73.3772C125.957 73.3772 126.125 73.5451 126.125 73.7522V75.2522C126.125 75.4592 125.957 75.6272 125.75 75.6272ZM189.271 75.1449C189.064 75.1449 188.896 74.977 188.896 74.7699V73.2699C188.896 73.0627 189.064 72.8949 189.271 72.8949C189.479 72.8949 189.646 73.0627 189.646 73.2699V74.7699C189.646 74.977 189.479 75.1449 189.271 75.1449ZM125.75 72.6272C125.542 72.6272 125.375 72.4594 125.375 72.2522V70.7522C125.375 70.5451 125.542 70.3772 125.75 70.3772C125.957 70.3772 126.125 70.5451 126.125 70.7522V72.2522C126.125 72.4592 125.957 72.6272 125.75 72.6272ZM189.271 72.1449C189.064 72.1449 188.896 71.977 188.896 71.7699V70.2699C188.896 70.0627 189.064 69.8949 189.271 69.8949C189.479 69.8949 189.646 70.0627 189.646 70.2699V71.7699C189.646 71.977 189.479 72.1449 189.271 72.1449ZM125.75 69.6272C125.542 69.6272 125.375 69.4594 125.375 69.2522V68.522C125.375 68.3148 125.542 68.147 125.75 68.147H126.519C126.726 68.147 126.894 68.3148 126.894 68.522C126.894 68.7291 126.726 68.897 126.519 68.897H126.125V69.2522C126.125 69.4592 125.957 69.6272 125.75 69.6272ZM189.271 69.1449C189.109 69.1449 188.971 69.0415 188.919 68.897H188.019C187.812 68.897 187.644 68.7291 187.644 68.522C187.644 68.3148 187.812 68.147 188.019 68.147H189.272C189.479 68.147 189.647 68.3148 189.647 68.522V68.7699C189.646 68.977 189.479 69.1449 189.271 69.1449ZM186.519 68.897H185.019C184.812 68.897 184.644 68.7291 184.644 68.522C184.644 68.3148 184.812 68.147 185.019 68.147H186.519C186.726 68.147 186.894 68.3148 186.894 68.522C186.894 68.7291 186.727 68.897 186.519 68.897ZM183.519 68.897H182.019C181.812 68.897 181.644 68.7291 181.644 68.522C181.644 68.3148 181.812 68.147 182.019 68.147H183.519C183.726 68.147 183.894 68.3148 183.894 68.522C183.894 68.7291 183.727 68.897 183.519 68.897ZM180.519 68.897H179.019C178.812 68.897 178.644 68.7291 178.644 68.522C178.644 68.3148 178.812 68.147 179.019 68.147H180.519C180.726 68.147 180.894 68.3148 180.894 68.522C180.894 68.7291 180.727 68.897 180.519 68.897ZM177.519 68.897H176.019C175.812 68.897 175.644 68.7291 175.644 68.522C175.644 68.3148 175.812 68.147 176.019 68.147H177.519C177.726 68.147 177.894 68.3148 177.894 68.522C177.894 68.7291 177.727 68.897 177.519 68.897ZM174.519 68.897H173.019C172.812 68.897 172.644 68.7291 172.644 68.522C172.644 68.3148 172.812 68.147 173.019 68.147H174.519C174.726 68.147 174.894 68.3148 174.894 68.522C174.894 68.7291 174.727 68.897 174.519 68.897ZM171.519 68.897H170.019C169.812 68.897 169.644 68.7291 169.644 68.522C169.644 68.3148 169.812 68.147 170.019 68.147H171.519C171.726 68.147 171.894 68.3148 171.894 68.522C171.894 68.7291 171.727 68.897 171.519 68.897ZM168.519 68.897H167.019C166.812 68.897 166.644 68.7291 166.644 68.522C166.644 68.3148 166.812 68.147 167.019 68.147H168.519C168.726 68.147 168.894 68.3148 168.894 68.522C168.894 68.7291 168.727 68.897 168.519 68.897ZM165.519 68.897H164.019C163.812 68.897 163.644 68.7291 163.644 68.522C163.644 68.3148 163.812 68.147 164.019 68.147H165.519C165.726 68.147 165.894 68.3148 165.894 68.522C165.894 68.7291 165.727 68.897 165.519 68.897ZM162.519 68.897H161.019C160.812 68.897 160.644 68.7291 160.644 68.522C160.644 68.3148 160.812 68.147 161.019 68.147H162.519C162.726 68.147 162.894 68.3148 162.894 68.522C162.894 68.7291 162.727 68.897 162.519 68.897ZM159.519 68.897H158.019C157.812 68.897 157.644 68.7291 157.644 68.522C157.644 68.3148 157.812 68.147 158.019 68.147H159.519C159.726 68.147 159.894 68.3148 159.894 68.522C159.894 68.7291 159.727 68.897 159.519 68.897ZM156.519 68.897H155.019C154.812 68.897 154.644 68.7291 154.644 68.522C154.644 68.3148 154.812 68.147 155.019 68.147H156.519C156.726 68.147 156.894 68.3148 156.894 68.522C156.894 68.7291 156.727 68.897 156.519 68.897ZM153.519 68.897H152.019C151.812 68.897 151.644 68.7291 151.644 68.522C151.644 68.3148 151.812 68.147 152.019 68.147H153.519C153.726 68.147 153.894 68.3148 153.894 68.522C153.894 68.7291 153.727 68.897 153.519 68.897ZM150.519 68.897H149.019C148.812 68.897 148.644 68.7291 148.644 68.522C148.644 68.3148 148.812 68.147 149.019 68.147H150.519C150.726 68.147 150.894 68.3148 150.894 68.522C150.894 68.7291 150.727 68.897 150.519 68.897ZM147.519 68.897H146.019C145.812 68.897 145.644 68.7291 145.644 68.522C145.644 68.3148 145.812 68.147 146.019 68.147H147.519C147.726 68.147 147.894 68.3148 147.894 68.522C147.894 68.7291 147.727 68.897 147.519 68.897ZM144.519 68.897H143.019C142.812 68.897 142.644 68.7291 142.644 68.522C142.644 68.3148 142.812 68.147 143.019 68.147H144.519C144.726 68.147 144.894 68.3148 144.894 68.522C144.894 68.7291 144.727 68.897 144.519 68.897ZM141.519 68.897H140.019C139.812 68.897 139.644 68.7291 139.644 68.522C139.644 68.3148 139.812 68.147 140.019 68.147H141.519C141.726 68.147 141.894 68.3148 141.894 68.522C141.894 68.7291 141.727 68.897 141.519 68.897ZM138.519 68.897H137.019C136.812 68.897 136.644 68.7291 136.644 68.522C136.644 68.3148 136.812 68.147 137.019 68.147H138.519C138.726 68.147 138.894 68.3148 138.894 68.522C138.894 68.7291 138.727 68.897 138.519 68.897ZM135.519 68.897H134.019C133.812 68.897 133.644 68.7291 133.644 68.522C133.644 68.3148 133.812 68.147 134.019 68.147H135.519C135.726 68.147 135.894 68.3148 135.894 68.522C135.894 68.7291 135.727 68.897 135.519 68.897ZM132.519 68.897H131.019C130.812 68.897 130.644 68.7291 130.644 68.522C130.644 68.3148 130.812 68.147 131.019 68.147H132.519C132.726 68.147 132.894 68.3148 132.894 68.522C132.894 68.7291 132.727 68.897 132.519 68.897ZM129.519 68.897H128.019C127.812 68.897 127.644 68.7291 127.644 68.522C127.644 68.3148 127.812 68.147 128.019 68.147H129.519C129.726 68.147 129.894 68.3148 129.894 68.522C129.894 68.7291 129.727 68.897 129.519 68.897Z" fill="#FF6483"/>
<path d="M127.441 75.1677C127.441 76.102 126.684 76.8596 125.749 76.8596C124.815 76.8596 124.058 76.102 124.058 75.1677C124.058 74.2335 124.815 73.4758 125.749 73.4758C126.684 73.4758 127.441 74.2335 127.441 75.1677Z" fill="#FF6483"/>
<path d="M187.58 84.2888C187.58 85.223 188.337 85.9807 189.271 85.9807C190.206 85.9807 190.963 85.223 190.963 84.2888C190.963 83.3545 190.206 82.5969 189.271 82.5969C188.337 82.5969 187.58 83.3545 187.58 84.2888Z" fill="#FF6483"/>
<path d="M171.417 165.557L167.796 178.764C167.354 180.376 168.205 182.061 169.765 182.663C171.409 183.297 173.259 182.509 173.941 180.884L178.965 168.906L171.417 165.557Z" fill="#FFC5CD"/>
<path d="M182.954 166.324C181.58 169.611 179.929 172.689 179.077 173.045C178.09 173.458 176.034 173.272 173.95 172.782C171.142 172.123 168.282 170.912 167.908 169.865C167.683 169.234 170.125 162.997 171.904 158.485C173.738 153.84 178.119 151.688 182.485 150.314C182.485 150.314 184.852 155.828 185.181 158.485C185.343 159.79 184.279 163.154 182.954 166.324Z" fill="#209AA6"/>
<path d="M182.954 166.324C181.581 169.611 179.929 172.688 179.077 173.045C178.091 173.458 176.034 173.272 173.95 172.782C174.948 169.678 176.251 160.3 176.251 160.3L181.798 155.939L182.954 166.324Z" fill="#1A7D87"/>
<path d="M205.345 196.145C205.138 198.256 204.981 199.548 204.981 199.548H174.675C174.675 199.548 174.853 198.724 175.153 197.166C175.448 195.631 175.862 193.384 176.341 190.508C176.64 188.709 176.781 186.066 176.823 183.118C176.918 176.574 176.53 168.527 176.341 164.882C175.83 154.967 176.762 150.116 187.861 149.443C196.725 148.905 202.003 155.006 204.537 163.488C204.891 164.675 205.193 165.909 205.442 167.178C207.067 175.438 205.978 189.658 205.345 196.145Z" fill="#209AA6"/>
<path d="M205.345 196.145L175.153 197.166C175.448 195.631 175.862 193.384 176.341 190.508C176.64 188.709 176.781 186.066 176.823 183.118C177.616 184.348 179.256 184.689 180.023 184.594C188.916 183.489 198.006 179.926 198.006 179.926L197.652 178.798C197.652 178.798 196.57 179.29 195.602 177.838C194.634 176.387 193.855 165.556 193.855 165.556L204.537 163.488C204.891 164.675 205.193 165.909 205.442 167.178C207.067 175.438 205.978 189.659 205.345 196.145Z" fill="#1A7D87"/>
<path d="M195.31 142.113C196.503 140.047 196.159 137.615 194.541 136.681C192.923 135.747 190.645 136.664 189.452 138.73C188.259 140.796 188.603 143.228 190.221 144.162C191.839 145.096 194.117 144.179 195.31 142.113Z" fill="#2E234F"/>
<path d="M182.212 136.963C183.991 136.812 185.311 135.248 185.16 133.469C185.009 131.69 183.445 130.37 181.666 130.521C179.887 130.672 178.567 132.236 178.718 134.015C178.869 135.794 180.433 137.114 182.212 136.963Z" fill="#2E234F"/>
<path d="M191.704 149.715C191.561 151.564 187.814 155.216 186.079 154.6C184.345 153.984 183.926 152.419 184.258 151.138C184.283 151.039 184.304 150.923 184.319 150.792C184.498 149.231 183.973 145.637 183.973 145.637C183.973 145.637 184.756 144.708 185.809 143.56C187.822 141.365 191.023 138.187 191.427 139.339C192.044 141.093 191.846 147.866 191.704 149.715Z" fill="#FFC5CD"/>
<path d="M189.997 145.363C189.997 145.363 188.502 149.827 184.319 150.792C184.498 149.232 183.973 145.637 183.973 145.637C183.973 145.637 184.756 144.709 185.809 143.561L189.997 145.363Z" fill="#D6798E"/>
<path d="M191.772 143.395C190.806 145.338 185.093 149.13 183.359 148.812C181.626 148.494 179.942 144.785 179.673 143.929C179.404 143.075 179.7 137.875 179.673 136.948C179.673 136.938 179.673 136.926 179.672 136.916C179.667 136.703 179.667 136.496 179.672 136.294C179.711 134.507 180.124 133.14 180.539 132.205C180.959 131.259 181.885 130.634 182.92 130.603C188.801 130.425 190.93 133.05 192.248 135.54C193.671 138.229 191.772 143.395 191.772 143.395Z" fill="#FFC5CD"/>
<path d="M185.181 140.681C185.469 140.681 185.701 140.181 185.701 139.565C185.701 138.949 185.469 138.45 185.181 138.45C184.894 138.45 184.662 138.949 184.662 139.565C184.662 140.181 184.894 140.681 185.181 140.681Z" fill="#2E234F"/>
<path d="M180.41 139.552C180.41 140.091 180.194 140.529 179.926 140.529C179.658 140.529 179.441 140.091 179.441 139.552C179.441 139.012 179.658 138.575 179.926 138.575C180.193 138.575 180.41 139.012 180.41 139.552Z" fill="#2E234F"/>
<path d="M186.673 137.341C186.719 137.414 186.642 137.502 186.563 137.466C186.255 137.325 185.716 137.104 185.358 137.093C184.829 137.076 184.334 137.166 184.277 137.06C184.22 136.955 184.488 136.394 185.431 136.483C186.076 136.544 186.481 137.037 186.673 137.341Z" fill="#2E234F"/>
<path d="M180.691 137.102C180.615 137.192 180.174 137.013 179.672 136.916C179.667 136.703 179.667 136.496 179.672 136.294C179.676 136.294 179.681 136.295 179.685 136.295C180.624 136.407 180.769 137.012 180.691 137.102Z" fill="#2E234F"/>
<path d="M180.977 143.447C180.774 143.447 180.595 143.394 180.48 143.255C180.177 142.888 180.628 141.343 181.248 139.362C181.405 138.861 181.541 138.428 181.594 138.2C181.61 138.131 181.679 138.088 181.747 138.104C181.816 138.12 181.859 138.189 181.843 138.257C181.787 138.496 181.651 138.933 181.492 139.438C181.15 140.53 180.438 142.803 180.677 143.092C180.918 143.384 181.893 142.978 182.328 142.736C182.389 142.702 182.467 142.724 182.501 142.786C182.536 142.848 182.514 142.925 182.452 142.96C182.337 143.023 181.555 143.447 180.977 143.447Z" fill="#D6798E"/>
<path d="M183.714 145.637C183.459 145.637 183.211 145.553 182.975 145.387C182.566 145.1 182.31 144.648 182.218 144.467C182.195 144.423 182.184 144.395 182.184 144.395C182.17 144.361 182.171 144.324 182.187 144.291C182.202 144.259 182.231 144.234 182.265 144.224L185.484 143.266C185.522 143.255 185.564 143.262 185.596 143.286C185.628 143.31 185.646 143.348 185.647 143.387C185.647 143.413 185.649 144.008 185.333 144.59C185.048 145.116 184.602 145.456 184.007 145.601C183.908 145.625 183.81 145.637 183.714 145.637ZM182.485 144.425C182.583 144.604 182.804 144.955 183.122 145.178C183.385 145.363 183.663 145.421 183.946 145.352C184.468 145.226 184.859 144.928 185.109 144.469C185.295 144.124 185.359 143.768 185.38 143.563L182.485 144.425Z" fill="#EA5F61"/>
<path d="M185.519 143.388C185.519 143.388 185.524 143.969 185.221 144.529C185.004 144.929 184.627 145.319 183.976 145.476C183.613 145.565 183.301 145.46 183.048 145.282C182.662 145.011 182.414 144.572 182.332 144.41C182.312 144.37 182.302 144.346 182.302 144.346L185.498 143.394L185.519 143.388Z" fill="#911E26"/>
<path d="M185.498 143.395C185.173 143.667 184.256 144.396 183.592 144.57C183.032 144.715 182.57 144.538 182.332 144.41C182.312 144.37 182.302 144.346 182.302 144.346L185.498 143.395Z" fill="white"/>
<path d="M185.221 144.53C185.004 144.929 184.627 145.319 183.976 145.477C183.613 145.565 183.301 145.46 183.048 145.282C183.292 145.073 183.708 144.761 184.135 144.65C184.505 144.556 184.922 144.531 185.221 144.53Z" fill="#CB4B51"/>
<path d="M183.207 135.454C185.891 134.997 187.697 132.451 187.241 129.767C186.784 127.083 184.238 125.277 181.554 125.734C178.87 126.19 177.064 128.736 177.521 131.42C177.977 134.104 180.523 135.91 183.207 135.454Z" fill="#2E234F"/>
<path d="M188.781 136.282C190.947 136.282 192.703 134.527 192.703 132.36C192.703 130.194 190.947 128.438 188.781 128.438C186.615 128.438 184.859 130.194 184.859 132.36C184.859 134.527 186.615 136.282 188.781 136.282Z" fill="#2E234F"/>
<path d="M188.734 133.075C190.799 132.624 192.108 130.584 191.657 128.519C191.206 126.454 189.166 125.145 187.101 125.596C185.036 126.047 183.727 128.087 184.178 130.152C184.629 132.217 186.669 133.526 188.734 133.075Z" fill="#2E234F"/>
<path d="M193.672 134.533C195.167 134.293 196.185 132.886 195.945 131.391C195.705 129.895 194.299 128.877 192.803 129.117C191.308 129.357 190.29 130.764 190.53 132.26C190.77 133.755 192.176 134.773 193.672 134.533Z" fill="#2E234F"/>
<path d="M191.74 130.854C192.583 130.854 193.266 130.171 193.266 129.328C193.266 128.486 192.583 127.802 191.74 127.802C190.897 127.802 190.214 128.486 190.214 129.328C190.214 130.171 190.897 130.854 191.74 130.854Z" fill="#2E234F"/>
<path d="M195.789 138.42C197.396 137.014 197.807 134.854 196.705 133.596C195.604 132.337 193.409 132.457 191.802 133.863C190.195 135.269 189.785 137.429 190.886 138.688C191.987 139.946 194.182 139.826 195.789 138.42Z" fill="#2E234F"/>
<path d="M193.232 137.862C194.305 138.507 193.798 141.018 192.331 141.763C191.908 141.978 190.806 140.299 191.046 139.331C191.285 138.363 191.964 137.1 193.232 137.862Z" fill="#FFC5CD"/>
<path d="M190.431 135.919C190.431 135.919 188.179 139.095 191.126 140.417C191.126 140.417 190.97 138.765 191.614 138.098L190.431 135.919Z" fill="#2E234F"/>
<path d="M191.614 139.852C191.609 139.852 191.603 139.852 191.598 139.851C191.528 139.842 191.478 139.779 191.487 139.709C191.588 138.92 191.814 138.401 192.159 138.167C192.41 137.996 192.628 138.045 192.652 138.051C192.721 138.068 192.762 138.138 192.744 138.206C192.727 138.274 192.659 138.315 192.591 138.299C192.582 138.297 192.452 138.272 192.293 138.384C192.103 138.518 191.853 138.863 191.741 139.741C191.733 139.805 191.678 139.852 191.614 139.852Z" fill="#D6798E"/>
<path d="M183.936 143.273C182.616 143.273 181.543 141.675 181.543 139.712C181.543 137.749 182.616 136.152 183.936 136.152C185.255 136.152 186.328 137.749 186.328 139.712C186.328 141.675 185.255 143.273 183.936 143.273ZM183.936 136.407C182.757 136.407 181.799 137.89 181.799 139.712C181.799 141.534 182.757 143.017 183.936 143.017C185.114 143.017 186.073 141.534 186.073 139.712C186.073 137.89 185.114 136.407 183.936 136.407Z" fill="#2E234F"/>
<path d="M179.078 142.101C178.027 142.101 177.172 140.701 177.172 138.98C177.172 137.258 178.027 135.858 179.078 135.858C180.129 135.858 180.984 137.258 180.984 138.98C180.984 140.701 180.129 142.101 179.078 142.101ZM179.078 136.113C178.168 136.113 177.427 137.399 177.427 138.98C177.427 140.56 178.168 141.846 179.078 141.846C179.988 141.846 180.728 140.56 180.728 138.98C180.728 137.399 179.988 136.113 179.078 136.113Z" fill="#2E234F"/>
<path d="M181.671 139.598C181.651 139.598 181.631 139.593 181.613 139.584C181.605 139.58 181.221 139.391 180.888 139.535C180.823 139.564 180.748 139.534 180.72 139.469C180.692 139.405 180.721 139.329 180.786 139.301C181.233 139.107 181.709 139.346 181.729 139.356C181.792 139.389 181.817 139.466 181.784 139.528C181.762 139.573 181.717 139.598 181.671 139.598Z" fill="#2E234F"/>
<path d="M191.012 139.84H186.2C186.13 139.84 186.073 139.783 186.073 139.712C186.073 139.642 186.13 139.584 186.2 139.584H191.012C191.083 139.584 191.14 139.642 191.14 139.712C191.14 139.783 191.083 139.84 191.012 139.84Z" fill="#2E234F"/>
<path d="M214.249 191.523C213.955 194.716 209.043 207.036 201.168 208.205C193.292 209.375 176.448 197.913 175.63 194.95C174.813 191.987 178.313 190.22 181.821 190.22C183.069 190.22 187.198 190.471 191.803 190.241C193.943 190.134 196.087 189.571 198.27 189.466C204.606 189.163 210.62 188.983 211.772 189.414C214.175 190.313 214.249 191.523 214.249 191.523Z" fill="#1C143A"/>
<path d="M170.585 203.433C167.795 202.672 159.87 203.111 158.554 203.433C157.238 203.755 155.396 204.808 155.396 206.781C155.396 208.755 157.041 210.367 158.916 210.531C160.791 210.696 167.55 211.057 168.808 210.531C170.067 210.005 172.065 209.213 172.089 206.882C172.112 204.55 171.721 203.743 170.585 203.433Z" fill="#514593"/>
<path d="M171.692 203.433C168.902 202.672 160.977 203.111 159.661 203.433C158.346 203.755 156.504 204.808 156.504 206.781C156.504 208.755 158.148 210.367 160.023 210.531C161.898 210.696 169.95 211.003 171.209 210.477C172.467 209.95 174.011 208.832 173.805 206.677C173.625 204.786 172.829 203.743 171.692 203.433Z" fill="#209AA6"/>
<path d="M165.222 208.625C165.142 208.559 165.092 208.459 165.094 208.344L165.139 205.162C165.142 204.956 165.31 204.783 165.513 204.776C165.718 204.768 165.881 204.929 165.878 205.135L165.833 208.317C165.83 208.523 165.662 208.696 165.458 208.704C165.367 208.707 165.285 208.677 165.222 208.625Z" fill="#514593"/>
<path d="M162.22 208.625C162.14 208.559 162.09 208.459 162.092 208.344L162.137 205.162C162.14 204.956 162.308 204.783 162.511 204.776C162.716 204.768 162.879 204.929 162.876 205.135L162.831 208.317C162.828 208.523 162.66 208.696 162.456 208.704C162.366 208.707 162.283 208.677 162.22 208.625Z" fill="#514593"/>
<path d="M197.032 203.478C199.821 202.718 207.746 203.156 209.062 203.478C210.378 203.801 212.22 204.853 212.22 206.827C212.22 208.8 210.575 210.412 208.7 210.577C206.825 210.741 200.066 211.103 198.808 210.577C197.549 210.05 195.551 209.259 195.528 206.927C195.504 204.596 195.895 203.788 197.032 203.478Z" fill="#514593"/>
<path d="M195.925 203.478C198.714 202.718 206.639 203.156 207.955 203.478C209.271 203.801 211.113 204.853 211.113 206.827C211.113 208.8 209.468 210.412 207.593 210.577C205.718 210.741 197.666 211.048 196.408 210.522C195.149 209.996 193.606 208.878 193.811 206.723C193.991 204.832 194.788 203.788 195.925 203.478Z" fill="#209AA6"/>
<path d="M202.395 208.67C202.475 208.605 202.525 208.504 202.523 208.389L202.478 205.207C202.475 205.001 202.307 204.828 202.103 204.821C201.899 204.813 201.736 204.974 201.739 205.18L201.784 208.362C201.787 208.568 201.955 208.741 202.159 208.749C202.249 208.752 202.332 208.722 202.395 208.67Z" fill="#514593"/>
<path d="M205.397 208.67C205.477 208.605 205.526 208.504 205.525 208.389L205.48 205.207C205.477 205.001 205.309 204.828 205.105 204.821C204.901 204.813 204.738 204.974 204.741 205.18L204.786 208.362C204.789 208.568 204.957 208.741 205.161 208.749C205.251 208.752 205.333 208.722 205.397 208.67Z" fill="#514593"/>
<path d="M193.051 202.981C193.051 202.981 196.955 203.475 197.448 204.05C197.941 204.625 198.27 205.406 198.27 206.187C198.27 206.968 197.859 208.53 195.928 208.489C193.996 208.447 189.927 207.995 189.352 207.42L193.051 202.981Z" fill="#D6798E"/>
<path d="M160.619 193.872C162.631 197.688 172.218 203.766 175.004 205.206C175.4 205.411 175.968 205.655 176.655 205.923C177.924 206.414 179.601 206.986 181.354 207.531C181.943 207.714 182.54 207.894 183.133 208.067C186.565 209.071 189.86 209.846 190.569 209.626C191.962 209.194 194.352 206.744 194.886 205.399C195.077 204.916 195.224 204.336 195.3 203.73C195.348 203.342 195.367 202.942 195.352 202.554C195.322 201.863 195.179 201.204 194.886 200.691C194.171 199.442 192.871 195.446 188.851 193.457C188.377 193.222 187.797 192.942 187.133 192.627C181.453 189.936 169.636 184.784 165.474 185.047C160.828 185.341 158.608 190.058 160.619 193.872Z" fill="#2E234F"/>
<path d="M181.092 207.259L181.354 207.531L182.146 208.353C182.446 208.27 182.776 208.175 183.133 208.067C186.565 209.072 189.86 209.847 190.569 209.626C191.962 209.194 194.352 206.744 194.886 205.399C195.077 204.916 195.224 204.336 195.3 203.731C195.929 203.478 196.561 203.221 197.193 202.96L197.701 201.779L195.352 202.554L181.092 207.259Z" fill="#1C143A"/>
<path d="M184.758 197.751C184.678 197.751 184.598 197.728 184.528 197.678C179.992 194.491 172.47 191.743 172.395 191.716C172.187 191.64 172.079 191.41 172.155 191.202C172.23 190.994 172.46 190.887 172.668 190.963C172.744 190.99 180.365 193.773 184.989 197.023C185.17 197.15 185.213 197.4 185.086 197.581C185.008 197.692 184.884 197.751 184.758 197.751Z" fill="#1C143A"/>
<path d="M169.46 207.256C169.83 208.16 172.009 209.256 173.611 208.748C174.208 208.56 175.396 208.003 176.652 207.378C178.015 206.701 179.459 205.945 180.317 205.49C180.794 205.237 181.091 205.077 181.091 205.077L177.022 200.063C177.022 200.063 176.881 200.146 176.639 200.289C176.113 200.6 175.113 201.196 174.048 201.844C172.384 202.855 170.563 203.997 170.159 204.379C169.378 205.118 169.091 206.352 169.46 207.256Z" fill="#FFC5CD"/>
<path d="M174.048 201.845C174.12 202.698 174.34 204.125 175.005 205.206C175.515 206.036 176.149 206.812 176.652 207.378C178.015 206.702 179.459 205.945 180.317 205.49L176.639 200.289C176.113 200.6 175.113 201.196 174.048 201.845Z" fill="#D6798E"/>
<path d="M176.655 205.923C177.768 207.518 179.232 208.749 180.289 208.749C180.569 208.749 181.216 208.608 182.145 208.353C182.445 208.27 182.775 208.174 183.133 208.067C185.991 207.213 190.551 205.628 195.299 203.73C195.928 203.478 196.56 203.221 197.193 202.96C204.643 199.879 211.99 196.851 213.621 194.108C214.823 192.088 214.273 188.971 213.481 187.745C212.465 186.171 210.101 184.996 206.322 185.048C202.624 185.1 194.24 188.835 187.133 192.627C181.329 195.724 175.338 199.434 174.867 200.832C174.518 201.869 175.31 203.992 176.655 205.923Z" fill="#2E234F"/>
<path d="M174.785 201.798C174.564 201.798 174.384 201.619 174.384 201.398C174.384 200.613 174.609 200.33 174.881 200.064L174.905 200.041C177.042 197.939 186.851 192.652 187.267 192.428C187.462 192.324 187.705 192.397 187.81 192.591C187.915 192.786 187.841 193.029 187.647 193.134C187.546 193.188 177.522 198.59 175.467 200.612L175.441 200.637C175.287 200.787 175.185 200.887 175.185 201.398C175.185 201.619 175.006 201.798 174.785 201.798Z" fill="#1C143A"/>
<path d="M200.028 180.27C200.319 180.856 180.802 186.635 178.676 185.44C178.26 185.206 175.367 184.412 172.884 183.767C172.203 183.59 171.839 184.533 172.46 184.863C173.235 185.276 174.005 185.618 174.588 185.724C174.656 185.981 173.365 186.242 172.494 186.2C172.041 186.178 169.864 186.195 167.881 186.217C167.258 186.224 167.131 187.101 167.727 187.285L173.386 187.711L167.717 189.228C167.123 189.387 167.187 190.249 167.797 190.319L173.451 189.255L168.888 191.679C168.311 191.985 168.579 192.863 169.229 192.794L174.418 190.666L171.474 193.391C171.11 193.728 171.55 194.3 171.969 194.034C171.98 194.027 171.991 194.02 172.003 194.012C173.698 192.927 175.32 191.555 175.507 191.543C175.828 191.522 177.684 191.08 179.541 190.142C181.865 188.968 197 186.769 203.923 185.808C205.837 185.543 207.183 183.792 206.949 181.875L205.627 171.026L197.971 172.395C197.972 172.395 199.316 178.833 200.028 180.27Z" fill="#FFC5CD"/>
<path d="M195.817 151.098C198.623 152.407 203.658 154.805 205.15 158.906C205.986 161.204 208.631 173.084 208.155 173.969C207.679 174.854 199.147 177.745 197.078 176.812C195.008 175.879 192.743 160.728 193.516 157.628C194.29 154.529 195.817 151.098 195.817 151.098Z" fill="#209AA6"/>
<path d="M186.42 194.345H176.687C176.327 194.345 176.035 194.053 176.035 193.693V193.604C176.035 193.244 176.327 192.952 176.687 192.952H186.42C186.78 192.952 187.072 193.244 187.072 193.604V193.693C187.072 194.053 186.78 194.345 186.42 194.345Z" fill="#E23961"/>
<path d="M177.973 194.345H157.037C156.557 194.345 156.129 194.033 155.97 193.566L151.054 179.162C150.697 178.116 151.45 177.02 152.525 177.02H171.675C172.336 177.02 172.926 177.45 173.146 178.093L178.459 193.638C178.577 193.983 178.328 194.345 177.973 194.345Z" fill="#ED4A71"/>
<path d="M177.113 194.345H156.177C155.697 194.345 155.269 194.033 155.11 193.566L150.194 179.162C149.837 178.116 150.59 177.02 151.665 177.02H170.815C171.476 177.02 172.066 177.45 172.285 178.093L177.598 193.638C177.716 193.983 177.468 194.345 177.113 194.345Z" fill="#FF6483"/>
<path d="M161.559 184.622C161.778 184.457 162.068 184.759 162.602 184.578C163.06 184.421 163.115 184.106 163.34 184.12C163.962 184.16 164.489 186.625 163.99 186.904C163.775 187.024 163.514 186.658 163.044 186.781C162.641 186.886 162.591 187.217 162.361 187.219C161.765 187.222 161.055 185.001 161.559 184.622Z" fill="#F99BB2"/>
</svg>
