<svg width="50" height="50" viewBox="0 0 50 50" fill="none" xmlns="http://www.w3.org/2000/svg">
<path d="M11.2479 21.7635C14.9628 24.7628 19.2053 26.3327 23.9699 26.6705C23.9115 27.1049 23.8457 27.5339 23.7946 27.9647C23.5591 29.9564 24.0338 31.791 25.0469 33.4979C25.3262 33.9688 25.6931 34.3905 25.9505 34.8706C26.0966 35.1445 26.1897 35.4986 26.1605 35.8035C26.0765 36.6925 25.7534 37.5158 25.2879 38.2789C24.9593 38.8174 24.7932 39.3979 24.8425 40.0386C24.9867 41.866 25.1035 43.697 25.2696 45.5225C25.2952 45.8054 25.4741 46.0993 25.6512 46.3385C26.0418 46.8642 26.5256 47.3315 26.6461 48.0088C26.71 48.3611 26.73 48.7244 26.7282 49.084C26.7264 49.3962 26.5584 49.5477 26.2116 49.5459C24.4171 49.5367 22.6208 49.5587 20.8263 49.5404C20.642 49.5386 20.3773 49.3816 20.2933 49.2209C20.1053 48.8577 19.9848 48.4542 19.8734 48.0581C19.01 44.9821 18.2341 41.8787 17.2757 38.8338C16.467 36.2653 14.5411 34.7684 11.9653 34.1422C11.3209 33.9853 10.6108 34.0875 9.93172 34.0911C9.77838 34.0911 9.62138 34.166 9.46986 34.2207C9.22159 34.312 9.00253 34.4909 9.10476 34.752C9.17596 34.9345 9.40415 35.128 9.59765 35.1755C9.95727 35.2631 10.3406 35.254 10.7149 35.2759C13.2249 35.4292 15.5269 37.4574 15.9979 39.9255C16.2096 41.0354 16.1932 42.1361 15.8354 43.215C15.4849 44.2702 14.8022 45.0131 13.7269 45.3618C13.5371 45.4239 13.3162 45.4549 13.1702 45.5754C13.0278 45.6904 12.8854 45.9058 12.8945 46.0701C12.9 46.1815 13.1647 46.3585 13.3199 46.3658C14.0555 46.3987 14.793 46.375 15.5305 46.3841C16.3867 46.3969 17.0822 46.7236 17.5842 47.4429C17.9859 48.0179 18.0333 48.666 17.9822 49.3268C17.9767 49.409 17.7431 49.5349 17.6135 49.5368C15.8445 49.5495 14.0774 49.5459 12.3085 49.5422C9.48082 49.5386 6.65494 49.5367 3.82723 49.524C2.86518 49.5203 2.10759 49.0858 1.51796 48.3392C0.712907 47.3188 0.349634 46.1194 0.168909 44.8634C-0.417079 40.7999 0.554087 37.0594 2.57857 33.5471C3.83635 31.3638 5.45741 29.4562 7.11679 27.5777C8.62649 25.8672 10.0905 24.1293 11.0654 22.0373C11.1092 21.9442 11.1785 21.8639 11.2461 21.7653L11.2479 21.7635Z" fill="#209AA6"/>
<path d="M41.6426 10.8543C41.5678 10.2482 41.5276 9.71697 41.4254 9.20035C41.3798 8.96669 41.2538 8.71294 41.0859 8.545C40.6605 8.116 39.2001 7.98092 38.678 8.28943C38.1815 8.58151 38.0044 9.04884 38.0537 9.58919C38.1486 10.6279 39.6528 11.7999 40.7335 11.6739C40.8558 12.4753 40.7244 13.242 40.3721 13.9576C39.3954 15.9401 37.8383 17.1523 35.6057 17.3531C34.5688 17.4462 33.5191 17.4407 32.4768 17.437C29.9977 17.4261 28.3603 18.7295 27.8948 21.1647C27.7962 21.6759 27.5534 21.9862 27.1481 22.3075C26.4526 22.8588 25.8593 23.5397 25.2039 24.1458C25.0561 24.2827 24.8169 24.4324 24.6399 24.4105C23.2598 24.248 21.8706 24.1184 20.5106 23.8427C17.5021 23.2349 14.8004 21.9041 12.3031 20.1388C12.0767 19.9782 12.0329 19.8376 12.1096 19.5802C12.3268 18.8536 12.5149 18.1161 12.7339 17.3056C12.9931 17.4863 13.2049 17.6141 13.3947 17.7711C14.3404 18.5561 15.3499 19.2388 16.5328 19.5984C18.9571 20.3341 21.0966 19.2845 22.1134 16.8967C22.6738 15.5787 22.7833 14.1968 22.6464 12.7984C22.4073 10.3504 21.7172 7.99917 20.9962 5.6607C20.9031 5.35949 20.7497 5.06558 20.5617 4.81366C20.4613 4.67857 20.2057 4.54714 20.0652 4.58365C19.9191 4.62016 19.7384 4.85748 19.7256 5.01812C19.6891 5.43799 19.6708 5.88158 19.7621 6.28867C20.0524 7.56653 20.4065 8.82795 20.7169 10.1022C21.0619 11.5206 21.3613 12.9499 21.3028 14.4213C21.2718 15.2154 21.1203 15.9839 20.7625 16.7068C19.9794 18.295 18.4222 18.8901 16.7811 18.222C15.1819 17.5685 13.8402 16.5261 12.5678 15.3906C11.8686 14.7681 11.2096 14.1 10.5689 13.4155C9.86787 12.6652 9.65612 11.7725 9.95915 10.7739C10.5963 8.68739 11.7171 6.87101 13.141 5.24631C13.9424 4.33356 14.8132 3.47191 15.7223 2.66321C16.9235 1.59529 18.3985 1.06042 19.9611 0.777467C21.8286 0.437922 23.7216 0.370381 25.6019 0.545629C27.8418 0.753737 29.6016 1.90198 30.9853 3.63804C31.3085 4.0433 31.6151 4.47959 31.8397 4.9451C32.4001 6.10794 33.3877 6.50408 34.5779 6.5844C36.5805 6.71949 38.5849 6.84362 40.5875 6.99331C41.6043 7.06816 42.1629 7.69979 42.1501 8.71294C42.141 9.43585 42.1081 10.1569 41.6372 10.8597L41.6426 10.8543ZM27.1737 7.46247C27.17 8.29673 27.7597 8.92105 28.5519 8.92105C29.3205 8.92105 29.9156 8.29673 29.9192 7.48803C29.9229 6.67203 29.3077 6.01667 28.5355 6.01302C27.7962 6.01119 27.1755 6.66838 27.1719 7.46247H27.1737Z" fill="#209AA6"/>
<path d="M26.4835 32.9465C26.7536 32.9465 26.896 32.9465 27.0384 32.9465C28.6741 32.9465 30.3079 32.9411 31.9436 32.9538C32.4967 32.9575 32.8527 32.7257 33.0608 32.2182C33.4405 31.2908 33.833 30.3708 34.2638 29.3393C34.3551 29.5821 34.4299 29.7409 34.4755 29.9071C35.1784 32.4317 35.8775 34.9564 36.5767 37.4811C36.7118 37.9667 36.9564 38.2241 37.3306 38.2551C37.7341 38.288 38.0316 38.0872 38.227 37.5979C39.0247 35.5844 39.8133 33.5654 40.6074 31.55C40.6932 31.3328 40.8028 31.1265 40.947 30.8162C41.0857 31.0261 41.1751 31.132 41.2336 31.2543C41.4161 31.6413 41.5877 32.0338 41.763 32.4245C41.9656 32.8754 42.3197 33.1035 42.8053 33.1054C43.9974 33.1108 45.1913 33.1127 46.3833 33.1017C46.889 33.0981 47.2632 32.7676 47.276 32.3551C47.2888 31.9115 46.9292 31.5829 46.387 31.5774C45.4633 31.5665 44.5377 31.5537 43.614 31.5792C43.2179 31.5902 43.0043 31.4624 42.8528 31.0936C42.5023 30.2393 42.1135 29.4014 41.7429 28.5562C41.5859 28.2002 41.3632 27.9465 40.9342 27.952C40.4796 27.9574 40.2788 28.2568 40.131 28.6219C39.315 30.63 38.5008 32.638 37.6848 34.6443C37.6392 34.7538 37.5789 34.8578 37.4712 35.0678C37.2759 34.3686 37.1006 33.7625 36.9345 33.1528C36.3832 31.1283 35.8355 29.102 35.2824 27.0775C35.109 26.4441 34.8826 26.2049 34.4555 26.1812C33.9881 26.1538 33.749 26.3145 33.5555 26.8128C33.037 28.1473 32.5095 29.4781 32.0202 30.8217C31.8705 31.2306 31.657 31.3693 31.228 31.3638C29.5941 31.3419 27.9585 31.3364 26.3247 31.3675C25.8683 31.3766 25.6985 31.2068 25.5744 30.7997C24.4845 27.2272 26.551 23.3188 30.1126 22.4006C32.7577 21.7197 35.0269 22.4754 36.8852 24.4725C36.9491 24.5419 37.0075 24.6149 37.0696 24.6843C37.5205 25.1845 37.8235 25.1808 38.2416 24.6551C39.116 23.5561 40.1985 22.7675 41.564 22.3842C45.5947 21.256 49.5232 23.9431 49.954 28.109C50.226 30.734 49.2768 32.8717 47.433 34.6789C44.4775 37.576 41.522 40.4768 38.5702 43.3775C37.986 43.9507 37.3927 43.9872 36.8085 43.414C33.6705 40.338 30.5361 37.2602 27.4145 34.1678C27.0822 33.8374 26.8413 33.4139 26.4908 32.9447L26.4835 32.9465Z" fill="#209AA6"/>
</svg>
