<svg width="50" height="49" viewBox="0 0 50 49" fill="none" xmlns="http://www.w3.org/2000/svg">
<path d="M11.3622 21C15.1149 24.0226 19.4005 25.6047 24.2135 25.945C24.1545 26.3829 24.0881 26.8152 24.0365 27.2494C23.7986 29.2564 24.278 31.1053 25.3015 32.8254C25.5836 33.3 25.9543 33.725 26.2143 34.2088C26.3618 34.4848 26.4559 34.8417 26.4264 35.1489C26.3416 36.0448 26.0152 36.8745 25.5449 37.6435C25.213 38.1862 25.0452 38.7712 25.095 39.4169C25.2407 41.2584 25.3587 43.1036 25.5265 44.9433C25.5523 45.2285 25.733 45.5246 25.9119 45.7656C26.3065 46.2955 26.7952 46.7664 26.9169 47.4489C26.9814 47.804 27.0017 48.1701 26.9999 48.5325C26.998 48.8471 26.8284 48.9998 26.478 48.9979C24.6653 48.9887 22.8507 49.0108 21.038 48.9924C20.8518 48.9906 20.5844 48.8324 20.4996 48.6705C20.3096 48.3044 20.1879 47.8978 20.0754 47.4986C19.2032 44.3988 18.4195 41.2713 17.4513 38.2028C16.6344 35.6143 14.6889 34.1058 12.087 33.4748C11.436 33.3166 10.7187 33.4196 10.0327 33.4233C9.87777 33.4233 9.71917 33.4987 9.56612 33.5539C9.31532 33.6459 9.09404 33.8262 9.19731 34.0893C9.26922 34.2732 9.49973 34.4682 9.6952 34.5161C10.0585 34.6044 10.4457 34.5952 10.8238 34.6172C13.3594 34.7718 15.6847 36.8156 16.1605 39.3029C16.3744 40.4214 16.3578 41.5307 15.9964 42.618C15.6423 43.6813 14.9526 44.43 13.8665 44.7814C13.6747 44.844 13.4516 44.8752 13.304 44.9967C13.1602 45.1126 13.0164 45.3296 13.0256 45.4952C13.0311 45.6074 13.2985 45.7859 13.4552 45.7932C14.1984 45.8263 14.9434 45.8024 15.6884 45.8116C16.5533 45.8245 17.2559 46.1538 17.763 46.8786C18.1687 47.4581 18.2166 48.1112 18.165 48.7772C18.1594 48.86 17.9234 48.9869 17.7925 48.9887C16.0056 49.0016 14.2205 48.9979 12.4336 48.9943C9.57719 48.9906 6.72258 48.9887 3.86613 48.9759C2.89431 48.9722 2.12902 48.5343 1.53338 47.7819C0.720153 46.7535 0.353188 45.5449 0.170626 44.2792C-0.421318 40.1841 0.559719 36.4146 2.60478 32.8751C3.87534 30.6748 5.51288 28.7524 7.18913 26.8594C8.71417 25.1356 10.1931 23.3842 11.1778 21.276C11.2221 21.1821 11.2922 21.1012 11.3604 21.0018L11.3622 21Z" fill="#FAF6EE"/>
<path d="M41.4974 10.4193C41.4233 9.81225 41.3836 9.28014 41.2824 8.76267C41.2372 8.52862 41.1125 8.27446 40.9462 8.10624C40.5252 7.67654 39.0795 7.54123 38.5626 7.85025C38.0711 8.14281 37.8958 8.61091 37.9446 9.15215C38.0386 10.1926 39.5277 11.3665 40.5975 11.2403C40.7185 12.043 40.5884 12.811 40.2397 13.5278C39.2729 15.5135 37.7314 16.7277 35.5213 16.9288C34.4948 17.0221 33.4557 17.0166 32.4239 17.0129C29.9698 17.002 28.3488 18.3075 27.888 20.7468C27.7904 21.2587 27.5501 21.5696 27.1489 21.8914C26.4604 22.4436 25.8731 23.1256 25.2243 23.7327C25.0779 23.8699 24.8412 24.0198 24.6659 23.9979C23.2997 23.8351 21.9245 23.7053 20.5782 23.4292C17.6001 22.8203 14.9256 21.4873 12.4534 19.7191C12.2293 19.5582 12.186 19.4174 12.2619 19.1596C12.4769 18.4318 12.663 17.6931 12.8799 16.8813C13.1365 17.0623 13.3461 17.1903 13.5341 17.3475C14.4702 18.1338 15.4695 18.8177 16.6405 19.1779C19.0404 19.9148 21.1583 18.8634 22.1649 16.4717C22.7197 15.1515 22.8281 13.7673 22.6926 12.3667C22.4558 9.91464 21.7727 7.55951 21.0589 5.21719C20.9668 4.91548 20.815 4.62109 20.6288 4.36876C20.5294 4.23345 20.2764 4.1018 20.1373 4.13837C19.9927 4.17494 19.8138 4.41264 19.8012 4.57355C19.765 4.99411 19.7469 5.43844 19.8373 5.8462C20.1246 7.12616 20.4752 8.38966 20.7824 9.66596C21.124 11.0867 21.4203 12.5184 21.3625 13.9922C21.3318 14.7876 21.1818 15.5574 20.8276 16.2815C20.0524 17.8723 18.5109 18.4684 16.8863 17.7992C15.3033 17.1446 13.975 16.1005 12.7155 14.9632C12.0233 14.3396 11.371 13.6704 10.7367 12.9847C10.0427 12.2332 9.83311 11.3391 10.1331 10.3389C10.7638 8.24887 11.8733 6.4295 13.2829 4.80212C14.0762 3.88786 14.9382 3.0248 15.8382 2.21477C17.0272 1.14509 18.4874 0.609335 20.0343 0.325915C21.883 -0.0141883 23.7569 -0.0818413 25.6183 0.0936959C27.8356 0.302146 29.5777 1.45228 30.9475 3.1912C31.2673 3.59713 31.5709 4.03414 31.7932 4.50041C32.348 5.66517 33.3256 6.06196 34.5039 6.14242C36.4863 6.27773 38.4705 6.40206 40.4529 6.552C41.4595 6.62697 42.0124 7.25964 41.9998 8.27446C41.9908 8.99856 41.9582 9.72082 41.492 10.4248L41.4974 10.4193ZM27.1742 7.02193C27.1706 7.85756 27.7543 8.48291 28.5386 8.48291C29.2994 8.48291 29.8885 7.85756 29.8921 7.04753C29.8957 6.23019 29.2867 5.57375 28.5223 5.57009C27.7904 5.56826 27.176 6.22653 27.1724 7.02193H27.1742Z" fill="#FAF6EE"/>
<path d="M26.2143 32.9702C26.4875 32.9702 26.6316 32.9702 26.7756 32.9702C28.43 32.9702 30.0825 32.9646 31.7369 32.9776C32.2963 32.9813 32.6564 32.7462 32.8669 32.2317C33.2509 31.2916 33.6479 30.3588 34.0837 29.3131C34.176 29.5593 34.2517 29.7203 34.2979 29.8887C35.0087 32.4483 35.7159 35.0078 36.4231 37.5674C36.5597 38.0597 36.8071 38.3206 37.1856 38.3521C37.5937 38.3854 37.8947 38.1818 38.0922 37.6858C38.8991 35.6445 39.6968 33.5976 40.4999 31.5544C40.5867 31.3341 40.6975 31.125 40.8434 30.8104C40.9837 31.0232 41.0742 31.1305 41.1333 31.2545C41.3179 31.6469 41.4915 32.0448 41.6687 32.4409C41.8737 32.898 42.2319 33.1293 42.723 33.1312C43.9287 33.1367 45.1363 33.1386 46.342 33.1275C46.8535 33.1238 47.232 32.7888 47.2449 32.3705C47.2578 31.9208 46.8941 31.5877 46.3457 31.5821C45.4114 31.571 44.4753 31.5581 43.541 31.584C43.1403 31.5951 42.9243 31.4655 42.771 31.0917C42.4165 30.2255 42.0232 29.3761 41.6484 28.5192C41.4896 28.1583 41.2644 27.901 40.8305 27.9066C40.3707 27.9121 40.1676 28.2157 40.018 28.5858C39.1927 30.6216 38.3692 32.6574 37.5439 34.6913C37.4977 34.8024 37.4368 34.9079 37.3278 35.1207C37.1302 34.4119 36.953 33.7974 36.785 33.1793C36.2274 31.1268 35.6734 29.0725 35.114 27.0201C34.9386 26.3779 34.7096 26.1354 34.2776 26.1114C33.8049 26.0836 33.563 26.2465 33.3673 26.7517C32.8429 28.1046 32.3093 29.4538 31.8144 30.8159C31.663 31.2305 31.447 31.3711 31.0131 31.3656C29.3605 31.3434 27.7062 31.3378 26.0536 31.3693C25.592 31.3785 25.4203 31.2064 25.2948 30.7937C24.1924 27.1718 26.2826 23.2094 29.8849 22.2785C32.5604 21.5882 34.8555 22.3544 36.7351 24.3791C36.7997 24.4494 36.8588 24.5235 36.9216 24.5938C37.3777 25.1009 37.6842 25.0972 38.107 24.5642C38.9914 23.45 40.0864 22.6505 41.4675 22.2619C45.5444 21.1181 49.5178 23.8424 49.9536 28.0657C50.2287 30.7271 49.2686 32.8943 47.4037 34.7265C44.4143 37.6636 41.425 40.6044 38.4394 43.5452C37.8485 44.1263 37.2484 44.1633 36.6576 43.5822C33.4836 40.4637 30.3133 37.3434 27.1559 34.2083C26.8199 33.8733 26.5762 33.4439 26.2217 32.9683L26.2143 32.9702Z" fill="#FAF6EE"/>
</svg>
