<svg width="40" height="40" viewBox="0 0 40 40" fill="none" xmlns="http://www.w3.org/2000/svg">
<g clip-path="url(#clip0_481_371)">
<path d="M16.3636 10.9091H1.81818C0.814061 10.9091 0 11.7231 0 12.7272C0 13.7314 0.814061 14.5454 1.81818 14.5454H16.3636C17.3678 14.5454 18.1818 13.7314 18.1818 12.7272C18.1818 11.7231 17.3678 10.9091 16.3636 10.9091Z" fill="#1A7D87"/>
<path d="M16.3636 18.1818H1.81818C0.814061 18.1818 0 18.9958 0 19.9999C0 21.0041 0.814061 21.8181 1.81818 21.8181H16.3636C17.3678 21.8181 18.1818 21.0041 18.1818 19.9999C18.1818 18.9958 17.3678 18.1818 16.3636 18.1818Z" fill="#1A7D87"/>
<path d="M16.3636 25.4545H1.81818C0.814061 25.4545 0 26.2685 0 27.2726C0 28.2768 0.814061 29.0908 1.81818 29.0908H16.3636C17.3678 29.0908 18.1818 28.2768 18.1818 27.2726C18.1818 26.2685 17.3678 25.4545 16.3636 25.4545Z" fill="#1A7D87"/>
<path d="M39.8617 15.6678C39.5803 14.9884 38.9174 14.5454 38.182 14.5454H23.6365C22.9011 14.5454 22.2382 14.9884 21.9568 15.6678C21.6754 16.3472 21.8309 17.1293 22.3509 17.6493L29.6237 24.922C29.9786 25.277 30.4439 25.4545 30.9092 25.4545C31.3746 25.4545 31.8399 25.277 32.1948 24.9219L39.4675 17.6492C39.9877 17.1293 40.1432 16.3472 39.8617 15.6678Z" fill="#1A7D87"/>
</g>
<defs>
<clipPath id="clip0_481_371">
<rect width="40" height="40" fill="white"/>
</clipPath>
</defs>
</svg>
