<svg width="30" height="30" viewBox="0 0 30 30" fill="none" xmlns="http://www.w3.org/2000/svg">
<path d="M26.4675 8.51499C27.1284 7.85427 27.4997 6.95807 27.4998 6.02356C27.4999 5.08904 27.1288 4.19275 26.4681 3.53186C25.8074 2.87098 24.9112 2.49963 23.9767 2.49951C23.0422 2.49939 22.1459 2.87052 21.485 3.53124L4.80248 20.2175C4.51225 20.5069 4.29762 20.8632 4.17748 21.255L2.52623 26.695C2.49392 26.8031 2.49148 26.9179 2.51917 27.0273C2.54685 27.1367 2.60363 27.2365 2.68347 27.3162C2.76332 27.396 2.86325 27.4526 2.97268 27.4801C3.0821 27.5076 3.19693 27.505 3.30498 27.4725L8.74623 25.8225C9.13769 25.7034 9.49395 25.4901 9.78373 25.2012L26.4675 8.51499Z" fill="#209AA6"/>
</svg>
