<svg width="27" height="27" viewBox="0 0 27 27" fill="none" xmlns="http://www.w3.org/2000/svg">
<path d="M10.0698 2.71846C11.6233 0.128592 15.3767 0.128592 16.9302 2.71846L18.3748 5.12674C18.934 6.05902 19.8486 6.72353 20.9081 6.96729L23.6449 7.59699C26.5881 8.27417 27.7479 11.8438 25.7649 14.1216L23.9209 16.2397C23.2071 17.0597 22.8577 18.1349 22.9533 19.2178L23.2001 22.0152C23.4656 25.0236 20.429 27.2298 17.6499 26.0477L15.0657 24.9485C14.0653 24.5229 12.9347 24.5229 11.9343 24.9485L9.35008 26.0477C6.57096 27.2298 3.53443 25.0236 3.79989 22.0152L4.04674 19.2178C4.1423 18.1349 3.79295 17.0597 3.0791 16.2397L1.2351 14.1216C-0.747946 11.8438 0.411904 8.27417 3.35508 7.59699L6.0919 6.96729C7.15136 6.72353 8.06597 6.05902 8.6252 5.12674L10.0698 2.71846Z" fill="#209AA6"/>
</svg>
