<svg width="27" height="27" viewBox="0 0 27 27" fill="none" xmlns="http://www.w3.org/2000/svg">
<path d="M10.7129 3.10449C11.9751 1.00022 15.0249 1.00022 16.2871 3.10449L17.7314 5.5127C18.3955 6.61977 19.4821 7.40877 20.7402 7.69824L23.4766 8.32812C25.8678 8.87832 26.8103 11.7782 25.1992 13.6289L23.3555 15.7471C22.5078 16.7208 22.0926 17.9982 22.2061 19.2842L22.4531 22.0811C22.6688 24.5254 20.2014 26.3179 17.9434 25.3574L15.3594 24.2588C14.1714 23.7535 12.8286 23.7535 11.6406 24.2588L9.05664 25.3574C6.79861 26.3179 4.33119 24.5254 4.54688 22.0811L4.79395 19.2842C4.90742 17.9982 4.49222 16.7208 3.64453 15.7471L1.80078 13.6289C0.189719 11.7782 1.13216 8.87832 3.52344 8.32812L6.25977 7.69824C7.51787 7.40877 8.60447 6.61977 9.26855 5.5127L10.7129 3.10449Z" stroke="#209AA6" stroke-width="1.5"/>
</svg>
